<svg width="235" height="284" viewBox="0 0 235 284" fill="none" xmlns="http://www.w3.org/2000/svg">
<path d="M61.6211 92.3628C40.9474 85.2997 20.5872 78.3448 0 71.3033C1.77327 68.2701 3.44922 65.3668 5.15762 62.4852C15.5161 44.9789 25.8854 27.4835 36.2439 9.9881C37.909 7.18233 39.639 4.43073 41.2069 1.57079C41.8664 0.357488 42.6666 -1.81805e-06 43.9965 0.0108313C74.0232 0.0433305 104.05 0.0324979 134.076 0.0324979C143.667 0.0324979 153.269 0.0649985 162.86 0C164.179 0 164.795 0.411656 165.368 1.55996C178.981 28.9243 192.638 56.267 206.283 83.6097C214.036 99.1552 221.788 114.711 229.552 130.246C231.271 133.68 233.098 137.06 234.753 140.538C235.077 141.231 235.088 142.357 234.753 143.029C221.194 170.328 207.57 197.595 193.978 224.873C184.474 243.939 174.981 263.005 165.541 282.104C164.838 283.523 164.06 283.967 162.47 283.957C140.11 283.892 117.749 283.924 95.3889 283.935C76.3587 283.935 57.3177 283.935 38.2875 284C36.8926 284 36.3844 283.361 35.8546 282.278C29.7671 269.96 23.6472 257.654 17.5164 245.348C12.2507 234.796 6.95251 224.266 1.67596 213.726C1.41645 213.217 1.21101 212.686 0.95151 212.079C21.0413 205.113 40.9798 198.202 61.3724 191.128C44.8832 174.889 28.5669 158.813 12.0885 142.585C28.5777 125.87 45.0021 109.208 61.6103 92.352L61.6211 92.3628ZM131.417 262.063C131.006 261.554 130.865 261.348 130.692 261.175C120.409 250.862 110.126 240.538 99.7896 230.29C99.1625 229.661 97.9731 229.336 97.0324 229.325C89.15 229.26 81.2676 229.315 73.3852 229.325C60.8642 229.325 48.3324 229.325 35.8114 229.315C35.2167 229.315 34.622 229.315 33.8219 229.315C39.1417 239.92 44.3425 250.244 49.4569 260.622C50.0516 261.825 50.7003 262.095 51.9654 262.095C69.644 262.052 87.3335 262.085 105.012 262.095C113.684 262.095 122.356 262.095 131.417 262.095V262.063ZM84.3384 100.423C70.5739 114.386 56.7987 128.361 43.2396 142.119C46.1591 145.152 48.8946 148.132 51.76 150.97C62.1942 161.305 72.6824 171.574 83.1058 181.92C84.0032 182.808 84.7276 182.96 85.8413 182.44C87.4957 181.682 89.1933 180.988 90.9341 180.468C92.1883 180.089 92.4803 179.396 92.4695 178.204C92.4154 173.893 92.4587 169.592 92.4587 165.28C92.4587 153.732 92.4478 142.184 92.437 130.625C92.437 122.143 92.437 113.661 92.4695 105.178C92.4695 104.019 92.2857 103.293 90.9773 102.903C88.7499 102.232 86.5982 101.289 84.3492 100.433L84.3384 100.423ZM114.376 171.553C140.402 161.64 166.255 151.804 192.508 141.805C166.233 131.741 140.359 121.84 114.376 111.895V171.563V171.553ZM35.3248 54.4579C36.2763 54.4579 36.9035 54.4579 37.5306 54.4579C43.6613 54.4254 49.7921 54.3712 55.9228 54.3712C69.5575 54.3821 83.1814 54.4037 96.8161 54.4795C98.2434 54.4795 99.2382 54.0679 100.244 53.0604C108.948 44.3073 117.695 35.6083 126.443 26.8985C127.989 25.3602 129.578 23.8544 131.146 22.3378C130.53 21.9153 130.162 21.9153 129.784 21.9153C105.174 21.9045 80.5756 21.9045 55.9661 21.8503C54.7983 21.8503 54.2361 22.3161 53.6954 23.2261C49.3704 30.5926 45.0237 37.9266 40.6879 45.2823C38.947 48.2397 37.2278 51.1971 35.3248 54.4579ZM195.514 172.939C195.427 172.842 195.33 172.733 195.243 172.636C170.45 188.474 145.668 204.323 120.917 220.128C132.433 231.525 143.754 242.737 155.085 253.949C168.471 227.126 181.987 200.033 195.503 172.939H195.514ZM195.114 110.974C195.222 110.855 195.319 110.747 195.427 110.627C181.911 83.5989 168.396 56.5812 154.945 29.6718C143.635 41.0357 132.39 52.3346 121.101 63.6768C145.689 79.3848 170.407 95.1794 195.114 110.974Z" fill="white"/>
</svg>
