<svg width="542" height="609" viewBox="0 0 542 609" fill="none" xmlns="http://www.w3.org/2000/svg">
<path d="M273.4 174.695C273.4 194.403 289.375 210.365 309.069 210.365C328.764 210.365 344.739 194.39 344.739 174.695C344.739 155.001 328.764 139.026 309.069 139.026C289.375 139.026 273.4 154.987 273.4 174.695Z" fill="white"/>
<path d="M93.3643 250.605C93.3643 270.299 109.339 286.274 129.034 286.274C148.728 286.274 164.703 270.299 164.703 250.605C164.703 230.911 148.728 214.936 129.034 214.936C109.339 214.936 93.3643 230.911 93.3643 250.605Z" fill="white"/>
<path d="M307.011 327.379C307.011 327.379 241.491 265.03 253.362 258.415C313.173 225.051 380.998 221.483 467.31 251.8C401.31 250.647 349.94 287.414 307.011 327.379Z" fill="white"/>
<path d="M199.467 272.838L230.306 369.416C169.809 393.282 75.5647 373.561 27.7769 304.253C103.233 355.815 155.632 306.133 199.467 272.838Z" fill="white"/>
<path d="M191.068 411.879C178.304 375.976 163.29 346.016 142.827 316.468L198.836 271.493C211.078 291.778 221.481 314.313 229.798 337.699C262.146 428.65 248.668 527.615 212.025 603.565C220.149 541.971 213.933 476.204 191.068 411.879Z" fill="white"/>
<path d="M310.688 299.052C273.893 184.221 191.15 114.625 103.603 109.918C163.276 152.147 216.087 226.011 245.704 318.403C280.563 427.154 274.84 535.233 237.538 609C315.011 548.998 349.665 420.662 310.688 299.052Z" fill="white"/>
<path d="M69.471 44.9742L73.2177 50.1895L64.3931 56.5301L81.8229 80.7946L75.6195 85.255L58.1898 61.0042L49.3239 67.3722L45.5772 62.157L69.471 44.9742Z" fill="white"/>
<path d="M96.9196 40.2815C98.3743 40.1168 99.7743 40.3364 101.106 40.9539C102.245 41.4617 103.137 42.148 103.795 42.9852C104.454 43.8361 105.374 45.3045 106.554 47.3906L114.281 61.1424L108.036 64.6558L100.021 50.41C99.3076 49.1473 98.5254 48.2552 97.6607 47.72C96.4942 46.9377 95.1355 46.9927 93.5847 47.8573C91.9789 48.7631 91.0594 49.9845 90.8398 51.5354C90.6202 53.0862 91.0731 54.8567 92.1985 56.8604L99.3351 69.5416L93.2141 72.9864L75.4823 41.4617L81.6034 38.017L87.8753 49.1748C87.9989 47.322 88.4791 45.7987 89.3438 44.6046C90.1947 43.4106 91.279 42.4636 92.5554 41.7362C94.0238 40.9265 95.4648 40.4462 96.9196 40.2815Z" fill="white"/>
<path d="M125.137 27.5993C127.182 27.6268 129.131 28.2306 130.97 29.4109C132.603 30.4402 133.989 31.8538 135.129 33.6654C135.787 34.7222 136.556 36.3279 137.448 38.4689L119.483 46.1957C120.649 48.6249 122.255 49.9973 124.3 50.2855C125.549 50.4776 126.867 50.2718 128.253 49.6817C129.721 49.0504 130.75 48.1583 131.341 47.0054C131.67 46.3878 131.862 45.633 131.944 44.7409L138.532 41.9137C138.985 43.4508 138.834 45.2762 138.052 47.4034C136.872 50.7521 134.291 53.2774 130.325 54.993C127.045 56.4066 123.71 56.6398 120.334 55.6928C116.958 54.7459 114.281 52.0011 112.332 47.4446C110.493 43.1764 110.219 39.4159 111.509 36.1632C112.799 32.9106 115.242 30.5088 118.851 28.958C120.992 28.011 123.092 27.5581 125.137 27.5993ZM117.891 37.3161C117.383 38.6474 117.356 40.1708 117.809 41.8726L128.911 37.0965C128.061 35.4358 126.935 34.3791 125.522 33.9399C124.108 33.487 122.653 33.5968 121.13 34.2556C119.483 34.9555 118.399 35.9849 117.891 37.3161Z" fill="white"/>
<path d="M157.361 6.43707L165.692 4.35096L186.951 36.452L178.977 38.4557L174.846 31.7995L161.877 35.0384L161.3 42.875L153.601 44.7963L157.361 6.43707ZM162.357 28.4645L171.374 26.2137L163.469 13.4639L162.357 28.4645Z" fill="white"/>
<path d="M208.347 8.44051C210.268 9.66197 211.434 11.9539 211.846 15.2889L214.069 33.2265L206.933 34.1186L204.915 17.924C204.737 16.5241 204.421 15.4674 203.955 14.7675C203.104 13.4774 201.731 12.9558 199.824 13.1891C197.477 13.4773 195.995 14.6851 195.377 16.7986C195.048 17.9103 194.993 19.2965 195.199 20.9434L196.997 35.3675L190.038 36.2321L186.731 9.64825L193.469 8.81109L193.95 12.6951C194.677 11.2129 195.391 10.1286 196.118 9.4287C197.408 8.17979 199.151 7.41126 201.347 7.13677C204.092 6.76622 206.425 7.21905 208.347 8.44051Z" fill="white"/>
<path d="M232.515 5.79156C234.23 6.47777 235.63 7.74045 236.714 9.62068L236.646 5.75043L243.494 5.64061L243.906 31.0991C243.961 34.5576 243.426 37.179 242.287 38.9494C240.338 42.0099 236.522 43.5745 230.841 43.6706C227.409 43.7255 224.596 43.0941 222.414 41.7903C220.232 40.4728 218.996 38.4827 218.722 35.8202L226.353 35.6968C226.559 36.5202 226.888 37.0966 227.341 37.4534C228.109 38.0847 229.386 38.3867 231.17 38.3593C233.695 38.3181 235.369 37.4397 236.207 35.7379C236.742 34.64 237.003 32.8146 236.948 30.2619L236.92 28.5327C236.262 29.6855 235.562 30.5639 234.793 31.154C233.421 32.2383 231.609 32.8009 229.372 32.8421C225.927 32.897 223.155 31.7304 221.055 29.3424C218.955 26.9544 217.871 23.688 217.802 19.557C217.734 15.577 218.681 12.2008 220.616 9.45591C222.551 6.71106 225.351 5.29753 228.988 5.24264C230.333 5.21519 231.499 5.40728 232.515 5.79156ZM235.218 25.0055C236.33 23.7429 236.852 21.7666 236.811 19.0629C236.769 16.5239 236.207 14.5888 235.109 13.285C234.011 11.9675 232.57 11.3362 230.772 11.3636C228.315 11.4048 226.641 12.5851 225.749 14.9182C225.282 16.1534 225.063 17.6768 225.09 19.4884C225.117 21.053 225.406 22.4254 225.941 23.6331C226.929 25.8839 228.645 26.9818 231.101 26.9543C232.734 26.8994 234.107 26.2544 235.218 25.0055Z" fill="white"/>
<path d="M269.406 8.19218C271.19 9.19405 272.617 10.6625 273.66 12.5702C274.607 14.2583 275.156 16.1659 275.28 18.2932C275.348 19.5421 275.266 21.3126 275.032 23.6182L255.558 21.8478C255.421 24.5378 256.189 26.5003 257.836 27.7492C258.838 28.5178 260.1 28.9707 261.596 29.1079C263.188 29.2452 264.52 28.957 265.59 28.2296C266.167 27.8316 266.702 27.2689 267.196 26.5141L274.332 27.1591C274.003 28.7237 272.988 30.2608 271.299 31.7567C268.664 34.131 265.192 35.1329 260.883 34.7349C257.328 34.4055 254.281 33.0331 251.77 30.5902C249.245 28.1473 248.215 24.4554 248.668 19.5147C249.094 14.8896 250.644 11.4449 253.321 9.1941C255.997 6.94333 259.304 5.99634 263.216 6.35317C265.563 6.58648 267.621 7.19031 269.406 8.19218ZM258.412 13.2839C257.328 14.2172 256.587 15.5347 256.175 17.2502L268.212 18.3482C268.253 16.4817 267.759 15.0131 266.729 13.9564C265.7 12.8996 264.369 12.282 262.722 12.131C260.924 11.9801 259.483 12.3507 258.412 13.2839Z" fill="white"/>
<path d="M283.885 36.9594L276.968 35.7928L282.979 0L289.896 1.16653L283.885 36.9594Z" fill="white"/>
<path d="M296.058 11.9809L303.003 13.518L297.225 39.7314L290.28 38.1942L296.058 11.9809ZM303.689 10.389L296.745 8.85184L298.144 2.52489L305.089 4.06201L303.689 10.389Z" fill="white"/>
<path d="M323.575 29.1779C323.74 28.1897 323.672 27.2153 323.397 26.2957C322.958 25.0331 321.942 24.1548 320.35 23.6744C318.086 22.9882 316.192 23.647 314.682 25.637C313.886 26.6938 313.186 28.2172 312.582 30.1797C312.02 32.0599 311.773 33.6383 311.869 34.9146C312.033 37.2889 313.214 38.8122 315.437 39.4847C317.015 39.9651 318.264 39.869 319.184 39.224C320.103 38.5789 320.831 37.5908 321.393 36.287L328.255 38.3594C327.487 40.3632 326.156 42.0649 324.289 43.4923C321.297 45.7979 317.729 46.3194 313.584 45.0705C309.439 43.8216 306.777 41.6669 305.569 38.6338C304.362 35.587 304.348 32.1149 305.528 28.2172C306.859 23.8117 308.973 20.7099 311.869 18.8983C314.764 17.1005 318.113 16.7711 321.901 17.924C325.126 18.8984 327.542 20.4218 329.161 22.4804C330.781 24.5391 331.22 27.4623 330.493 31.2365L323.575 29.1779Z" fill="white"/>
<path d="M365.874 25.4584L373.587 29.2325L369.195 67.482L361.811 63.8725L362.937 56.1183L350.928 50.2581L345.438 55.885L338.315 52.3991L365.874 25.4584ZM355.526 45.5232L363.884 49.5993L366.039 34.7497L355.526 45.5232Z" fill="white"/>
<path d="M380.901 65.0527C380.352 66.1781 380.147 67.0976 380.284 67.8113C380.517 69.0739 381.615 70.3366 383.605 71.613C384.772 72.3541 385.815 72.7795 386.72 72.8756C387.626 72.9716 388.299 72.6697 388.752 71.9835C389.177 71.3248 389.218 70.6385 388.889 69.9385C388.559 69.2386 386.871 67.3172 383.852 64.1881C381.697 61.9099 380.393 59.9473 379.954 58.3279C379.501 56.7084 379.844 55.0203 380.984 53.2499C382.329 51.1638 384.291 49.9011 386.899 49.4482C389.506 48.9953 392.292 49.7365 395.271 51.6442C398.098 53.4558 400.033 55.5006 401.09 57.7651C402.146 60.0296 401.913 62.6372 400.403 65.5605L394.502 61.7727C394.9 60.963 395.079 60.2218 395.01 59.563C394.873 58.3416 394.022 57.2299 392.457 56.228C391.167 55.4046 390.124 55.0066 389.314 55.0615C388.505 55.1164 387.928 55.4046 387.585 55.9399C387.146 56.6124 387.132 57.2985 387.516 57.971C387.887 58.6572 389.603 60.5238 392.636 63.5706C394.639 65.6292 395.861 67.6055 396.314 69.472C396.753 71.3522 396.424 73.1363 395.326 74.8381C393.885 77.0752 391.881 78.3653 389.301 78.7084C386.72 79.0515 383.687 78.1045 380.201 75.8674C376.647 73.5892 374.492 71.1463 373.765 68.5661C373.037 65.9722 373.408 63.5293 374.904 61.2099L380.901 65.0527Z" fill="white"/>
<path d="M404.001 80.9184C403.342 81.9889 403.04 82.881 403.109 83.5947C403.205 84.871 404.193 86.2434 406.032 87.7119C407.116 88.5766 408.105 89.0981 408.997 89.2903C409.889 89.4824 410.589 89.2491 411.11 88.604C411.604 87.9865 411.714 87.3139 411.453 86.5865C411.193 85.8591 409.71 83.7868 407.02 80.3558C405.099 77.8717 404.001 75.7856 403.727 74.125C403.438 72.4781 403.96 70.8311 405.264 69.1842C406.801 67.2491 408.9 66.1786 411.522 66.0002C414.157 65.8217 416.861 66.8236 419.633 69.0332C422.254 71.1193 423.984 73.3426 424.807 75.7032C425.63 78.0638 425.15 80.6302 423.352 83.4025L417.863 79.0382C418.343 78.2696 418.59 77.556 418.604 76.8835C418.59 75.6483 417.849 74.468 416.394 73.3015C415.2 72.3545 414.198 71.8604 413.388 71.8192C412.579 71.7918 411.975 72.0251 411.577 72.5192C411.083 73.1505 410.987 73.823 411.302 74.5367C411.604 75.2641 413.114 77.2952 415.831 80.6165C417.615 82.8673 418.631 84.9534 418.905 86.861C419.152 88.7687 418.645 90.5254 417.382 92.1037C415.721 94.1898 413.608 95.274 411 95.3564C408.407 95.4387 405.483 94.1898 402.231 91.6097C398.923 88.9883 397.029 86.3395 396.562 83.6907C396.096 81.042 396.713 78.6402 398.429 76.4718L404.001 80.9184Z" fill="white"/>
<path d="M433.809 114.653C430.24 115.064 426.796 113.651 423.516 110.412C420.222 107.173 418.753 103.769 419.096 100.187C419.439 96.6053 420.99 93.4075 423.749 90.5941C426.466 87.8355 429.623 86.2297 433.219 85.8042C436.828 85.3651 440.273 86.7649 443.567 90.0038C446.861 93.229 448.315 96.6602 447.945 100.27C447.574 103.879 446.023 107.063 443.32 109.835C440.547 112.635 437.377 114.255 433.809 114.653ZM432.519 107.955C434.33 107.681 436.169 106.596 438.05 104.675C439.93 102.754 440.986 100.901 441.22 99.0894C441.453 97.2778 440.835 95.6583 439.367 94.2172C437.899 92.7762 436.265 92.186 434.467 92.4468C432.656 92.7076 430.817 93.7918 428.937 95.7132C427.056 97.6346 426 99.5011 425.766 101.313C425.533 103.138 426.151 104.757 427.619 106.199C429.074 107.64 430.707 108.216 432.519 107.955Z" fill="white"/>
<path d="M460.119 123.999C460.805 123.258 461.285 122.42 461.56 121.501C461.889 120.197 461.532 118.907 460.476 117.631C458.966 115.805 457.031 115.298 454.67 116.121C453.421 116.56 451.994 117.425 450.402 118.742C448.879 119.991 447.808 121.172 447.177 122.283C445.983 124.342 446.134 126.277 447.602 128.075C448.645 129.351 449.729 129.969 450.855 129.941C451.98 129.914 453.133 129.502 454.313 128.72L458.87 134.251C457.113 135.486 455.068 136.172 452.721 136.309C448.947 136.557 445.694 135.019 442.95 131.684C440.205 128.349 439.175 125.083 439.848 121.872C440.534 118.674 442.442 115.778 445.598 113.184C449.153 110.261 452.639 108.847 456.043 108.957C459.446 109.067 462.411 110.645 464.936 113.706C467.077 116.299 468.244 118.907 468.449 121.528C468.642 124.15 467.393 126.826 464.689 129.557L460.119 123.999Z" fill="white"/>
<path d="M475.654 128.624L479.744 134.443L457.799 149.897L453.709 144.078L475.654 128.624ZM482.365 132.604L478.262 126.785L483.559 123.052L487.663 128.871L482.365 132.604Z" fill="white"/>
<path d="M480.843 155.66C481.652 156.69 482.311 157.39 482.805 157.746C483.684 158.391 484.521 158.487 485.289 158.021C486.236 157.458 486.689 156.731 486.648 155.852C486.607 154.974 486.209 153.89 485.44 152.6C484.576 151.159 483.615 150.349 482.558 150.171C481.776 150.047 480.898 150.184 479.937 150.569L476.465 144.749C478.551 143.679 480.555 143.254 482.448 143.487C485.427 143.871 488.089 146.012 490.409 149.91C491.918 152.449 492.769 154.988 492.934 157.554C493.112 160.121 491.808 162.234 489.022 163.895L478.455 170.208C477.727 170.647 476.835 171.196 475.82 171.841C475.051 172.363 474.584 172.788 474.42 173.159C474.255 173.529 474.2 173.955 474.255 174.463L473.363 174.998L469.452 168.438C469.808 167.971 470.165 167.587 470.536 167.271C470.906 166.955 471.332 166.626 471.826 166.269C470.426 165.967 469.081 165.459 467.791 164.746C466.268 163.881 465.005 162.632 464.03 160.985C462.782 158.885 462.342 156.799 462.713 154.713C463.084 152.641 464.374 150.939 466.556 149.635C469.383 147.947 472.1 147.824 474.68 149.265C476.094 150.061 477.645 151.543 479.333 153.711L480.843 155.66ZM480.225 161.026C479.759 160.779 479.333 160.505 478.949 160.203C478.564 159.901 478.112 159.434 477.576 158.831L476.506 157.609C475.518 156.456 474.694 155.701 474.035 155.331C472.924 154.713 471.785 154.741 470.632 155.427C469.603 156.045 469.026 156.772 468.916 157.623C468.807 158.474 468.999 159.311 469.493 160.148C470.275 161.466 471.387 162.454 472.8 163.113C474.228 163.771 475.957 163.511 478.002 162.358L480.225 161.026Z" fill="white"/>
<path d="M493.153 166.613L497.641 164.403L499.288 167.765L505.999 164.458L509.06 170.689L502.349 173.996L504.27 177.908L499.782 180.117L497.861 176.206L485.125 182.464C484.136 182.945 483.587 183.37 483.464 183.74C483.34 184.111 483.601 184.934 484.233 186.211C484.329 186.403 484.425 186.609 484.548 186.815C484.658 187.021 484.782 187.226 484.891 187.432L480.184 189.738L478.605 186.815C477.041 183.891 476.547 181.6 477.151 179.953C477.521 178.896 478.468 177.99 479.964 177.249L494.786 169.961L493.153 166.613Z" fill="white"/>
<path d="M506.74 182.944L509.526 189.491L484.822 199.976L482.036 193.43L506.74 182.944ZM512.476 188.256L509.69 181.709L515.647 179.184L518.419 185.73L512.476 188.256Z" fill="white"/>
<path d="M497.462 225.791C494.1 224.515 491.685 221.701 490.23 217.31C488.775 212.932 489.022 209.226 490.971 206.193C492.92 203.16 495.747 201.033 499.494 199.797C503.172 198.576 506.713 198.604 510.116 199.852C513.52 201.115 515.949 203.929 517.404 208.307C518.858 212.685 518.584 216.404 516.608 219.437C514.631 222.484 511.804 224.611 508.126 225.832C504.379 227.081 500.825 227.068 497.462 225.791ZM499.384 219.245C501.113 219.835 503.254 219.698 505.807 218.847C508.359 217.996 510.157 216.829 511.187 215.333C512.216 213.837 512.408 212.108 511.763 210.159C511.118 208.211 509.938 206.934 508.208 206.344C506.479 205.754 504.352 205.877 501.799 206.715C499.247 207.565 497.449 208.732 496.419 210.242C495.39 211.751 495.184 213.481 495.829 215.429C496.461 217.392 497.654 218.655 499.384 219.245Z" fill="white"/>
<path d="M525.625 249.973C524.568 251.99 522.386 253.349 519.106 254.049L501.429 257.782L499.947 250.741L515.922 247.365C517.308 247.077 518.324 246.665 518.983 246.144C520.19 245.183 520.588 243.769 520.19 241.889C519.696 239.583 518.379 238.197 516.224 237.758C515.085 237.525 513.699 237.593 512.079 237.936L497.861 240.942L496.406 234.08L522.62 228.535L524.019 235.192L520.19 236.001C521.727 236.591 522.867 237.223 523.635 237.882C524.994 239.062 525.9 240.736 526.352 242.891C526.929 245.595 526.696 247.955 525.625 249.973Z" fill="white"/>
<path d="M508.208 305.063C505.298 302.414 503.761 298.503 503.597 293.315C503.432 288.127 504.708 284.12 507.453 281.292C510.802 277.504 515.729 275.514 522.234 275.295C528.877 275.075 533.927 276.75 537.372 280.318C540.281 282.967 541.819 286.892 541.983 292.066C542.148 297.254 540.871 301.261 538.127 304.088C534.915 307.849 529.988 309.839 523.346 310.058C516.827 310.278 511.79 308.604 508.208 305.063ZM513.56 300.15C515.839 301.838 519.009 302.62 523.099 302.496C527.175 302.373 530.29 301.385 532.459 299.546C534.627 297.707 535.656 295.291 535.56 292.286C535.464 289.28 534.284 286.919 532.006 285.204C529.727 283.488 526.557 282.692 522.467 282.829C518.378 282.967 515.262 283.955 513.107 285.821C510.953 287.674 509.923 290.117 510.019 293.109C510.115 296.101 511.296 298.448 513.56 300.15Z" fill="white"/>
<path d="M540.268 328.559C540.213 328.916 540.145 329.41 540.062 330.027L534.367 329.643C534.435 329.245 534.518 328.6 534.614 327.667C534.696 326.747 534.545 326.089 534.134 325.704C533.722 325.32 533.255 325.114 532.734 325.073C532.212 325.032 531.457 324.991 530.469 324.922L530.154 329.52L525.213 329.19L525.515 324.593L503.913 323.138L504.379 316.18L525.981 317.634L526.242 313.709L531.183 314.039L530.922 317.868L532.638 317.978C535.506 318.17 537.441 318.787 538.457 319.83C539.994 320.956 540.625 323.454 540.364 327.337C540.351 327.804 540.309 328.202 540.268 328.559Z" fill="white"/>
<path d="M535.354 360.851L533.598 369.251L495.444 374.384L497.132 366.327L504.928 365.518L507.672 352.438L500.879 348.5L502.512 340.732L535.354 360.851ZM513.354 355.732L511.447 364.831L526.365 363.267L513.354 355.732Z" fill="white"/>
<path d="M511.282 405.881C509.333 407.075 506.781 407.13 503.597 406.046L486.483 400.213L488.802 393.406L504.255 398.676C505.587 399.129 506.671 399.307 507.508 399.197C509.031 398.992 510.102 397.976 510.733 396.164C511.502 393.927 511.063 392.075 509.429 390.579C508.565 389.796 507.343 389.151 505.779 388.616L492.027 383.936L494.292 377.294L519.654 385.94L517.458 392.376L513.753 391.114C514.768 392.404 515.441 393.529 515.756 394.49C516.319 396.206 516.237 398.099 515.537 400.186C514.645 402.779 513.231 404.687 511.282 405.881Z" fill="white"/>
<path d="M508.648 416.298L505.808 422.831L481.186 412.14L484.027 405.607L508.648 416.298ZM508.745 424.107L511.572 417.575L517.514 420.155L514.673 426.688L508.745 424.107Z" fill="white"/>
<path d="M483.806 426.618C482.639 426.165 481.692 426.042 481.006 426.234C479.771 426.563 478.604 427.785 477.506 429.871C476.861 431.092 476.532 432.163 476.505 433.082C476.491 433.988 476.834 434.647 477.561 435.031C478.261 435.402 478.948 435.388 479.606 434.99C480.279 434.606 482.036 432.767 484.904 429.486C486.99 427.14 488.829 425.685 490.421 425.108C491.986 424.532 493.701 424.724 495.568 425.712C497.764 426.865 499.191 428.718 499.85 431.284C500.508 433.837 500.028 436.678 498.367 439.807C496.803 442.771 494.936 444.885 492.768 446.134C490.599 447.383 487.992 447.369 484.931 446.12L488.211 439.917C489.062 440.246 489.803 440.356 490.462 440.246C491.67 439.999 492.699 439.066 493.564 437.419C494.277 436.06 494.579 434.99 494.456 434.194C494.346 433.398 494.003 432.849 493.427 432.547C492.713 432.176 492.04 432.204 491.395 432.643C490.737 433.082 489.021 434.935 486.249 438.215C484.369 440.383 482.502 441.77 480.677 442.387C478.838 442.977 477.026 442.799 475.242 441.852C472.895 440.617 471.427 438.723 470.864 436.184C470.301 433.645 470.987 430.543 472.923 426.879C474.899 423.146 477.136 420.799 479.661 419.838C482.173 418.891 484.657 419.056 487.1 420.346L483.806 426.618Z" fill="white"/>
<path d="M463.933 464.703C462.465 463.893 461.202 463.509 460.132 463.564C458.183 463.66 456.289 464.936 454.45 467.366C453.352 468.82 452.611 470.124 452.24 471.277C451.54 473.459 452.007 475.161 453.64 476.396C454.601 477.124 455.658 477.261 456.824 476.808C457.977 476.355 459.432 475.353 461.216 473.816L464.277 471.195C467.282 468.628 469.629 467.077 471.29 466.515C474.103 465.568 476.93 466.172 479.771 468.326C482.365 470.289 483.793 472.869 484.067 476.067C484.341 479.278 483.079 482.723 480.293 486.429C477.96 489.517 475.16 491.548 471.894 492.508C468.627 493.469 465.416 492.838 462.259 490.614L466.651 484.795C468.476 486.003 470.301 486.168 472.127 485.262C473.348 484.658 474.487 483.643 475.572 482.201C476.779 480.609 477.424 479.086 477.52 477.659C477.617 476.231 477.095 475.092 475.97 474.241C474.94 473.459 473.801 473.349 472.58 473.898C471.784 474.241 470.411 475.23 468.476 476.835L463.439 481.007C461.23 482.833 459.267 483.972 457.552 484.425C454.889 485.125 452.268 484.493 449.688 482.545C447.039 480.541 445.612 477.865 445.419 474.502C445.214 471.14 446.531 467.585 449.345 463.852C452.227 460.037 455.356 457.69 458.732 456.812C462.108 455.933 465.292 456.619 468.311 458.898L463.933 464.703Z" fill="white"/>
<path d="M443.113 497.875C442.331 498.931 441.837 499.755 441.631 500.331C441.247 501.361 441.384 502.184 442.043 502.802C442.839 503.556 443.662 503.803 444.5 503.529C445.337 503.254 446.27 502.568 447.299 501.484C448.452 500.263 448.974 499.11 448.85 498.039C448.754 497.257 448.384 496.447 447.752 495.624L452.405 490.711C454.01 492.426 454.958 494.238 455.246 496.118C455.685 499.096 454.34 502.225 451.224 505.533C449.193 507.674 446.97 509.183 444.555 510.048C442.125 510.913 439.751 510.24 437.391 508.017L428.442 499.549C427.825 498.959 427.056 498.259 426.15 497.449C425.45 496.859 424.901 496.53 424.503 496.475C424.105 496.42 423.666 496.475 423.199 496.667L422.445 495.953L427.687 490.409C428.223 490.628 428.703 490.875 429.101 491.136C429.499 491.397 429.938 491.726 430.418 492.11C430.322 490.683 430.446 489.256 430.789 487.815C431.201 486.113 432.065 484.562 433.383 483.176C435.057 481.405 436.951 480.404 439.051 480.211C441.151 480.006 443.127 480.774 444.98 482.531C447.382 484.795 448.233 487.375 447.546 490.244C447.162 491.822 446.16 493.716 444.541 495.939L443.113 497.875ZM437.775 498.753C437.884 498.231 438.036 497.751 438.214 497.298C438.406 496.845 438.722 496.283 439.161 495.596L440.039 494.238C440.876 492.975 441.384 491.973 441.563 491.232C441.851 489.983 441.508 488.899 440.533 487.979C439.669 487.156 438.804 486.813 437.953 486.936C437.102 487.06 436.347 487.472 435.675 488.172C434.618 489.283 433.973 490.614 433.726 492.165C433.479 493.716 434.193 495.308 435.867 496.955L437.775 498.753Z" fill="white"/>
<path d="M422.281 517.817C421.403 518.791 420.826 519.56 420.566 520.109C420.085 521.097 420.14 521.92 420.73 522.607C421.458 523.444 422.24 523.76 423.105 523.567C423.955 523.375 424.957 522.785 426.096 521.811C427.373 520.713 428.004 519.628 427.99 518.544C427.977 517.762 427.688 516.925 427.139 516.033L432.259 511.6C433.686 513.466 434.441 515.36 434.551 517.268C434.688 520.274 433.041 523.265 429.61 526.23C427.373 528.165 425.012 529.441 422.514 530.045C420.016 530.663 417.711 529.743 415.597 527.3L407.541 517.982C406.979 517.337 406.292 516.568 405.469 515.662C404.838 515.003 404.316 514.619 403.932 514.523C403.547 514.427 403.108 514.441 402.614 514.578L401.942 513.796L407.72 508.8C408.241 509.075 408.68 509.363 409.051 509.665C409.421 509.967 409.833 510.337 410.259 510.763C410.314 509.335 410.574 507.922 411.055 506.522C411.631 504.875 412.647 503.42 414.101 502.171C415.954 500.565 417.931 499.783 420.044 499.783C422.158 499.797 424.052 500.758 425.712 502.679C427.867 505.177 428.457 507.826 427.496 510.612C426.961 512.135 425.767 513.919 423.928 515.964L422.281 517.817ZM416.901 518.146C417.052 517.639 417.258 517.172 417.491 516.746C417.725 516.321 418.095 515.786 418.603 515.154L419.618 513.892C420.579 512.711 421.183 511.765 421.43 511.051C421.856 509.843 421.622 508.731 420.73 507.716C419.948 506.81 419.124 506.371 418.26 506.412C417.395 506.453 416.599 506.783 415.872 507.414C414.705 508.416 413.937 509.678 413.539 511.188C413.141 512.711 413.69 514.372 415.186 516.17L416.901 518.146Z" fill="white"/>
<path d="M402.353 545.897C400.912 546.034 399.498 545.801 398.126 545.224L405.441 555.737L399.594 559.799L378.898 530.045L384.498 526.148L386.625 529.194C386.543 527.314 386.817 525.708 387.448 524.391C388.093 523.073 389.191 521.866 390.756 520.768C393.336 518.984 396.218 518.517 399.43 519.368C402.641 520.232 405.372 522.291 407.637 525.544C410.244 529.304 411.438 532.872 411.205 536.221C410.972 539.584 409.407 542.274 406.511 544.277C405.194 545.238 403.808 545.76 402.353 545.897ZM390.028 531.184C390.028 532.982 390.687 534.849 392.032 536.784C393.912 539.474 395.93 540.929 398.098 541.148C399.416 541.272 400.637 540.942 401.735 540.174C403.423 539.007 404.219 537.511 404.123 535.686C404.027 533.861 403.327 532.008 402.01 530.128C400.596 528.096 399.059 526.738 397.412 526.079C395.765 525.42 394.118 525.653 392.485 526.793C390.852 527.918 390.042 529.387 390.028 531.184Z" fill="white"/>
<path d="M371.528 564.313C369.483 564.478 367.493 564.066 365.558 563.064C363.829 562.2 362.319 560.91 361.015 559.222C360.261 558.234 359.341 556.71 358.257 554.665L375.398 545.264C374.012 542.958 372.283 541.751 370.211 541.641C368.948 541.558 367.658 541.888 366.327 542.615C364.927 543.384 363.98 544.372 363.499 545.566C363.239 546.211 363.102 546.993 363.115 547.885L356.83 551.33C356.226 549.848 356.212 548.009 356.775 545.827C357.626 542.382 359.945 539.623 363.747 537.537C366.876 535.822 370.169 535.273 373.628 535.89C377.087 536.508 379.996 538.992 382.384 543.343C384.621 547.419 385.252 551.138 384.278 554.5C383.304 557.863 381.108 560.484 377.649 562.378C375.618 563.504 373.573 564.149 371.528 564.313ZM377.814 553.951C378.198 552.579 378.075 551.069 377.457 549.409L366.848 555.228C367.864 556.806 369.085 557.739 370.526 558.041C371.967 558.343 373.422 558.11 374.877 557.314C376.455 556.449 377.443 555.324 377.814 553.951Z" fill="white"/>
<path d="M201.952 535.069C151.543 528.357 104.963 505.465 68.4011 468.904C24.4012 424.904 0.177734 366.411 0.177734 304.185C0.177734 241.973 24.4012 183.481 68.4011 139.481C77.1023 130.779 93.1871 117.508 96.1378 115.724C102.067 119.896 112.909 128.474 112.909 128.474C56.9276 166.888 20.1329 231.323 20.1329 304.199C20.1329 410.548 98.471 498.933 200.483 514.674L201.952 535.069Z" fill="white"/>
<path d="M119.66 100.639C153.944 81.4661 192.742 71.2691 233.105 71.2691C295.317 71.2691 353.823 95.506 397.81 139.492C426.315 167.998 446.517 202.596 457.222 240.338L434.056 233.613C404.864 150.774 325.812 91.2378 233.105 91.2378C204.078 91.2378 176.492 97.2079 151.144 107.638C134.716 102.3 119.66 100.639 119.66 100.639Z" fill="white"/>
<path d="M320.762 498.287C394.598 464.813 446.092 390.4 446.092 304.185C446.092 291.064 444.897 278.218 442.619 265.743C442.619 265.743 451.911 264.494 462.712 264.467C464.043 269.449 466.06 290.735 466.06 304.185C466.06 366.41 441.823 424.903 397.837 468.903C373.12 493.62 343.832 512.093 311.868 523.539L320.762 498.287Z" fill="white"/>
</svg>
