<svg width="664" height="426" viewBox="0 0 664 426" fill="none" xmlns="http://www.w3.org/2000/svg">
<path d="M655.578 329.396V229.887H597.569L655.578 146.638V2.32481L508.34 1.09461V102.677H564.921L508.34 183.879V329.379L655.578 329.396Z" fill="white"/>
<path d="M481.887 329.379V0.724609H225.754L6.64823 329.379H126.245L169.448 264.574H196.126L152.922 329.379H272.519L315.723 264.574H382.369V329.379H481.887ZM192.573 229.887L321.994 35.7554H348.672L219.25 229.887H192.573ZM338.847 229.887L382.378 164.592V229.887H338.847Z" fill="white"/>
<path d="M25.7548 353.468H20.4469L1.10768 405.661C0.935627 406.177 0.849609 406.633 0.849609 407.029C0.849609 407.769 1.09904 408.311 1.60661 408.655C2.10558 408.999 2.58737 409.171 3.03471 409.171C3.98103 409.171 4.73808 408.517 5.29727 407.21L11.3795 390.812H34.8394L40.9216 407.21C41.4808 408.517 42.2293 409.171 43.1842 409.171C43.6315 409.171 44.1047 408.999 44.6123 408.655C45.1113 408.311 45.3693 407.769 45.3693 407.029C45.3693 406.633 45.2833 406.177 45.1112 405.661L25.7548 353.468ZM13.1087 386.356L23.0191 359.963L33.1188 386.356H13.1087Z" fill="white"/>
<path d="M79.4373 353.468H74.1294L54.7901 405.661C54.6181 406.177 54.5321 406.633 54.5321 407.029C54.5321 407.769 54.7815 408.311 55.2891 408.655C55.7881 408.999 56.2699 409.171 56.7172 409.171C57.6635 409.171 58.4205 408.517 58.9797 407.21L65.0619 390.812H88.5305L94.6128 407.21C95.1719 408.517 95.9204 409.171 96.8753 409.171C97.3227 409.171 97.7958 408.999 98.3034 408.655C98.8023 408.311 99.0604 407.769 99.0604 407.029C99.0604 406.633 98.9744 406.177 98.8023 405.661L79.4373 353.468ZM66.7825 386.356L76.693 359.963L86.8014 386.356H66.7825Z" fill="white"/>
<path d="M109.994 354.835C109.994 356.314 111.018 357.054 113.074 357.054H144.337L110.08 403.441V407.794H146.642C148.638 407.794 149.636 407.08 149.636 405.66C149.636 404.12 148.638 403.355 146.642 403.355H115.552L149.636 357.14V352.615H113.074C111.018 352.615 109.994 353.355 109.994 354.835Z" fill="white"/>
<path d="M221.685 353.468H190.629C188.736 353.468 187.79 354.207 187.79 355.687C187.79 357.167 188.745 357.907 190.654 357.907H204.023V405.661C204.023 407.485 204.72 408.397 206.122 408.397C207.688 408.397 208.462 407.485 208.462 405.661V357.907H221.659C223.569 357.907 224.524 357.193 224.524 355.773C224.524 354.242 223.578 353.468 221.685 353.468Z" fill="white"/>
<path d="M255.649 368.419H251.717C249.669 368.419 247.777 368.643 246.031 369.09C242.83 369.907 240.138 371.473 237.961 373.796V370.888C237.961 368.84 237.161 367.817 235.57 367.817C234.202 367.817 233.522 368.815 233.522 370.81V405.489C233.522 407.424 234.262 408.396 235.742 408.396C237.221 408.396 237.961 407.424 237.961 405.489V388.059C237.961 383.164 239.14 379.405 241.505 376.781C243.871 374.166 247.269 372.849 251.717 372.849H255.649C257.644 372.849 258.634 372.11 258.634 370.63C258.642 369.159 257.644 368.419 255.649 368.419Z" fill="white"/>
<path d="M297.545 368.419H284.305C280.038 368.419 276.589 369.184 273.973 370.724C271.349 372.264 270.042 374.682 270.042 377.985C270.042 379.981 270.756 380.979 272.175 380.979C273.715 380.979 274.481 379.981 274.481 377.985C274.481 374.57 277.957 372.858 284.899 372.858H296.943C298.767 372.858 300.006 373.228 300.659 373.968C301.313 374.707 301.64 375.963 301.64 377.727V382.596H289.08C282.585 382.596 277.793 383.611 274.687 385.624C271.582 387.646 270.033 391.535 270.033 397.281C270.033 400.473 270.885 403.019 272.597 404.929C274.309 406.839 276.494 407.794 279.178 407.794H287.118C293.553 407.794 298.397 405.996 301.64 402.409V405.402C301.64 407.398 302.38 408.396 303.86 408.396C305.339 408.396 306.079 407.424 306.079 405.488V379.181C306.079 375.198 305.486 372.402 304.281 370.81C303.094 369.219 300.84 368.419 297.545 368.419ZM301.64 388.326C301.64 393.169 300.418 396.886 297.967 399.475C295.515 402.064 291.902 403.364 287.118 403.364H279.178C277.982 403.364 276.898 402.796 275.935 401.652C274.963 400.516 274.481 399.2 274.481 397.72C274.481 395.277 274.722 393.333 275.204 391.913C275.685 390.494 276.614 389.427 277.982 388.713C279.35 387.999 280.813 387.543 282.378 387.345C283.944 387.147 286.181 387.044 289.08 387.044H301.64V388.326Z" fill="white"/>
<path d="M360.957 352.874C359.365 352.874 358.565 353.897 358.565 355.945V368.419H341.48C334.933 368.419 330.133 369.434 327.087 371.447C324.042 373.469 322.519 377.469 322.519 383.448V392.757C322.519 398.735 324.042 402.736 327.087 404.758C330.133 406.779 334.933 407.786 341.48 407.786H343.957C350.332 407.786 355.201 405.988 358.565 402.4V405.394C358.565 407.39 359.305 408.388 360.784 408.388C362.264 408.388 363.004 407.416 363.004 405.48V355.936C363.004 353.897 362.324 352.874 360.957 352.874ZM358.565 388.326C358.565 398.348 353.696 403.364 343.957 403.364H341.48C338.572 403.364 336.335 403.261 334.769 403.063C333.204 402.865 331.75 402.409 330.416 401.695C329.074 400.981 328.162 399.914 327.681 398.495C327.199 397.075 326.958 395.139 326.958 392.688V383.551C326.958 381.1 327.199 379.164 327.681 377.745C328.162 376.325 329.074 375.258 330.416 374.544C331.75 373.83 333.204 373.374 334.769 373.176C336.335 372.979 338.572 372.875 341.48 372.875H358.565V388.326Z" fill="white"/>
<path d="M385.801 353.983C384.804 353.304 383.849 352.96 382.937 352.96C381.965 352.96 381.001 353.304 380.029 353.983C379.057 354.663 378.575 355.489 378.575 356.461C378.575 357.433 379.057 358.259 380.029 358.939C380.992 359.618 381.965 359.962 382.937 359.962C383.849 359.962 384.804 359.618 385.801 358.939C386.799 358.259 387.298 357.433 387.298 356.461C387.298 355.489 386.799 354.663 385.801 353.983Z" fill="white"/>
<path d="M382.945 367.395C381.466 367.395 380.726 368.332 380.726 370.216V406.09C380.726 407.914 381.44 408.826 382.859 408.826C384.399 408.826 385.165 407.914 385.165 406.09V370.216C385.165 368.332 384.425 367.395 382.945 367.395Z" fill="white"/>
<path d="M438.709 371.447C435.664 369.425 430.863 368.419 424.316 368.419H421.839C415.464 368.419 410.586 370.217 407.231 373.804V370.896C407.231 368.849 406.431 367.825 404.839 367.825C403.472 367.825 402.792 368.823 402.792 370.819V405.505C402.792 407.441 403.532 408.413 405.012 408.413C406.491 408.413 407.231 407.441 407.231 405.505V388.076C407.231 384.454 407.893 381.478 409.201 379.12C409.683 378.252 410.251 377.46 410.904 376.755C413.356 374.165 416.995 372.866 421.839 372.866H424.316C427.224 372.866 429.452 372.969 431.027 373.167C432.592 373.365 434.046 373.821 435.38 374.535C436.713 375.249 437.625 376.316 438.115 377.735C438.253 378.148 438.373 378.613 438.477 379.112C438.718 380.333 438.846 381.805 438.846 383.542V405.497C438.846 407.432 439.612 408.405 441.152 408.405C442.572 408.405 443.286 407.432 443.286 405.497V383.456C443.286 381.865 443.174 380.419 442.959 379.112C442.365 375.49 440.946 372.935 438.709 371.447Z" fill="white"/>
<path d="M497.724 367.817C496.244 367.817 495.504 368.815 495.504 370.81V373.796C492.141 370.208 487.271 368.41 480.897 368.41H478.419C471.872 368.41 467.072 369.425 464.026 371.439C461.79 372.927 460.379 375.482 459.785 379.095C459.57 380.403 459.458 381.848 459.458 383.439V392.748C459.458 398.727 460.981 402.727 464.026 404.749C467.072 406.77 471.872 407.777 478.419 407.777H495.504V416.578C495.504 418.29 495.263 419.425 494.782 419.993C494.3 420.561 493.225 420.845 491.581 420.845H468.603C466.84 420.845 465.609 420.457 464.93 419.692C464.25 418.926 463.906 417.541 463.906 415.545C463.906 413.67 463.166 412.724 461.687 412.724C460.207 412.724 459.467 413.721 459.467 415.717C459.467 417.025 459.553 418.161 459.725 419.133C459.897 420.096 460.25 421.094 460.792 422.118C461.334 423.142 462.211 423.924 463.442 424.466C464.663 425.008 466.186 425.275 468.01 425.275H492.184C495.203 425.275 497.251 424.518 498.335 423.013C499.419 421.507 499.961 418.9 499.961 415.193V370.69C499.961 369.744 499.78 369.03 499.427 368.548C499.04 368.075 498.481 367.817 497.724 367.817ZM478.419 403.355C475.511 403.355 473.275 403.252 471.709 403.054C470.143 402.856 468.689 402.4 467.356 401.686C466.014 400.972 465.102 399.905 464.62 398.486C464.138 397.066 463.897 395.131 463.897 392.679V383.543C463.897 381.805 464.018 380.334 464.267 379.112C464.371 378.613 464.482 378.149 464.629 377.736C465.11 376.316 466.022 375.25 467.364 374.535C468.698 373.821 470.152 373.365 471.717 373.168C473.283 372.97 475.52 372.867 478.428 372.867H480.905C487.177 372.867 491.418 374.957 493.646 379.112C494.876 381.409 495.513 384.334 495.513 387.896V403.355H478.419Z" fill="white"/>
<path d="M549.858 362.948C550.34 361.468 551.234 360.358 552.551 359.619C553.858 358.879 555.286 358.406 556.818 358.208C558.358 358.01 560.491 357.907 563.227 357.907H575.185C576.948 357.907 578.17 358.294 578.858 359.059C579.538 359.825 579.882 361.21 579.882 363.206C579.882 365.081 580.622 366.028 582.101 366.028C583.581 366.028 584.321 365.03 584.321 363.034C584.321 361.666 584.235 360.505 584.063 359.533C583.891 358.56 583.538 357.58 582.996 356.582C582.454 355.584 581.568 354.818 580.346 354.276C579.125 353.734 577.602 353.468 575.778 353.468H563.218C556.895 353.468 552.224 354.491 549.213 356.539C546.193 358.586 544.688 362.69 544.688 368.841V392.421C544.688 398.572 546.21 402.676 549.256 404.723C552.301 406.771 557.127 407.795 563.734 407.795H575.778C577.602 407.795 579.125 407.528 580.346 406.986C581.568 406.444 582.454 405.678 582.996 404.68C583.538 403.682 583.891 402.702 584.063 401.73C584.235 400.766 584.321 399.622 584.321 398.314C584.321 396.267 583.581 395.243 582.101 395.243C580.622 395.243 579.882 396.181 579.882 398.065C579.882 400 579.555 401.368 578.901 402.168C578.247 402.968 577.009 403.364 575.185 403.364H563.734C558.1 403.364 554.254 402.719 552.207 401.446C550.159 400.164 549.135 397.161 549.135 392.43V368.849C549.127 366.398 549.376 364.436 549.858 362.948Z" fill="white"/>
<path d="M634.879 371.447C633.176 370.32 630.922 369.503 628.126 369.004C625.915 368.608 623.369 368.41 620.487 368.41H618.009C611.462 368.41 606.645 369.426 603.573 371.439C600.502 373.46 598.962 377.461 598.962 383.44V392.748C598.962 398.727 600.502 402.727 603.573 404.749C606.653 406.771 611.462 407.777 618.009 407.777H620.487C623.377 407.777 625.924 407.579 628.126 407.184C630.922 406.685 633.176 405.876 634.879 404.74C637.925 402.719 639.447 398.718 639.447 392.739V383.431C639.456 377.469 637.933 373.469 634.879 371.447ZM635.008 392.679C635.008 395.131 634.767 397.067 634.286 398.486C633.804 399.914 632.892 400.981 631.55 401.686C630.483 402.254 629.339 402.65 628.135 402.891C627.825 402.951 627.515 403.011 627.197 403.054C625.631 403.252 623.394 403.355 620.487 403.355H618.009C615.101 403.355 612.873 403.252 611.307 403.054C609.742 402.856 608.271 402.4 606.911 401.686C605.543 400.972 604.614 399.906 604.133 398.486C603.651 397.067 603.41 395.131 603.41 392.679V383.543C603.41 381.091 603.651 379.155 604.133 377.736C604.614 376.316 605.543 375.25 606.911 374.536C608.279 373.822 609.742 373.366 611.307 373.168C612.873 372.97 615.11 372.867 618.009 372.867H620.487C623.394 372.867 625.623 372.97 627.197 373.168C627.515 373.211 627.825 373.271 628.135 373.331C629.348 373.572 630.483 373.968 631.55 374.536C632.883 375.25 633.795 376.316 634.286 377.736C634.767 379.164 635.008 381.1 635.008 383.543V392.679Z" fill="white"/>
<path d="M662.503 402.848C661.505 402.168 660.55 401.824 659.638 401.824C658.666 401.824 657.703 402.168 656.731 402.848C655.759 403.527 655.277 404.353 655.277 405.325C655.277 406.297 655.759 407.123 656.731 407.803C657.703 408.482 658.666 408.827 659.638 408.827C660.55 408.827 661.505 408.482 662.503 407.803C663.501 407.123 664 406.297 664 405.325C664 404.353 663.501 403.527 662.503 402.848Z" fill="white"/>
</svg>
