<svg width="328" height="328" viewBox="0 0 328 328" fill="none" xmlns="http://www.w3.org/2000/svg">
<path d="M163.963 0.147388C194.707 0.147388 225.461 -0.260407 256.204 0.294647C276.764 0.668459 294.843 8.00877 308.946 23.5843C320.421 36.2486 326.47 51.4616 326.844 68.2831C327.67 105.438 327.761 142.615 327.942 179.781C328.056 202.81 328.033 225.839 327.591 248.857C327.285 264.795 324.986 280.348 315.924 294.19C302.546 314.637 283.493 325.817 259.421 326.417C216.24 327.482 173.025 327.459 129.822 327.573C109.274 327.629 88.6913 327.618 68.1883 326.497C29.6743 324.39 1.36649 295.685 0.777451 257.103C-0.117432 198.63 -0.0380863 140.123 0.0525348 81.6384C0.07519 66.3801 1.59313 51.1218 9.29592 37.3247C22.8211 13.0836 44.083 1.07625 71.2467 0.396596C102.137 -0.373683 133.062 0.215354 163.975 0.215354C163.975 0.192698 163.975 0.170043 163.975 0.147388H163.963ZM177.149 228.796C175.925 224.944 175.053 221.92 174.011 218.952C167.939 201.723 161.822 184.505 155.717 167.298C145.59 138.73 135.486 110.139 125.223 81.6158C124.555 79.7467 122.685 76.9601 121.303 76.9261C109.013 76.5523 96.7113 76.7109 86.1652 76.7109C70.1027 128.32 51.2535 177.674 34.3413 228.83C43.4147 228.83 51.4573 228.614 59.4886 228.92C63.7705 229.079 66.0019 227.72 67.214 223.483C69.7061 214.795 72.8326 206.299 75.3473 197.622C76.4234 193.907 78.2018 192.525 82.1212 192.581C96.8358 192.796 111.562 192.785 126.288 192.581C130.15 192.525 132.099 193.839 133.266 197.497C136.12 206.48 139.167 215.406 142.441 224.231C143.098 226.009 145.058 228.547 146.507 228.603C156.43 228.988 166.376 228.807 177.137 228.807L177.149 228.796ZM220.862 179.101C225.155 179.101 229.403 179.124 233.651 179.101C251.209 178.977 268.755 178.796 286.313 178.739C290.21 178.728 292.317 177.198 292.34 173.143C292.362 167.298 293.008 161.396 292.396 155.631C290.946 141.879 285.962 129.577 274.748 120.775C257.518 107.262 228.384 107.329 210.894 121.84C191.308 138.095 185.282 159.788 189.349 184.448C191.58 197.973 196.825 210.014 207.79 219.077C223.807 232.307 262.922 235.694 280.717 225.035C281.861 224.355 283.187 222.815 283.221 221.637C283.447 214.172 283.334 206.695 283.334 198.585C281.624 199.185 280.785 199.468 279.958 199.774C267.815 204.147 255.411 205.427 242.656 203.15C230.185 200.93 221.712 191.97 220.851 179.113L220.862 179.101Z" fill="white"/>
<path d="M104.765 105.166C110.701 124.457 116.625 143.759 122.674 163.413H85.8818C91.8742 143.714 97.7078 124.57 103.53 105.427C103.938 105.336 104.357 105.257 104.765 105.166Z" fill="white"/>
<path d="M262.128 156.615H221.247C221.134 144.665 231.464 135.251 243.676 136.067C255.196 136.837 263.771 146.171 262.128 156.615Z" fill="white"/>
</svg>
