<svg width="335" height="326" viewBox="0 0 335 326" fill="none" xmlns="http://www.w3.org/2000/svg">
<path d="M280.89 325.89H54.47C54.23 325.4 53.7801 325.36 53.3101 325.35C52.8601 325.34 52.4002 325.35 51.9502 325.29C47.2302 324.58 42.6201 323.47 38.1401 321.78C30.9601 319.06 24.62 315.01 18.99 309.84C14.93 306.11 11.5202 301.83 8.68018 297.1C4.83018 290.69 2.28009 283.81 1.09009 276.42C0.810088 274.67 0.770176 272.89 0.430176 271.17C0.140176 269.73 0.0400391 268.31 0.0400391 266.86C0.0400391 198.59 0.05 130.31 0 62.04C0 58.03 0.370195 54.08 0.950195 50.15C2.1002 42.35 4.77017 35.05 8.92017 28.34C12.3802 22.76 16.6102 17.8 21.7002 13.63C26.3202 9.84 31.4402 6.86 36.9502 4.54C44.4102 1.4 52.2 0 60.27 0C132.34 0 204.4 0 276.47 0C279.16 0 281.8 0.350001 284.44 0.720001C291.43 1.69 297.98 4.04 304.16 7.43C307.11 9.05 309.91 10.88 312.53 12.99C315.33 15.24 317.89 17.7 320.26 20.41C323.53 24.16 326.25 28.25 328.51 32.66C330.36 36.26 331.79 40.02 332.79 43.95C333.95 48.49 334.75 53.08 334.75 57.77C334.77 127.13 334.75 196.49 334.77 265.86C334.77 268.67 334.59 271.46 334.27 274.26C333.59 280.17 331.98 285.83 329.48 291.2C325.91 298.88 321.02 305.64 314.53 311.18C311.35 313.9 308.01 316.4 304.32 318.37C297.29 322.12 289.87 324.67 281.89 325.37C281.46 325.41 281.08 325.48 280.87 325.91L280.89 325.89ZM136.41 195.48C144.62 195.48 152.83 195.48 161.03 195.48C162.59 195.48 162.36 195.47 162.81 196.77C166.38 207.13 169.96 217.48 173.54 227.83C174.24 229.86 174.63 230.14 176.8 230.14C181.83 230.14 186.86 230.14 191.9 230.14C196.21 230.14 200.51 230.16 204.82 230.13C206.5 230.12 206.92 229.52 206.53 227.9C206.49 227.73 206.41 227.56 206.35 227.39C205.53 225.09 204.72 222.78 203.9 220.48C199.11 207 194.31 193.52 189.52 180.03C183.89 164.16 178.28 148.29 172.65 132.42C167.11 116.8 161.56 101.18 156.02 85.57C155.28 83.5 155.25 83.47 153.01 83.47C152.87 83.47 152.74 83.47 152.6 83.47C141.54 83.47 130.47 83.47 119.41 83.47C116.77 83.47 116.59 83.57 116.6 86.2C116.62 90.74 115.66 95.08 114.18 99.35C108.08 116.83 101.99 134.32 95.9102 151.82C89.6702 169.78 83.4402 187.74 77.2002 205.7C74.7202 212.84 72.21 219.98 69.74 227.13C68.95 229.43 69.4801 230.16 71.8601 230.17C80.2001 230.17 88.5401 230.17 96.8901 230.17C98.8401 230.17 99.4 229.74 100.02 227.83C103.37 217.5 106.72 207.17 110.06 196.84C110.6 195.17 110.55 195.51 111.94 195.51C120.1 195.51 128.27 195.51 136.43 195.51L136.41 195.48ZM221.35 174.36C221.35 191.9 221.35 209.43 221.35 226.97C221.35 227.38 221.33 227.79 221.35 228.19C221.45 229.56 222.05 230.14 223.4 230.22C223.76 230.24 224.13 230.22 224.49 230.22C229.93 230.22 235.37 230.22 240.81 230.22C243.98 230.22 247.16 230.23 250.33 230.22C251.99 230.22 252.49 229.7 252.54 228.02C252.54 227.75 252.54 227.48 252.54 227.2C252.54 192.03 252.54 156.87 252.54 121.7C252.54 121.43 252.54 121.16 252.54 120.88C252.48 119.51 251.99 119 250.65 118.92C250.33 118.9 250.02 118.92 249.7 118.92C241.13 118.92 232.56 118.92 224 118.92C221.66 118.92 221.35 119.24 221.35 121.6C221.35 139.18 221.35 156.77 221.35 174.35V174.36ZM219.84 89.35C219.84 91.08 219.9 92.52 220.23 93.94C221.5 99.45 224.53 103.53 229.81 105.82C232.45 106.97 235.2 107.26 238.04 107.22C244.75 107.14 250.65 103.12 253.16 96.89C254.61 93.29 254.89 89.57 254.18 85.82C253.26 80.98 250.84 77.05 246.49 74.51C243.8 72.94 240.84 72.35 237.75 72.32C232.03 72.26 227.18 74.22 223.48 78.65C220.85 81.81 219.69 85.51 219.83 89.33L219.84 89.35Z" fill="white"/>
<path d="M136.01 109.24C136.46 109.66 136.47 110.18 136.6 110.63C138.29 116.5 139.83 122.41 141.69 128.22C145.53 140.2 149.15 152.25 153.1 164.2C153.36 164.97 153.58 165.76 153.82 166.54C153.95 166.98 153.82 167.25 153.32 167.25C153.05 167.25 152.78 167.25 152.5 167.25C141.76 167.25 131.01 167.25 120.27 167.25C118.15 167.25 118.62 167.03 119.11 165.67C121.49 159.02 123.36 152.21 125.43 145.46C127.58 138.46 129.77 131.46 131.94 124.46C133.34 119.91 134.52 115.31 135.53 110.66C135.63 110.2 135.65 109.7 136.02 109.23L136.01 109.24Z" fill="white"/>
</svg>
