<svg width="643" height="766" viewBox="0 0 643 766" fill="none" xmlns="http://www.w3.org/2000/svg">
<path d="M252.46 125.749C240.56 125.189 228.64 124.859 216.77 123.959C212.37 123.629 209.14 120.519 207.61 116.339C204.76 108.539 202.19 100.639 199.54 92.7795C198.74 90.4195 198.13 87.9895 197.26 85.6595C192.62 73.2595 182.14 67.3095 168 69.5495C168 73.0095 168 76.6095 168 80.2095C168 88.3695 167.87 96.5395 168.04 104.699C168.21 112.659 170.13 119.649 179.21 121.969C179.73 122.099 180.16 122.769 180.52 123.279C180.66 123.489 180.49 123.909 180.42 124.719C163.59 124.719 146.72 124.719 129.15 124.719C129.97 123.369 130.25 122.279 130.74 122.179C140.4 120.229 141.88 112.769 142.42 104.789C142.67 101.139 142.49 97.4595 142.49 93.7995C142.49 70.1395 142.52 46.4795 142.45 22.8195C142.44 20.0095 142.13 17.1695 141.6 14.4095C140.67 9.57947 137.9 6.36947 132.87 5.30947C131.65 5.04947 130.55 4.20947 129.39 3.63947C129.49 3.14947 129.58 2.65947 129.68 2.16947C131.02 1.97947 132.36 1.61947 133.7 1.63947C153.35 1.87947 173.01 1.81947 192.64 2.61947C199.84 2.90947 207.19 4.56947 214.05 6.85947C226.66 11.0595 232.56 20.7195 232.6 35.1195C232.64 49.6995 226.87 58.6595 214.19 63.4895C211.27 64.5995 208.22 65.3995 204.43 66.5995C221.1 72.4095 226.83 86.2495 231.06 100.609C234.25 111.419 239.39 119.329 251.02 121.659C252.15 121.889 253.25 122.229 254.37 122.519C253.73 123.589 253.09 124.669 252.46 125.749ZM168.16 65.0395C174.62 65.0395 180.61 65.5595 186.47 64.9195C195.26 63.9595 200.44 58.3095 202.34 49.8895C204.53 40.1995 204.55 30.3995 202.33 20.7095C201.15 15.5695 198.84 10.8895 193.92 8.27947C185.76 3.94947 177 5.04947 168.16 5.09947C168.16 25.5095 168.16 45.1195 168.16 65.0395Z" fill="white"/>
<path d="M571.76 764.68C553.37 764.68 536.59 764.68 519.01 764.68C519.98 763.3 520.32 762.26 520.84 762.15C529.67 760.32 532.09 753.52 532.17 746.07C532.47 716.93 532.42 687.78 532.19 658.63C532.14 651.88 529.54 646.21 521.6 645.07C520.8 644.96 520.14 643.82 519.02 642.79C520.27 642.18 520.83 641.66 521.37 641.67C544.65 642.22 567.94 642.8 591.22 643.46C593.19 643.52 595.15 644.11 597.09 644.56C618.4 649.54 628.02 667.45 620.43 688.1C616.93 697.62 609.3 702.21 600.08 704.82C598.35 705.31 596.62 705.81 594.07 706.54C610.17 711.84 615.5 725.03 620.43 738.5C621.63 741.77 622.28 745.27 623.67 748.44C626.68 755.27 632.15 759.31 639.24 761.41C640.55 761.8 641.67 762.82 642.88 763.56C642.65 764.28 642.41 765 642.18 765.73C630.29 765.18 618.38 764.96 606.53 763.94C601.04 763.47 598.07 758.95 596.39 753.99C593.3 744.86 590.55 735.61 587.41 726.5C582.85 713.28 571.25 706.68 558.24 709.57C558.24 722.69 557.92 735.8 558.38 748.87C558.6 755.24 561.82 760.27 568.75 761.9C569.57 762.09 570.16 763.16 571.76 764.68ZM557.98 644.25C557.98 665.66 557.98 685.4 557.98 705.21C564.11 705.21 569.96 705.7 575.68 705.1C584.85 704.14 591.11 698.58 592.13 689.61C593.2 680.15 592.95 670.41 592.1 660.9C591.52 654.37 587.64 648.56 580.79 647.03C573.47 645.39 565.83 645.14 557.98 644.25Z" fill="white"/>
<path d="M259.78 285.261C260.8 283.581 261.13 282.241 261.83 282.011C271.15 278.941 273.07 271.201 273.4 262.981C273.85 251.831 273.61 240.661 273.63 229.501C273.65 215.671 273.92 201.831 273.49 188.021C273.33 182.831 272.23 177.401 270.22 172.641C268.97 169.671 265.22 167.761 262.63 165.331C261.76 164.521 261.02 163.571 259.24 161.611C264.14 161.611 267.43 161.531 270.71 161.621C290 162.201 309.42 161.661 328.55 163.741C349.44 166.011 366.6 175.691 375.27 196.361C379.82 207.201 380.64 218.681 379.81 230.221C377.64 260.701 360.75 279.601 330.01 283.121C310.08 285.401 289.8 284.671 269.68 285.261C266.74 285.341 263.79 285.261 259.78 285.261ZM299.28 165.621C299.28 204.151 299.28 242.721 299.28 281.241C326.13 284.791 339.8 274.191 345.38 254.731C351.24 234.291 351.21 213.521 345.37 193.101C339.49 172.521 325.31 162.431 299.28 165.621Z" fill="white"/>
<path d="M255.01 445.259C256.51 443.259 256.9 442.14 257.58 441.92C265.49 439.32 267.64 432.84 268.66 425.64C268.96 423.51 268.95 421.319 268.96 419.159C268.98 394.999 269.17 370.83 268.82 346.67C268.75 341.69 267.2 336.519 265.27 331.869C264.19 329.269 260.95 327.569 258.68 325.469C257.74 324.599 256.76 323.769 254.93 322.149C257.29 321.819 258.09 321.609 258.88 321.619C277.87 321.869 296.9 321.499 315.82 322.699C325.1 323.289 334.55 325.869 343.3 329.209C359.5 335.389 369.3 347.879 373.39 364.659C376.26 376.469 376.43 388.459 374.05 400.369C369.26 424.299 353.62 437.409 330.6 442.279C322.03 444.089 313.14 444.869 304.36 445.149C290.21 445.609 276.03 445.269 261.87 445.269C260.09 445.259 258.32 445.259 255.01 445.259ZM294.78 325.599C294.78 364.259 294.78 402.949 294.78 441.929C297.4 441.929 299.72 441.929 302.04 441.929C324.52 441.969 336.35 433.08 341.75 411.229C346.21 393.189 346.06 374.899 341.88 356.839C336.25 332.549 320.59 322.439 294.78 325.599Z" fill="white"/>
<path d="M256.769 481.43C281.949 482.65 307.379 478.96 332.309 485.3C358.979 492.08 373.589 509.8 375.329 537.25C376.069 548.97 375.249 560.54 370.649 571.59C363.879 587.84 351.089 596.94 334.669 601.26C327.479 603.15 319.959 604.55 312.549 604.75C293.939 605.24 275.299 604.91 255.529 604.91C256.589 603.46 257.039 602.11 257.849 601.84C265.079 599.4 267.349 593.48 268.489 586.84C268.939 584.23 268.949 581.53 268.949 578.87C268.979 554.87 269.139 530.87 268.829 506.88C268.769 502.05 267.509 496.96 265.579 492.51C264.339 489.64 260.869 487.74 258.399 485.4C257.539 484.58 256.669 483.77 255.799 482.96C256.119 482.45 256.449 481.94 256.769 481.43ZM294.799 485.07C294.799 524.31 294.799 563 294.799 601.93C297.279 601.93 299.439 601.93 301.599 601.93C325.359 601.99 337.939 591.72 342.519 568.3C345.719 551.95 345.619 535.54 342.449 519.21C340.759 510.47 337.599 502.28 331.319 495.63C321.349 485.05 308.459 484.67 294.799 485.07Z" fill="white"/>
<path d="M260.52 2.77046C261.83 2.38046 263.14 1.66046 264.45 1.65046C276.45 1.56046 288.45 1.39046 300.43 1.78046C302.73 1.86046 305.54 3.85046 307.12 5.78046C328.12 31.4205 348.94 57.2105 369.81 82.9605C370.93 84.3405 372.09 85.6905 373.92 87.8805C374.11 85.5505 374.31 84.3105 374.3 83.0705C374.05 67.5905 374.2 52.0905 373.3 36.6405C372.94 30.4805 370.78 24.2605 368.51 18.4305C365.81 11.4905 361 6.31046 352.98 5.14046C351.95 4.99046 351.07 3.83046 350.12 3.14046C350.3 2.76046 350.48 2.38046 350.66 2.00046C368.16 2.00046 385.65 2.00046 403.15 2.00046C403.35 2.34046 403.56 2.68046 403.76 3.03046C402.72 3.76046 401.74 5.00046 400.62 5.15046C391.45 6.36046 385.52 12.0805 382.92 20.1505C380.15 28.7405 377.98 37.8905 377.72 46.8505C377.02 70.9905 377.48 95.1605 377.48 119.32C377.48 121.11 377.48 122.9 377.48 124.97C374.03 124.97 371.08 124.97 367.78 124.97C342.87 93.7005 317.81 62.2305 292.68 30.6705C292.14 31.2905 291.77 31.5305 291.77 31.7505C292.31 53.2005 292.65 74.6505 293.65 96.0805C293.87 100.7 296.12 105.38 298.11 109.72C301 116.05 305.61 120.65 312.94 121.81C313.98 121.97 314.87 123.07 315.83 123.73C315.66 124.11 315.48 124.49 315.31 124.87C297.8 124.87 280.29 124.87 261.17 124.87C263.03 123.28 263.82 122.02 264.76 121.89C275 120.53 280.86 113.87 283.73 104.88C286.13 97.3605 287.96 89.3705 288.26 81.5205C288.93 64.2205 288.54 46.8705 288.37 29.5405C288.35 27.4305 287.46 25.0105 286.21 23.2805C283.39 19.3705 280.24 15.6805 276.97 12.1405C273.41 8.29046 269.31 5.22046 263.68 5.08046C262.66 5.05046 261.65 4.38046 260.64 4.00046C260.61 3.60046 260.56 3.18046 260.52 2.77046Z" fill="white"/>
<path d="M429.73 381.67C435.17 381.14 440.11 381.29 444.68 380.04C449.39 378.75 454.31 376.84 458.04 373.85C461.33 371.21 463.12 366.69 466.65 363.54C466.65 376.4 466.65 389.26 466.65 402.12C466.32 402.34 465.99 402.56 465.67 402.77C463.12 399.06 461.2 394.58 457.86 391.85C454.27 388.92 449.51 387.03 444.95 385.8C440.23 384.53 435.14 384.59 429.82 384.02C429.82 403.58 429.82 422.48 429.82 442.37C436.25 441.72 442.74 441.62 448.95 440.27C455.23 438.91 461.65 437.07 467.25 434.04C472.68 431.1 477.86 426.98 481.82 422.26C485.69 417.66 487.88 411.65 490.81 406.25C491.23 406.43 491.66 406.62 492.08 406.8C492.08 419.34 492.08 431.89 492.08 444.52C459.39 444.52 426.57 444.52 393.64 444.52C393.79 443.47 393.75 442.92 393.9 442.86C401.51 440.01 403.51 433.65 403.58 426.54C403.83 401.39 403.88 376.25 403.93 351.1C403.94 346.78 403.97 342.4 403.35 338.15C402.52 332.54 401.47 326.79 394.71 324.83C394.19 324.68 393.95 323.57 393.16 322.17C425.74 322.17 457.68 322.17 489.96 322.17C489.96 332.98 489.96 343.89 489.96 355.85C488.53 354.91 486.88 354.44 486.69 353.62C483.35 339.23 472.52 332.95 459.84 328.87C450.14 325.75 440.11 324.61 429.71 325.1C429.73 343.9 429.73 362.31 429.73 381.67Z" fill="white"/>
<path d="M490.049 482.1C490.049 493.16 490.049 504.08 490.049 516.24C488.429 514.94 486.889 514.35 486.669 513.44C483.319 499.56 472.969 493.26 460.609 489.15C450.729 485.86 440.559 484.76 429.829 485.06C429.829 503.73 429.829 522.12 429.829 541.49C434.689 541.09 439.719 541.3 444.389 540.1C449.109 538.89 454.069 537.02 457.819 534.05C461.209 531.36 463.109 526.79 465.669 523.05C466.019 523.25 466.379 523.45 466.729 523.65C466.729 536.41 466.729 549.17 466.729 562.88C465.419 562.17 463.849 561.82 463.689 561.15C461.479 551.56 454.129 547.92 445.729 545.96C440.639 544.78 435.319 544.62 429.749 543.96C429.749 563.73 429.749 582.63 429.749 601.81C443.129 602.46 455.669 600.02 467.559 594.18C479.379 588.38 486.279 578.2 490.409 565.56C490.989 565.99 491.559 566.42 492.139 566.85C492.259 567.8 492.469 568.74 492.469 569.69C492.489 581.32 492.479 592.95 492.479 604.68C459.309 604.68 426.549 604.68 393.289 604.68C393.839 603.45 393.969 602.5 394.359 602.39C401.639 600.18 403.239 594.11 403.449 587.85C403.929 573.54 403.939 559.22 403.939 544.9C403.939 529.92 403.989 514.92 403.469 499.95C403.249 493.66 402.159 487.11 394.539 484.79C394.199 484.69 393.959 484.03 393.809 483.58C393.719 483.3 393.879 482.94 393.999 482.1C425.749 482.1 457.579 482.1 490.049 482.1Z" fill="white"/>
<path d="M437.66 703.801C437.66 723.881 437.66 742.651 437.66 762.401C444.29 761.731 450.79 761.631 457.01 760.281C463.29 758.921 469.71 757.071 475.31 754.041C480.74 751.101 485.91 746.981 489.87 742.271C493.73 737.671 495.92 731.651 498.84 726.261C499.39 726.441 499.94 726.631 500.48 726.811C500.48 733.051 500.48 739.291 500.48 745.531C500.48 751.851 500.48 758.171 500.48 764.821C467.58 764.821 434.95 764.821 401.59 764.821C402.42 763.411 402.7 762.211 403.32 761.991C409.67 759.811 410.96 754.331 411.4 748.831C411.99 741.541 411.96 734.191 411.94 726.871C411.9 704.551 411.92 682.241 411.51 659.931C411.4 653.791 410.24 647.481 403.02 644.911C402.5 644.721 402.42 643.311 401.96 641.971C434.18 641.971 465.88 641.971 497.95 641.971C497.95 652.961 497.95 663.871 497.95 676.231C496.36 674.801 494.87 674.121 494.64 673.151C491.97 661.801 484.05 655.431 473.96 651.151C462.44 646.271 450.37 644.711 437.71 645.101C437.71 663.891 437.71 682.291 437.71 701.061C446.88 701.801 455.67 701.011 463.24 695.991C466.6 693.761 468.68 689.591 471.31 686.281C472.17 685.201 472.95 684.051 473.76 682.941C474.19 683.201 474.63 683.461 475.06 683.711C475.06 696.481 475.06 709.241 475.06 723.101C473.49 722.091 471.83 721.621 471.62 720.791C469.4 711.951 462.76 708.191 454.81 706.321C449.4 705.051 443.77 704.661 437.66 703.801Z" fill="white"/>
<path d="M118.16 162.02C138.19 162.02 156.39 162.02 174.6 162.02C174.77 162.44 174.94 162.87 175.12 163.29C173.99 163.95 172.94 164.96 171.73 165.21C162.54 167.08 158.74 171.25 158.69 180.56C158.58 201.72 158.46 222.89 158.71 244.05C158.91 260.68 168.27 272.92 182 275.42C199.34 278.58 215.54 266.15 216.29 247.76C217.1 227.8 216.91 207.76 216.36 187.79C216.01 175.11 208.6 167.58 196.44 165.21C195.21 164.97 194.08 164.23 193.07 162.8C210.74 161.37 228.23 161.61 245.72 161.68C245.81 162.42 245.9 163.16 246 163.91C244.77 164.36 243.55 165.13 242.29 165.22C227.66 166.32 220.84 178.01 220.36 188.33C219.87 198.97 220.08 209.65 219.98 220.31C219.89 229.8 220.26 239.33 219.59 248.79C218.09 270.14 206.58 282.41 185.38 286.12C161.6 290.28 140.69 277.82 135.03 255.75C133.81 250.98 133.44 245.88 133.4 240.93C133.22 221.27 133.34 201.6 133.32 181.93C133.31 171.66 131.08 168.6 121.41 165.12C120.49 164.79 119.86 163.69 118.16 162.02Z" fill="white"/>
<path d="M621.739 490.98C620.939 500.03 620.129 509.12 619.329 518.21C618.909 518.49 618.489 518.77 618.069 519.04C616.899 517.74 615.529 516.56 614.599 515.11C609.969 507.85 606.319 499.77 600.709 493.39C591.869 483.34 579.839 481.57 567.219 484.78C559.859 486.65 555.109 492.1 553.059 499.09C550.789 506.86 548.849 514.89 548.169 522.92C546.569 541.86 546.169 560.89 550.479 579.59C555.729 602.36 573.509 610.16 594.139 598.93C604.979 593.03 611.229 583.43 615.119 572.02C615.629 570.52 616.709 569.21 617.519 567.82C618.099 568.02 618.689 568.22 619.269 568.42C620.089 577.59 620.919 586.75 621.849 597.13C614.549 599.68 607.559 602.89 600.209 604.53C587.119 607.45 573.709 607.99 560.559 604.87C535.609 598.95 519.919 580.11 515.939 552.11C512.119 525.24 524.609 499.09 547.239 486.96C561.559 479.28 577.039 479.57 592.589 480.97C602.969 481.91 612.969 484.1 621.739 490.98Z" fill="white"/>
<path d="M57.9 0C59.62 2.57 60.86 3.9 61.51 5.47C75.74 39.69 89.89 73.94 104.11 108.16C107 115.11 109.61 122.48 120.92 122.18C118.79 124.02 118.09 125.15 117.39 125.15C101.45 125.25 85.5 125.23 68.07 125.23C69.52 123.43 70 122.3 70.84 121.88C76.03 119.28 77.64 116.76 75.94 111.25C73.78 104.3 70.94 97.56 68.4 90.76C54.45 90.76 40.99 90.76 27.08 90.76C24.86 97.71 23.98 104.69 26.05 111.74C28.04 118.52 33.18 121.36 39.93 121.97C41.25 122.09 42.5 123.01 43.78 123.56C43.56 124.05 43.33 124.54 43.11 125.02C29.04 125.02 14.96 125.02 0 125.02C0.81 123.63 1.16 122.2 1.8 122.06C7.6 120.76 10.3 116.09 12.38 111.5C19.67 95.49 26.85 79.4 33.42 63.08C41.12 43.97 48.13 24.59 55.46 5.33C55.93 4.12 56.54 2.96 57.9 0ZM47 38.44C46.61 38.49 46.22 38.54 45.83 38.59C39.84 54.7 33.85 70.8 27.81 87.04C41.03 87.04 53.66 87.04 66.82 87.04C60.07 70.49 53.54 54.47 47 38.44Z" fill="white"/>
<path d="M27.3495 250.77C20.6195 269.07 25.8895 279.41 44.3795 282.68C42.9695 283.87 42.2195 284.69 41.2995 285.2C40.7895 285.48 39.9995 285.26 39.3295 285.26C26.5295 285.26 13.7195 285.26 0.0195312 285.26C0.799531 283.73 1.09953 282.23 1.69953 282.1C7.50953 280.83 10.2395 276.18 12.3295 271.59C19.6295 255.58 26.8195 239.5 33.3895 223.18C41.0895 204.07 48.0995 184.69 55.4295 165.43C55.8895 164.21 56.4695 163.03 57.6495 160.35C59.3395 162.53 60.7995 163.79 61.4595 165.38C75.6295 199.44 89.6895 233.55 103.86 267.61C105.26 270.97 106.63 274.62 109.03 277.19C111.55 279.88 115.29 281.42 119.05 283.81C118.66 284.08 117.82 285.17 116.98 285.17C101.34 285.22 85.6995 285.14 70.0495 285.05C69.8095 285.05 69.5695 284.64 68.8295 283.98C69.4495 283.27 69.9395 282.26 70.7295 281.89C75.9595 279.4 77.2795 276.92 76.0295 271.31C75.6695 269.69 75.1895 268.08 74.5795 266.54C72.4995 261.29 70.3295 256.08 68.1595 250.76C54.5295 250.77 41.0795 250.77 27.3495 250.77ZM66.8695 247.19C60.1195 230.62 53.5495 214.5 46.4295 197.02C39.8795 214.61 33.8695 230.76 27.7595 247.19C41.0895 247.19 53.6395 247.19 66.8695 247.19Z" fill="white"/>
<path d="M254.23 764.919C255.95 763.239 256.59 762.079 257.49 761.819C265.08 759.619 267.19 753.609 267.52 746.829C267.91 738.859 267.65 730.849 267.65 722.859C267.66 702.379 267.63 681.909 267.66 661.429C267.67 653.579 266.51 646.619 256.92 644.989C256.25 644.879 255.8 643.459 254.78 641.949C273.1 641.949 290.45 641.949 307.79 641.949C308.02 642.379 308.25 642.819 308.47 643.249C307.29 643.929 306.19 644.959 304.93 645.239C297.08 646.959 293.51 650.499 293.46 658.549C293.29 687.849 293.26 717.149 293.56 746.439C293.63 753.579 296.27 759.859 304.44 761.849C305.33 762.069 305.99 763.239 307.77 764.929C289.48 764.919 272.77 764.919 254.23 764.919Z" fill="white"/>
<path d="M302.961 709.069C311.611 698.589 320.211 688.639 328.241 678.239C332.271 673.019 335.921 667.289 338.591 661.289C342.701 652.029 339.621 647.159 329.771 645.299C328.471 645.059 327.321 644.059 326.411 642.529C345.891 641.619 365.051 641.599 384.201 641.619C384.281 642.359 384.361 643.099 384.441 643.849C383.371 644.239 382.311 644.939 381.231 644.969C372.061 645.189 364.641 649.449 357.851 655.069C344.291 666.289 333.371 679.919 322.391 693.739C337.291 713.579 351.861 733.249 366.761 752.659C371.451 758.769 378.361 761.339 386.011 761.959C387.301 762.059 388.531 762.849 389.781 763.319C389.601 764.149 389.431 764.969 389.251 765.799C376.231 765.219 363.161 765.129 350.201 763.869C343.491 763.219 338.661 758.009 334.751 752.739C324.131 738.439 313.771 723.949 302.961 709.069Z" fill="white"/>
</svg>
