<svg width="101" height="184" viewBox="0 0 101 184" fill="none" xmlns="http://www.w3.org/2000/svg">
<path d="M77.8221 183.785C76.5468 184.314 75.0841 183.709 74.5549 182.434L65.932 161.652C65.4029 160.377 66.0077 158.914 67.283 158.385C68.5583 157.856 70.0211 158.46 70.5502 159.736L78.2151 178.209L96.688 170.544C97.9633 170.015 99.4261 170.62 99.9553 171.895C100.484 173.17 99.8795 174.633 98.6042 175.162L77.8221 183.785ZM6.59798 2.67166C6.96606 1.34092 8.34324 0.560527 9.67398 0.928608C11.0047 1.29669 11.7851 2.67386 11.417 4.0046L6.59798 2.67166ZM74.5538 180.521C89.9065 143.393 90.5271 123.254 84.5995 111.447C78.6953 99.6857 65.8686 95.238 50.9607 90.8464C43.6752 88.7002 35.9512 86.5658 28.9017 83.5008C21.8182 80.421 15.2226 76.3261 10.1932 70.1259C0.0422767 57.6117 -3.02704 37.4696 6.59798 2.67166L11.417 4.0046C1.93178 38.2972 5.4774 56.3752 14.0764 66.9761C18.422 72.3334 24.2351 76.0197 30.8953 78.9155C37.5895 81.826 44.9441 83.8615 52.3736 86.0501C66.8953 90.3281 82.0431 95.2099 89.068 109.203C96.0694 123.15 94.5736 145.191 79.1743 182.431L74.5538 180.521Z" fill="#FDED1C"/>
</svg>
