<svg width="946" height="383" viewBox="0 0 946 383" fill="none" xmlns="http://www.w3.org/2000/svg">
<path d="M257.862 206.667C254.09 180.822 244.037 157.44 227.542 137.179C197.881 100.748 160.098 80.1325 112.358 79.9402C74.9081 79.7923 37.4503 79.8736 0 79.8514V374.863C37.9459 374.863 75.8918 374.863 113.838 374.841C137.707 374.826 160.142 368.99 181.009 357.524C209.243 342.005 230.531 319.703 244.6 290.691C257.514 264.054 262.13 235.975 257.862 206.675V206.667ZM171.504 264.276C162.302 285.632 145.711 298.865 123.912 305.959C109.23 310.737 94.0142 309.961 78.8876 310.012C76.9348 310.012 76.7943 308.814 76.8017 307.32C76.8312 302.149 76.8164 296.971 76.8164 291.801C76.8164 270.246 76.8164 248.698 76.8164 227.143C76.8164 201.031 76.8682 174.926 76.7573 148.815C76.7425 145.871 77.312 144.805 80.5149 144.85C93.4298 145.02 106.315 144.65 119.06 147.72C149.897 155.154 172.436 179.416 177.399 210.714C180.321 229.132 178.915 247.093 171.511 264.269L171.504 264.276Z" fill="white"/>
<path d="M945.912 47.6078C944.817 28.3753 935.068 14.7128 918.469 5.48126C913.114 2.50762 907.196 1.5386 901.419 0H887.373C886.544 1.35367 885.072 1.20573 883.807 1.51641C859.25 7.47847 842.525 32.1552 846.157 57.0909C850.521 87.0787 879.761 106.511 909.031 98.6848C929.749 93.1518 947.391 73.4459 945.919 47.6004L945.912 47.6078Z" fill="white"/>
<path d="M521.841 272.221C505.346 229.022 488.851 185.816 472.349 142.624C464.752 122.74 457.082 102.887 449.559 82.981C448.672 80.6435 447.481 79.8668 444.988 79.889C432.177 80.0222 419.358 79.9482 406.546 79.9482V79.9186C393.853 79.9186 381.16 80.037 368.475 79.8299C365.309 79.7781 364.022 80.8803 362.949 83.7355C349.775 118.591 336.491 153.401 323.184 188.197C313.346 213.917 303.397 239.6 293.559 265.32C280.075 300.582 266.686 335.881 253.143 371.113C251.915 374.301 252.41 374.937 255.783 374.923C280.548 374.797 305.313 374.789 330.078 374.923C332.977 374.937 334.116 373.917 334.996 371.328C340.041 356.43 345.286 341.606 350.338 326.708C351.122 324.4 352.091 323.491 354.717 323.498C388.971 323.616 423.219 323.631 457.474 323.498C460.514 323.483 461.764 324.474 462.681 327.233C467.563 341.939 472.689 356.57 477.571 371.283C478.451 373.924 479.65 374.9 482.52 374.886C507.284 374.767 532.049 374.826 556.814 374.826C560.985 374.826 561 374.797 559.462 370.765C546.924 337.908 534.386 305.057 521.841 272.206V272.221ZM438.057 265.305C417.116 265.253 396.169 265.238 375.228 265.305C372.402 265.312 372.218 264.329 373.046 261.991C378.246 247.271 383.32 232.506 388.498 217.779C393.994 202.141 399.556 186.518 405.097 170.896C405.422 169.978 405.799 169.076 406.428 167.441C408.588 173.477 410.555 178.855 412.449 184.262C421.606 210.374 430.712 236.493 439.936 262.575C440.749 264.868 440.291 265.298 438.05 265.29L438.057 265.305Z" fill="white"/>
<path d="M811.917 291.38C820.556 283.42 829.078 275.35 838.035 267.398C836.312 266.577 834.995 266.71 833.642 266.718C824.839 266.762 816.17 265.689 807.982 262.39C798.965 258.758 791.694 252.826 786.56 244.46C785.429 242.61 784.549 241.701 783.269 244.475C777.078 257.863 768.142 269.462 759.133 281.009C753.393 288.362 746.95 295.145 741.543 302.771C737.719 306.24 734.893 310.582 731.439 314.37C730.307 315.612 729.287 316.493 727.43 316.485C702.68 316.411 677.93 316.419 653.18 316.367C652.307 316.367 651.013 316.944 650.665 315.605C650.406 314.629 651.508 314.2 652.108 313.645C662.493 304.08 672.908 294.545 683.278 284.966C689.558 279.167 695.779 273.301 702.443 267.087C697.354 266.806 692.953 266.74 688.589 266.296C668.536 264.247 653.617 254.712 646.419 235.45C640.361 219.25 641.493 202.829 647.522 186.747C651.346 176.539 657.811 168.077 665.511 160.488C666.08 160.384 666.458 160.125 666.369 159.467C667.16 158.927 667.944 158.38 668.736 157.84C669.623 157.529 670.393 157.085 670.807 156.175C671.695 155.865 672.449 155.369 672.967 154.563C673.314 154.452 673.707 154.4 674.002 154.215C694.691 141.337 717.008 139.658 740.13 145.102C752.527 148.016 763.297 154.178 772.299 163.402C777.462 168.699 781.767 174.55 785.333 181.525C801.095 153.253 825.468 141.477 856.964 142.335C856.424 141.218 856.239 140.656 855.914 140.183C847.333 127.608 836.822 116.823 825.069 107.229C814.543 98.6406 802.9 91.8648 790.436 86.5019C749.916 69.0669 708.413 67.3508 666.162 79.0604C657.515 81.4571 649.023 84.4011 641.212 88.9947C640.08 89.4755 638.919 89.8898 637.832 90.452C601.883 108.908 577.333 137.409 563.508 175.215C558.301 189.47 555.889 204.293 555.076 219.457C553.478 249.349 559.728 277.488 574.256 303.54C591.808 335.022 617.904 357.229 651.102 370.928C663.269 375.951 676.096 379.02 689.188 380.914C694.114 381.624 699.174 381.402 703.967 382.985H732.807C735.737 381.55 738.969 381.994 742.054 381.55C750.649 380.322 759.192 378.902 767.506 376.328C768.349 376.247 769.237 376.306 770.036 376.069C781.471 372.622 792.419 368.006 802.967 362.399C818.36 354.218 831.541 343.241 843.302 330.488C847.17 326.294 850.95 321.974 854.375 316.256H785.192C794.564 307.306 803.255 299.346 811.91 291.372L811.917 291.38Z" fill="white"/>
<path d="M857.348 194.707C851.135 192.998 845.499 194.936 841.697 200.084C837.066 206.35 838.057 217.904 843.753 223.26C845.38 224.791 847.311 225.834 849.545 226.322C859.752 228.578 867.475 221.773 867.43 209.767C867.408 209.301 867.423 208.066 867.268 206.845C866.557 201.187 862.371 196.09 857.356 194.707H857.348Z" fill="white"/>
<path d="M711.948 195.202C705.631 197.924 702.258 205.003 703.242 213.488C703.989 219.96 708.516 225.286 714.197 226.374C724.367 228.326 731.631 221.647 731.542 210.403C731.661 206.217 730.721 202.333 728.014 199.049C724.123 194.329 717.555 192.791 711.955 195.202H711.948Z" fill="white"/>
</svg>
