<svg width="931" height="752" viewBox="0 0 931 752" fill="none" xmlns="http://www.w3.org/2000/svg">
<path d="M12.962 515.877C20.1207 515.877 25.924 510.076 25.924 502.92C25.924 495.765 20.1207 489.964 12.962 489.964C5.80329 489.964 0 495.765 0 502.92C0 510.076 5.80329 515.877 12.962 515.877Z" fill="white"/>
<path d="M208.249 482.319C228.988 461.589 241.822 432.977 241.822 401.41C241.822 369.843 228.988 341.231 208.249 320.501C187.51 299.77 158.865 286.921 127.306 286.921H53.6903V2.56123C53.6903 1.31911 52.6834 0.333984 51.4621 0.333984C50.2195 0.333984 49.234 1.34053 49.234 2.56123V447.583C49.234 449.381 50.6908 450.838 52.4905 450.838H72.0085C73.8082 450.838 75.2651 449.381 75.2651 447.583V316.175C75.2651 314.376 76.722 312.92 78.5217 312.92H127.327C151.73 312.92 173.862 322.835 189.888 338.854C205.914 354.873 215.833 376.996 215.833 401.389C215.833 425.781 205.914 447.904 189.888 463.923C173.862 479.942 151.73 489.857 127.327 489.857H52.4905C50.6908 489.857 49.234 491.314 49.234 493.113V512.622C49.234 514.421 50.6908 515.878 52.4905 515.878H127.306C158.886 515.899 187.51 503.05 208.249 482.319Z" fill="white"/>
<path d="M499.35 515.9H518.847C520.646 515.9 522.103 514.443 522.103 512.644V441.073C522.103 439.274 523.56 437.817 525.36 437.817H581.964C602.768 437.817 621.643 429.358 635.312 415.695C648.981 402.031 657.444 383.164 657.444 362.369C657.444 341.575 648.981 322.707 635.312 309.044C621.643 295.381 602.768 286.921 581.964 286.921H501.492V165.451C501.492 163.951 500.271 162.731 498.772 162.731C497.272 162.731 496.051 163.951 496.051 165.451V369.544C496.051 371.343 497.507 372.799 499.307 372.799H518.847C520.646 372.799 522.103 371.343 522.103 369.544V316.218C522.103 314.419 523.56 312.963 525.36 312.963H581.964C595.59 312.963 607.974 318.51 616.929 327.461C625.885 336.413 631.434 348.77 631.434 362.391C631.434 376.011 625.885 388.39 616.929 397.341C607.974 406.293 595.612 411.84 581.964 411.84H499.329C497.529 411.84 496.072 413.296 496.072 415.095V750.018C496.072 750.917 496.8 751.667 497.722 751.667C498.622 751.667 499.371 750.938 499.371 750.018V515.9H499.35Z" fill="white"/>
<path d="M427.961 515.9C429.761 515.9 431.218 514.444 431.218 512.645V493.135C431.218 491.336 429.761 489.88 427.961 489.88H323.836C322.037 489.88 320.58 488.424 320.58 486.625V316.198C320.58 314.399 322.037 312.942 323.836 312.942H427.961C429.761 312.942 431.218 311.486 431.218 309.687V71.0503C431.218 69.8082 430.211 68.823 428.989 68.823C427.747 68.823 426.761 69.8296 426.761 71.0503V286.922H297.805C296.006 286.922 294.549 288.378 294.549 290.177V679.175C294.549 680.417 295.556 681.402 296.777 681.402C297.998 681.402 299.005 680.396 299.005 679.175V515.9H427.961Z" fill="white"/>
<path d="M317.11 243.365C317.11 249.876 322.38 255.144 328.894 255.144C335.407 255.144 340.677 249.876 340.677 243.365C340.677 236.855 335.407 231.587 328.894 231.587C322.38 231.587 317.11 236.855 317.11 243.365Z" fill="white"/>
<path d="M359.616 391.641V411.172C359.616 412.971 361.073 414.427 362.873 414.427H407.136C408.936 414.427 410.393 412.971 410.393 411.172V391.641C410.393 389.842 408.936 388.386 407.136 388.386H362.873C361.073 388.386 359.616 389.863 359.616 391.641Z" fill="white"/>
<path d="M721.973 324.611C704.255 345.277 693.521 372.09 693.521 401.408C693.521 430.726 704.234 457.539 721.973 478.205C738.878 497.908 762.166 512.021 788.583 517.332C788.798 517.375 789.012 517.396 789.205 517.396C790.94 517.396 792.44 515.94 792.44 514.12V494.224C792.44 492.725 791.39 491.44 789.933 491.076C770.179 486.215 752.889 475.014 740.399 459.745C727.372 443.833 719.552 423.509 719.552 401.408C719.552 379.286 727.372 358.983 740.399 343.071C752.889 327.802 770.179 316.601 789.933 311.74C791.39 311.376 792.44 310.091 792.44 308.592V217.81C792.44 216.911 791.711 216.161 790.79 216.161C789.89 216.161 789.14 216.889 789.14 217.81V285.42C788.947 285.42 788.755 285.441 788.562 285.463C762.145 290.795 738.878 304.908 721.973 324.611Z" fill="white"/>
<path d="M912.054 517.397C918.567 517.397 923.838 512.129 923.838 505.619C923.838 499.108 918.567 493.84 912.054 493.84C905.541 493.84 900.27 499.108 900.27 505.619C900.27 512.129 905.541 517.397 912.054 517.397Z" fill="white"/>
<path d="M835.333 285.48C835.119 285.437 834.905 285.416 834.712 285.416C832.977 285.416 831.477 286.872 831.477 288.693V308.588C831.477 310.087 832.505 311.372 833.984 311.736C853.737 316.597 871.027 327.798 883.518 343.067C896.544 358.979 904.364 379.282 904.364 401.404C904.364 423.527 896.544 443.829 883.518 459.741C871.177 474.818 854.187 485.911 834.755 490.858V420.229C834.755 419.329 834.026 418.58 833.105 418.58C832.205 418.58 831.455 419.308 831.455 420.229V514.116C831.455 515.936 832.934 517.392 834.69 517.392C834.905 517.392 835.119 517.371 835.312 517.328C861.729 512.017 885.017 497.904 901.922 478.201C919.64 457.535 930.374 430.722 930.374 401.404C930.374 372.107 919.64 345.273 901.922 324.607C885.039 304.904 861.771 290.791 835.333 285.48Z" fill="white"/>
</svg>
