<svg width="203" height="296" viewBox="0 0 203 296" fill="none" xmlns="http://www.w3.org/2000/svg">
<path d="M176.703 101.078C191.943 111.398 200.693 125.378 202.183 143.518C203.373 157.948 199.003 170.778 190.053 182.088C173.123 203.478 136.503 211.618 109.813 187.108C109.703 187.888 109.563 188.458 109.563 189.038C109.543 204.788 109.413 220.538 109.583 236.288C109.743 250.098 106.683 262.848 98.0031 273.848C88.7931 285.518 76.7731 292.428 62.0131 294.558C37.7331 298.048 13.5531 284.068 4.24313 261.228C1.93313 255.558 0.553126 249.678 0.243126 243.548C-0.536874 227.898 4.57326 214.358 15.1333 202.928C17.7933 200.038 21.1431 197.788 24.1831 195.248C24.6531 194.858 25.1532 194.488 25.8432 193.968C9.23322 182.728 0.133068 167.278 0.183068 147.438C0.233068 127.708 9.26317 112.288 25.7932 101.168C25.2332 100.678 24.8831 100.318 24.4731 100.048C13.5431 92.7677 6.24306 82.7377 2.42306 70.2577C-0.826942 59.6477 -0.866952 48.9277 2.66305 38.3577C9.17305 18.8277 22.5831 6.58768 42.4231 1.43768C45.8531 0.547681 49.4932 0.0776859 53.0432 0.0676859C85.6332 -0.0223141 118.233 -0.0323458 150.823 0.0976542C157.333 0.127654 163.593 1.90769 169.553 4.56769C182.953 10.5577 192.613 20.2977 198.233 33.8677C204.073 47.9877 203.833 62.1677 197.893 76.2177C193.743 86.0277 187.133 93.8477 178.363 99.8577C177.893 100.178 177.463 100.538 176.723 101.108L176.703 101.078ZM92.9931 54.7676C92.9931 43.1176 92.9931 31.4677 92.9931 19.8177C92.9931 16.4377 92.9931 16.4076 89.7031 16.3976C80.1031 16.3776 70.493 16.3776 60.893 16.3976C57.443 16.3976 53.9432 16.2276 50.5332 16.6476C29.0132 19.2676 15.6432 37.6877 16.6132 56.6277C17.5832 75.5377 32.9833 91.7676 51.8833 92.5776C65.0433 93.1376 78.2531 92.7677 91.4431 92.8477C92.6031 92.8477 93.0131 92.4276 93.0031 91.2676C92.9731 79.1076 92.9831 66.9376 92.9931 54.7776V54.7676ZM92.9431 147.448C92.9431 135.668 92.9431 123.898 92.9431 112.118C92.9431 109.338 92.9432 109.288 90.0932 109.288C78.5732 109.278 67.0532 109.318 55.5332 109.298C50.0232 109.298 44.683 110.228 39.653 112.458C20.063 121.138 11.2532 143.028 19.8032 162.678C25.9032 176.698 37.0631 184.578 52.2431 185.478C65.0031 186.238 77.8333 185.678 90.6333 185.788C92.5333 185.808 92.9831 185.138 92.9731 183.348C92.9031 171.378 92.9331 159.408 92.9331 147.438L92.9431 147.448ZM109.533 54.4977C109.533 66.5277 109.563 78.5677 109.493 90.5977C109.483 92.4177 110.103 92.8376 111.823 92.8276C121.173 92.7676 130.513 92.9077 139.863 92.7877C145.093 92.7277 150.463 92.9777 155.533 91.9177C175.703 87.7177 188.463 68.9376 185.443 48.5776C183.073 32.6176 170.163 19.3976 154.213 17.0876C149.183 16.3576 144.013 16.4877 138.903 16.4277C129.753 16.3277 120.593 16.3977 111.443 16.3677C110.293 16.3677 109.503 16.4777 109.513 17.9977C109.563 30.1577 109.543 42.3177 109.533 54.4877V54.4977ZM71.393 202.218C65.953 202.218 60.4932 201.988 55.0732 202.298C51.0832 202.518 46.9831 202.948 43.1931 204.118C23.7631 210.108 12.5631 230.638 17.7531 250.258C22.5631 268.418 40.3031 280.558 58.9431 278.428C78.3531 276.218 92.9431 259.928 92.9831 240.388C93.0131 228.358 92.9532 216.318 93.0232 204.288C93.0332 202.498 92.3732 202.168 90.7832 202.188C84.3232 202.268 77.8533 202.218 71.3833 202.218H71.393ZM147.813 185.708C168.893 185.618 185.943 168.538 185.943 147.528C185.943 126.438 168.643 109.208 147.613 109.338C126.353 109.468 109.433 126.598 109.503 147.928C109.573 168.728 126.893 185.808 147.813 185.718V185.708Z" fill="white"/>
</svg>
