<svg width="76" height="15" viewBox="0 0 76 15" fill="none" xmlns="http://www.w3.org/2000/svg">
<path d="M1.87956 14.1559C1.60863 14.1559 1.32641 14.1334 1.03291 14.0882C0.739406 14.0431 0.491055 13.9358 0.28786 13.7665C0.0959531 13.6084 0 13.3545 0 13.0045C0 12.9255 0.0225773 12.7844 0.0677319 12.5812C0.112886 12.3667 0.16933 12.1691 0.237062 11.9885C0.316082 11.7966 0.400746 11.7007 0.491055 11.7007C0.524921 11.7007 0.541855 11.7289 0.541855 11.7853C0.553143 11.8305 0.558787 11.8644 0.558787 11.8869C0.558787 12.203 0.603942 12.5078 0.694251 12.8013C0.795849 13.0835 0.95389 13.3149 1.16837 13.4956C1.39415 13.6875 1.68765 13.7834 2.04889 13.7834C2.10533 13.7834 2.16742 13.7778 2.23515 13.7665C2.30288 13.7665 2.36497 13.7608 2.42141 13.7496C2.81651 13.6705 3.22291 13.473 3.64058 13.1569C4.05826 12.8408 4.4703 12.4457 4.87669 11.9716C5.29437 11.4862 5.69512 10.9669 6.07893 10.4138C6.47403 9.84933 6.84091 9.2849 7.17957 8.72047C7.52952 8.14475 7.83996 7.60854 8.11088 7.11184C8.38181 6.61514 8.60758 6.19182 8.7882 5.84187C9.13815 5.15326 9.53325 4.49288 9.97351 3.86071C10.4138 3.21726 10.9105 2.63025 11.4636 2.09969C10.3347 1.84005 9.21153 1.71023 8.09395 1.71023C7.38277 1.71023 6.72803 1.79489 6.12973 1.96422C5.53143 2.13355 4.94442 2.44963 4.3687 2.91247C4.04133 3.17211 3.72525 3.48254 3.42046 3.84378C3.11566 4.19373 2.86731 4.5719 2.67541 4.97829C2.4835 5.38468 2.38755 5.81365 2.38755 6.26519C2.38755 6.46839 2.39883 6.70545 2.42141 6.97638C2.45528 7.23602 2.51172 7.49001 2.59074 7.73836C2.68105 7.98671 2.80523 8.1899 2.96327 8.34795C3.1326 8.50599 3.35837 8.58501 3.64058 8.58501C3.66316 8.58501 3.69138 8.59065 3.72525 8.60194C3.75912 8.60194 3.77605 8.61887 3.77605 8.65274C3.77605 8.6866 3.74218 8.70918 3.67445 8.72047C3.61801 8.73176 3.57285 8.7374 3.53899 8.7374C3.30193 8.7374 3.05922 8.68096 2.81087 8.56807C2.39319 8.37617 2.06582 8.11653 1.82876 7.78916C1.60299 7.4505 1.4901 7.0554 1.4901 6.60385C1.4901 5.9604 1.61992 5.38468 1.87956 4.87669C2.15048 4.3687 2.50043 3.91716 2.9294 3.52205C3.35837 3.11566 3.83814 2.76007 4.3687 2.45528C4.89927 2.15049 5.42419 1.89085 5.94347 1.67636C6.44017 1.46188 6.96509 1.31513 7.51823 1.23611C8.07137 1.15708 8.61887 1.11757 9.16073 1.11757C9.68001 1.11757 10.1936 1.1458 10.7016 1.20224C11.2096 1.25868 11.7176 1.33206 12.2256 1.42237C12.7562 1.00469 13.3262 0.666029 13.9358 0.406391C14.5454 0.135464 15.1945 0 15.8831 0C16.0863 0 16.3121 0.0225773 16.5604 0.0677319C16.8088 0.112887 17.0176 0.203195 17.1869 0.338659C17.3676 0.474123 17.4579 0.671674 17.4579 0.931312C17.4579 0.976467 17.4409 1.07242 17.4071 1.21917C17.3732 1.35464 17.3281 1.48446 17.2716 1.60863C17.2265 1.73281 17.1757 1.79489 17.1192 1.79489C17.0853 1.79489 17.0684 1.77796 17.0684 1.74409C17.0684 1.67636 17.0797 1.61427 17.1023 1.55783C17.1361 1.4901 17.1531 1.41672 17.1531 1.3377C17.1531 1.06678 17.0345 0.86358 16.7975 0.728117C16.5717 0.592653 16.3121 0.502344 16.0186 0.45719C15.7251 0.412035 15.4767 0.389458 15.2735 0.389458C14.7542 0.389458 14.2745 0.491056 13.8342 0.694251C13.394 0.886158 12.9819 1.15144 12.5981 1.4901C13.1061 1.5917 13.6084 1.71023 14.1051 1.84569C14.6131 1.96987 15.1098 2.10533 15.5952 2.25208C15.821 2.31981 16.0863 2.39883 16.3911 2.48914C16.7072 2.56816 17.0176 2.6359 17.3224 2.69234C17.6385 2.74878 17.9094 2.777 18.1352 2.777C18.2707 2.777 18.3835 2.75443 18.4739 2.70927C18.5642 2.66412 18.6319 2.64154 18.677 2.64154C18.6996 2.64154 18.7109 2.65847 18.7109 2.69234C18.7109 2.73749 18.694 2.777 18.6601 2.81087C18.6375 2.83345 18.615 2.85603 18.5924 2.8786C18.2989 3.09309 18.0505 3.26242 17.8473 3.38659C17.6441 3.49948 17.345 3.55592 16.9499 3.55592C16.7241 3.55592 16.4927 3.53334 16.2556 3.48819C16.0186 3.44303 15.7872 3.38659 15.5614 3.31886C14.9631 3.13824 14.3591 2.94633 13.7496 2.74314C13.1513 2.53994 12.5417 2.35932 11.9208 2.20128C11.5709 2.65283 11.2265 3.19468 10.8879 3.82685C10.5605 4.44772 10.2501 5.07989 9.95658 5.72334C9.66307 6.36679 9.3865 6.9538 9.12686 7.48436L9.27926 7.5013C9.74209 7.51259 10.1993 7.44485 10.6508 7.2981C11.1024 7.15135 11.5709 7.0046 12.0563 6.85785C12.5417 6.71109 13.044 6.63772 13.5633 6.63772C13.7326 6.63772 13.9132 6.65465 14.1051 6.68852C14.3083 6.71109 14.4833 6.77318 14.6301 6.87478C14.7768 6.97638 14.8502 7.14006 14.8502 7.36583C14.8502 7.61418 14.743 7.82867 14.5285 8.00929C14.3253 8.1899 14.1221 8.32537 13.9189 8.41568C13.8737 8.43825 13.8399 8.44954 13.8173 8.44954C13.7834 8.44954 13.7665 8.43825 13.7665 8.41568C13.7665 8.35923 13.8116 8.31408 13.902 8.28021C13.9923 8.24635 14.0374 8.16733 14.0374 8.04315C14.0374 7.90769 13.9697 7.81738 13.8342 7.77222C13.6988 7.71578 13.5464 7.68192 13.377 7.67063C13.219 7.65934 13.0948 7.65369 13.0045 7.65369C12.5868 7.65369 12.1579 7.66498 11.7176 7.68756C11.2886 7.71014 10.8597 7.72143 10.4307 7.72143C10.2049 7.72143 9.97351 7.71578 9.73645 7.70449C9.51067 7.6932 9.27926 7.67627 9.0422 7.65369C8.69225 8.37617 8.2915 9.12122 7.83996 9.88884C7.3997 10.6452 6.89171 11.3451 6.31599 11.9885C5.74027 12.632 5.08553 13.1513 4.35177 13.5464C3.61801 13.9528 2.79394 14.1559 1.87956 14.1559ZM6.09586 9.63485C6.07329 9.63485 6.05635 9.62356 6.04506 9.60098C6.04506 9.57841 6.04506 9.56147 6.04506 9.55019C6.04506 9.48245 6.05071 9.42037 6.062 9.36392C6.08457 9.29619 6.10151 9.2341 6.11279 9.17766C6.24826 8.66967 6.36114 8.14475 6.45145 7.6029C6.54176 7.04975 6.58692 6.51354 6.58692 5.99427C6.58692 5.90396 6.58127 5.77978 6.56998 5.62174C6.5587 5.4637 6.52483 5.31695 6.46839 5.18148C6.42323 5.04602 6.33292 4.97829 6.19746 4.97829C6.08457 4.97829 6.0112 5.02344 5.97733 5.11375C5.94347 5.19277 5.89831 5.23228 5.84187 5.23228C5.808 5.23228 5.79107 5.21535 5.79107 5.18148C5.79107 5.15891 5.80236 5.12504 5.82494 5.07989C5.92653 4.8654 6.07329 4.66221 6.26519 4.4703C6.4571 4.27839 6.67723 4.18244 6.92558 4.18244C7.12877 4.18244 7.27552 4.25017 7.36583 4.38563C7.46743 4.5211 7.52952 4.68478 7.5521 4.87669C7.58596 5.05731 7.6029 5.22664 7.6029 5.38468C7.6029 6.03942 7.47308 6.6998 7.21344 7.36583C6.9538 8.03186 6.68287 8.65838 6.40066 9.24539C6.38937 9.29055 6.34421 9.36957 6.26519 9.48245C6.19746 9.58405 6.14102 9.63485 6.09586 9.63485Z" fill="black"/>
<path d="M13.7973 12.9876C13.7635 12.9876 13.6732 12.9763 13.5264 12.9537C13.3797 12.9424 13.2386 12.9198 13.1031 12.886C12.9676 12.8408 12.8999 12.79 12.8999 12.7336C12.8999 12.5755 12.9733 12.3498 13.12 12.0563C13.2668 11.7628 13.4587 11.441 13.6958 11.0911C13.9328 10.7298 14.1755 10.3743 14.4239 10.0243C14.6722 9.66307 14.9036 9.3357 15.1181 9.0422C15.3326 8.74869 15.4963 8.51727 15.6092 8.34795C15.7559 8.12217 15.9478 7.82867 16.1849 7.46743C16.422 7.09491 16.6647 6.70545 16.913 6.29906C17.1614 5.88138 17.3758 5.48628 17.5565 5.11375C17.7484 4.74123 17.8669 4.43643 17.9121 4.19937C17.9233 4.17679 17.929 4.14293 17.929 4.09777C17.929 3.98489 17.9064 3.91716 17.8613 3.89458C17.8161 3.872 17.7935 3.83814 17.7935 3.79298C17.7935 3.7704 17.85 3.73089 17.9629 3.67445C18.087 3.61801 18.2281 3.56156 18.3862 3.50512C18.5442 3.43739 18.691 3.38095 18.8264 3.33579C18.9732 3.27935 19.0691 3.25113 19.1143 3.25113C19.182 3.25113 19.2272 3.29628 19.2498 3.38659C19.2723 3.4769 19.2836 3.54463 19.2836 3.58979C19.2836 3.78169 19.2328 3.98489 19.1312 4.19937C19.0409 4.40257 18.945 4.58319 18.8434 4.74123C18.437 5.38468 18.008 6.01684 17.5565 6.63772C17.1049 7.2473 16.6647 7.86818 16.2357 8.50034C15.8067 9.12122 15.4173 9.77596 15.0673 10.4646C15.0222 10.5436 14.9714 10.6508 14.9149 10.7863C14.8585 10.9218 14.8303 11.0403 14.8303 11.1419C14.8303 11.2435 14.8698 11.2943 14.9488 11.2943C15.0165 11.2943 15.0899 11.2661 15.1689 11.2096C15.2592 11.1532 15.327 11.108 15.3721 11.0742C15.7785 10.7806 16.1905 10.4984 16.6082 10.2275C17.0259 9.94529 17.4662 9.71387 17.929 9.53325C17.9403 9.53325 17.9798 9.52196 18.0475 9.49939C18.1153 9.46552 18.1548 9.44859 18.166 9.44859C18.2338 9.44859 18.2676 9.4881 18.2676 9.56712C18.008 9.68 17.7089 9.84369 17.3702 10.0582C17.0315 10.2614 16.6872 10.4928 16.3373 10.7524C15.9986 11.0008 15.6826 11.2604 15.389 11.5313C15.1068 11.791 14.8811 12.0337 14.7117 12.2595C14.6666 12.3272 14.6214 12.3949 14.5763 12.4627C14.5424 12.5304 14.5085 12.6038 14.4747 12.6828C14.4182 12.8182 14.3223 12.9029 14.1868 12.9368C14.0626 12.9706 13.9328 12.9876 13.7973 12.9876Z" fill="black"/>
<path d="M17.0837 13.0214C17.0047 13.0214 16.8692 12.9989 16.6773 12.9537C16.4967 12.9198 16.4064 12.8521 16.4064 12.7505C16.4064 12.6489 16.4459 12.4852 16.5249 12.2595C16.6039 12.0337 16.666 11.8644 16.7112 11.7515C16.8015 11.5031 16.9369 11.1701 17.1176 10.7524C17.3095 10.3235 17.5127 9.87191 17.7271 9.39779C17.9529 8.92367 18.1787 8.4947 18.4045 8.11088C18.6302 7.72707 18.8278 7.45614 18.9971 7.2981C19.1552 7.15135 19.3188 7.06104 19.4882 7.02717C19.6575 6.98202 19.8438 6.95944 20.047 6.95944C20.4082 6.95944 20.7694 6.98202 21.1307 7.02717C21.4919 7.07233 21.8588 7.09491 22.2313 7.09491C22.3442 7.09491 22.4345 7.06104 22.5022 6.99331C22.5813 6.91429 22.6208 6.81834 22.6208 6.70545C22.6208 6.67158 22.6151 6.63772 22.6038 6.60385C22.5926 6.5587 22.5869 6.51919 22.5869 6.48532C22.5869 6.46274 22.6321 6.45146 22.7224 6.45146C22.9256 6.45146 23.078 6.51919 23.1796 6.65465C23.2924 6.79011 23.3658 6.9538 23.3997 7.14571C23.4448 7.33761 23.4674 7.52388 23.4674 7.70449C23.4674 7.94155 23.4392 8.1899 23.3828 8.44954C23.3263 8.70918 23.2473 8.94624 23.1457 9.16073C22.9764 9.4881 22.7167 9.8324 22.3668 10.1936C22.0281 10.5436 21.633 10.8879 21.1815 11.2265C20.7299 11.5652 20.2558 11.87 19.7591 12.1409C19.2737 12.4119 18.7996 12.6263 18.3367 12.7844C17.8739 12.9424 17.4562 13.0214 17.0837 13.0214ZM18.2013 12.2256C18.3142 12.2256 18.427 12.2087 18.5399 12.1748C18.6528 12.1409 18.7657 12.1071 18.8786 12.0732C19.951 11.7007 20.8259 11.0742 21.5032 10.1936C21.6725 9.95658 21.8306 9.66307 21.9773 9.31312C22.1241 8.95189 22.1974 8.62452 22.1974 8.33101C22.1974 7.99235 22.0846 7.73836 21.8588 7.56903C21.633 7.38841 21.3564 7.2981 21.0291 7.2981C20.871 7.2981 20.7299 7.32068 20.6058 7.36583C20.4138 7.43357 20.1994 7.6029 19.9623 7.87382C19.7252 8.14475 19.4882 8.47212 19.2511 8.85593C19.0141 9.22846 18.7939 9.61792 18.5907 10.0243C18.3875 10.4307 18.2238 10.8089 18.0997 11.1588C17.9755 11.4975 17.9134 11.7684 17.9134 11.9716C17.9134 12.1409 18.0094 12.2256 18.2013 12.2256Z" fill="black"/>
<path d="M22.6216 13.1738C22.4748 13.1738 22.3732 13.14 22.3168 13.0722C22.2604 13.0045 22.2321 12.8973 22.2321 12.7505C22.2321 12.3328 22.3225 11.8813 22.5031 11.3959C22.6837 10.8992 22.8925 10.4194 23.1296 9.95658C23.3779 9.48245 23.5924 9.06477 23.773 8.70354C23.9537 8.33101 24.044 8.06009 24.044 7.89076C24.044 7.73271 24.0045 7.63112 23.9254 7.58596C23.8577 7.52952 23.8238 7.49565 23.8238 7.48436C23.8238 7.46179 23.8803 7.42228 23.9932 7.36583C24.1173 7.2981 24.2641 7.23037 24.4334 7.16264C24.6028 7.08362 24.7552 7.02153 24.8906 6.97638C25.0374 6.91993 25.1333 6.89171 25.1785 6.89171C25.2349 6.89171 25.2631 6.93122 25.2631 7.01024C25.2631 7.12313 25.218 7.29246 25.1277 7.51823C25.0487 7.73271 24.9583 7.95284 24.8568 8.17862C24.7552 8.3931 24.6761 8.55678 24.6197 8.66967C24.552 8.80513 24.4616 9.01962 24.3488 9.31312C24.2472 9.59534 24.1343 9.90578 24.0101 10.2444C23.8972 10.5718 23.8013 10.8822 23.7222 11.1757C23.6432 11.458 23.6037 11.6668 23.6037 11.8023C23.6037 11.87 23.615 11.9377 23.6376 12.0055C23.6714 12.0732 23.7335 12.1071 23.8238 12.1071C23.9819 12.1071 24.1907 12.0111 24.4504 11.8192C24.7213 11.6273 25.0091 11.3846 25.3139 11.0911C25.63 10.7976 25.9348 10.4871 26.2283 10.1598C26.5331 9.8324 26.7984 9.53325 27.0242 9.26232C27.2612 8.9914 27.4306 8.7882 27.5322 8.65274C27.6563 8.48341 27.7579 8.31408 27.8369 8.14475C27.8708 8.06573 27.9047 7.95849 27.9385 7.82302C27.9724 7.67627 28.0119 7.54081 28.0571 7.41663C28.1135 7.28117 28.1813 7.1965 28.2603 7.16264C28.3054 7.14006 28.3844 7.1062 28.4973 7.06104C28.6215 7.01589 28.74 6.97638 28.8529 6.94251C28.9771 6.90864 29.0618 6.89171 29.1069 6.89171C29.1634 6.89171 29.1916 6.93122 29.1916 7.01024C29.1916 7.12313 29.1464 7.29246 29.0561 7.51823C28.9771 7.73271 28.8868 7.95284 28.7852 8.17862C28.6836 8.3931 28.6046 8.55678 28.5481 8.66967C28.4804 8.81642 28.3844 9.03655 28.2603 9.33006C28.1474 9.62356 28.0345 9.93964 27.9216 10.2783C27.8087 10.6057 27.7128 10.9161 27.6338 11.2096C27.5547 11.5031 27.5152 11.7289 27.5152 11.8869C27.5152 11.9998 27.5378 12.1071 27.583 12.2087C27.6281 12.3103 27.7184 12.3611 27.8539 12.3611C28.0232 12.3611 28.2095 12.2933 28.4127 12.1579C28.6272 12.0224 28.8303 11.87 29.0223 11.7007C29.2255 11.5313 29.3835 11.3959 29.4964 11.2943C29.756 11.0346 30.0439 10.7242 30.36 10.363C30.676 10.0017 30.9752 9.61227 31.2574 9.19459C31.5509 8.76562 31.7993 8.3423 32.0025 7.92462C32.2056 7.49565 32.3298 7.09491 32.375 6.72238C32.3863 6.67723 32.3976 6.62643 32.4088 6.56999C32.4201 6.50225 32.4596 6.46839 32.5274 6.46839C32.629 6.46839 32.7024 6.51919 32.7475 6.62078C32.8039 6.72238 32.8435 6.83527 32.866 6.95944C32.8886 7.07233 32.8999 7.16264 32.8999 7.23037C32.8999 7.55774 32.787 7.93027 32.5612 8.34795C32.3468 8.75434 32.0589 9.17202 31.6977 9.60098C31.3477 10.03 30.9695 10.442 30.5632 10.8371C30.1568 11.2322 29.7617 11.5878 29.3778 11.9039C29.0053 12.2087 28.6892 12.4401 28.4296 12.5981C28.1587 12.7674 27.8708 12.9029 27.566 13.0045C27.2612 13.1174 26.9451 13.1738 26.6178 13.1738C26.5049 13.1738 26.3864 13.1569 26.2622 13.123C26.138 13.0892 26.0759 12.9932 26.0759 12.8352C26.0759 12.632 26.1211 12.3836 26.2114 12.0901C26.313 11.7966 26.4315 11.4918 26.567 11.1757C26.7024 10.8484 26.8379 10.5436 26.9734 10.2614C27.1201 9.96786 27.2443 9.7308 27.3459 9.55019C27.1766 9.76467 26.9508 10.0243 26.6686 10.3291C26.3864 10.6339 26.0703 10.9556 25.7203 11.2943C25.3704 11.6216 25.0091 11.9264 24.6366 12.2087C24.2754 12.4909 23.9198 12.7223 23.5698 12.9029C23.2199 13.0835 22.9038 13.1738 22.6216 13.1738Z" fill="black"/>
<path d="M39.6635 13.8004C39.0087 13.8004 38.4048 13.7326 37.8516 13.5972C37.2985 13.4617 36.8413 13.2529 36.4801 12.9706C36.1188 12.6884 35.8931 12.3272 35.8027 11.8869C35.7915 11.8305 35.7802 11.774 35.7689 11.7176C35.7689 11.6499 35.7689 11.5821 35.7689 11.5144C35.7689 11.0516 35.9495 10.6 36.3107 10.1598C36.6833 9.70823 37.259 9.3357 38.0379 9.0422C38.8281 8.74869 39.8441 8.60194 41.0858 8.60194C41.289 8.60194 41.5712 8.61887 41.9325 8.65274C42.2937 8.67532 42.6719 8.72611 43.067 8.80513C43.4621 8.87287 43.8177 8.96882 44.1338 9.093C44.4611 9.21717 44.6813 9.37521 44.7941 9.56712C44.8167 9.58969 44.828 9.61227 44.828 9.63485C44.828 9.72516 44.7829 9.77031 44.6925 9.77031C44.6474 9.77031 44.6135 9.74774 44.5909 9.70258C44.3878 9.44294 44.0322 9.26797 43.5242 9.17766C43.0162 9.07606 42.4969 9.02526 41.9663 9.02526C41.639 9.02526 41.3229 9.0422 41.0181 9.07606C40.7246 9.09864 40.4819 9.12122 40.29 9.14379C39.432 9.25668 38.7491 9.43165 38.2411 9.66872C37.7444 9.90578 37.3832 10.1767 37.1574 10.4815C36.9429 10.7863 36.8357 11.0967 36.8357 11.4128C36.8357 11.458 36.8357 11.5088 36.8357 11.5652C36.8469 11.6104 36.8582 11.6612 36.8695 11.7176C36.9824 12.2933 37.3324 12.711 37.9194 12.9706C38.5064 13.2303 39.2006 13.3601 40.0021 13.3601C40.623 13.3601 41.2721 13.2867 41.9494 13.14C42.6267 13.0045 43.2815 12.8126 43.9136 12.5642C44.5458 12.3046 45.1159 11.9998 45.6239 11.6499C46.1431 11.2886 46.5552 10.8935 46.86 10.4646C47.1648 10.0243 47.3172 9.56147 47.3172 9.07606C47.3172 8.52292 47.0406 8.06573 46.4874 7.70449C45.9343 7.33197 45.1046 6.94815 43.9983 6.55305C43.6935 6.44017 43.3548 6.31599 42.9823 6.18053C42.6098 6.04506 42.2542 5.88138 41.9155 5.68947C41.5769 5.49757 41.3003 5.2605 41.0858 4.97829C40.8713 4.68478 40.7641 4.33484 40.7641 3.92844C40.7641 3.48819 40.8939 3.08744 41.1536 2.72621C41.4245 2.36497 41.7349 2.06582 42.0849 1.82876C41.622 1.73845 41.1536 1.67072 40.6794 1.62556C40.2053 1.58041 39.7255 1.55783 39.2401 1.55783C38.8225 1.55783 38.3991 1.58041 37.9702 1.62556C37.5525 1.65943 37.1461 1.73281 36.751 1.84569C36.401 1.94729 36.1019 2.10533 35.8535 2.31981C35.6165 2.5343 35.498 2.83909 35.498 3.23419C35.498 3.61801 35.6108 3.98489 35.8366 4.33484C36.0737 4.68478 36.339 4.97264 36.6325 5.19842C36.8582 5.35646 37.1517 5.5145 37.513 5.67254C37.8742 5.81929 38.2411 5.94347 38.6136 6.04506C38.9974 6.13537 39.3248 6.18053 39.5957 6.18053C39.6409 6.18053 39.6804 6.18053 39.7143 6.18053C39.7594 6.16924 39.7989 6.16359 39.8328 6.16359C39.8667 6.16359 39.8836 6.18053 39.8836 6.21439C39.8836 6.28213 39.7933 6.33857 39.6127 6.38372C39.4433 6.41759 39.2627 6.44581 39.0708 6.46839C38.8789 6.47968 38.7491 6.48532 38.6813 6.48532C38.275 6.48532 37.8629 6.41759 37.4452 6.28212C37.0276 6.14666 36.6437 5.94911 36.2938 5.68947C35.9439 5.42983 35.6616 5.1194 35.4472 4.75816C35.2327 4.39692 35.1254 3.99053 35.1254 3.53899C35.1254 2.95198 35.2778 2.47786 35.5826 2.11662C35.8987 1.75538 36.2994 1.47881 36.7849 1.2869C37.2703 1.08371 37.7783 0.948245 38.3088 0.880513C38.8394 0.801493 39.3304 0.761983 39.782 0.761983C40.369 0.761983 40.9504 0.807138 41.5261 0.897447C42.1018 0.976467 42.6719 1.095 43.2363 1.25304C43.4959 1.16273 43.8233 1.08935 44.2184 1.03291C44.6135 0.976467 45.0368 0.948245 45.4884 0.948245C45.9964 0.948245 46.5044 0.9934 47.0124 1.08371C47.5203 1.16273 47.9775 1.29819 48.3839 1.4901C48.7903 1.67072 49.0895 1.91907 49.2814 2.23515C49.3604 2.35932 49.3999 2.49479 49.3999 2.64154C49.3999 2.82216 49.3322 2.98584 49.1967 3.1326C49.0725 3.27935 48.8806 3.35272 48.621 3.35272C48.4065 3.35272 48.192 3.3245 47.9775 3.26806C47.7743 3.21162 47.5711 3.16082 47.368 3.11566C46.589 2.91247 45.8101 2.70363 45.0312 2.48914C44.2636 2.27466 43.4847 2.0884 42.6945 1.93036C42.4461 2.09969 42.226 2.30853 42.0341 2.55688C41.8422 2.80523 41.7462 3.08744 41.7462 3.40352C41.7462 3.70832 41.8422 3.98489 42.0341 4.23324C42.226 4.48159 42.4405 4.69043 42.6775 4.85976C43.0162 5.09682 43.4339 5.30001 43.9306 5.46934C44.4385 5.63867 44.9691 5.808 45.5223 5.97733C46.0754 6.13537 46.589 6.32728 47.0632 6.55305C47.5486 6.77883 47.938 7.06669 48.2315 7.41663C48.5363 7.76658 48.6887 8.21248 48.6887 8.75434C48.6887 9.34135 48.5025 9.89449 48.1299 10.4138C47.7574 10.9218 47.2494 11.3846 46.606 11.8023C45.9738 12.2087 45.2626 12.5643 44.4724 12.869C43.6935 13.1625 42.8864 13.3883 42.051 13.5464C41.2269 13.7157 40.4311 13.8004 39.6635 13.8004ZM48.3839 2.67541C48.6774 2.67541 48.8242 2.60767 48.8242 2.47221C48.8242 2.37061 48.7508 2.25773 48.6041 2.13355C48.4573 1.99809 48.271 1.86827 48.0453 1.74409C47.8195 1.61992 47.5824 1.52397 47.3341 1.45623C46.6906 1.2869 46.0585 1.20224 45.4376 1.20224C44.8844 1.20224 44.3482 1.27562 43.829 1.42237C44.1225 1.51268 44.4781 1.63121 44.8957 1.77796C45.3134 1.91342 45.748 2.05453 46.1996 2.20128C46.6624 2.33675 47.097 2.45528 47.5034 2.55688C47.6953 2.60203 47.8646 2.6359 48.0114 2.65847C48.1582 2.66976 48.2823 2.67541 48.3839 2.67541ZM41.7631 8.16168C41.7406 8.16168 41.7236 8.15604 41.7123 8.14475C41.5317 8.08831 41.3624 7.97542 41.2044 7.80609C41.0463 7.63676 40.9673 7.4505 40.9673 7.2473C40.9673 7.07797 41.0237 6.9538 41.1366 6.87478C41.2608 6.78447 41.4019 6.72238 41.5599 6.68852C41.7293 6.65465 41.876 6.63772 42.0002 6.63772C42.3276 6.63772 42.6549 6.69416 42.9823 6.80705C43.321 6.90864 43.6371 7.01024 43.9306 7.11184C43.9644 7.12313 44.0209 7.15135 44.0999 7.19651C44.1789 7.24166 44.2184 7.28117 44.2184 7.31504C44.2184 7.33761 44.2015 7.35455 44.1676 7.36583C44.1338 7.36583 44.1055 7.36583 44.083 7.36583C43.9475 7.36583 43.8064 7.36019 43.6596 7.3489C43.5242 7.32632 43.3831 7.31504 43.2363 7.31504C43.1573 7.31504 43.0275 7.32068 42.8469 7.33197C42.6775 7.33197 42.4913 7.3489 42.2881 7.38277C42.0962 7.40534 41.9268 7.4505 41.7801 7.51823C41.6446 7.58596 41.5769 7.67627 41.5769 7.78916C41.5769 7.91333 41.6107 7.99235 41.6785 8.02622C41.7575 8.0488 41.797 8.08831 41.797 8.14475C41.797 8.15604 41.7857 8.16168 41.7631 8.16168Z" fill="black"/>
<path d="M48.5608 12.9876C48.5269 12.9876 48.4366 12.9763 48.2899 12.9537C48.1431 12.9424 48.002 12.9198 47.8665 12.886C47.7311 12.8408 47.6633 12.79 47.6633 12.7336C47.6633 12.5643 47.7367 12.3328 47.8835 12.0393C48.0415 11.7345 48.2334 11.4015 48.4592 11.0403C48.6963 10.6678 48.9503 10.2952 49.2212 9.92271C49.4921 9.5389 49.7405 9.1833 49.9662 8.85593C50.2033 8.52856 50.3952 8.25764 50.542 8.04315C50.7 7.81738 50.779 7.68192 50.779 7.63676C50.779 7.59161 50.7226 7.5521 50.6097 7.51823C50.5081 7.48437 50.3952 7.45614 50.271 7.43357C50.1581 7.3997 50.0791 7.38277 50.034 7.38277C50.0001 7.36019 49.9832 7.32632 49.9832 7.28117C49.9832 7.14571 50.0678 7.0554 50.2372 7.01024C50.4178 6.96509 50.604 6.93687 50.7959 6.92558C50.9991 6.91429 51.1346 6.90864 51.2023 6.90864C51.2701 6.79576 51.3547 6.64336 51.4563 6.45146C51.5579 6.24826 51.6482 6.04506 51.7273 5.84187C51.8063 5.63867 51.8458 5.48063 51.8458 5.36775C51.8458 5.26615 51.8176 5.19842 51.7611 5.16455C51.716 5.1194 51.6934 5.09117 51.6934 5.07989C51.6934 5.05731 51.7498 5.0178 51.8627 4.96135C51.9869 4.89362 52.1336 4.82589 52.303 4.75816C52.4723 4.69043 52.6303 4.63398 52.7771 4.58883C52.9239 4.54368 53.0198 4.5211 53.065 4.5211C53.1101 4.5211 53.1383 4.56061 53.1496 4.63963C53.1609 4.70736 53.1666 4.75252 53.1666 4.77509C53.1666 4.97829 53.0932 5.22099 52.9464 5.50321C52.811 5.77414 52.6529 6.04506 52.4723 6.31599C52.303 6.57563 52.1562 6.79576 52.0321 6.97638H53.8947C53.9285 6.97638 53.9455 6.98767 53.9455 7.01024C53.9455 7.06669 53.9003 7.14006 53.81 7.23037C53.731 7.32068 53.6633 7.36583 53.6068 7.36583C53.4262 7.36583 53.2512 7.37712 53.0819 7.3997C52.9126 7.41099 52.7376 7.42228 52.557 7.43357C52.3425 7.44485 52.1167 7.49565 51.8797 7.58596C51.6426 7.67627 51.462 7.81174 51.3378 7.99235C51.2475 8.11653 51.1064 8.32537 50.9145 8.61887C50.7226 8.91238 50.525 9.22846 50.3218 9.56712C50.1186 9.90578 49.9437 10.2219 49.7969 10.5154C49.6614 10.8089 49.5937 11.0177 49.5937 11.1419C49.5937 11.2435 49.6332 11.2943 49.7122 11.2943C49.78 11.2943 49.8533 11.2661 49.9324 11.2096C50.0227 11.1532 50.0904 11.108 50.1356 11.0742C50.5307 10.7806 50.9314 10.4984 51.3378 10.2275C51.7555 9.95658 52.1901 9.7308 52.6416 9.55019C52.6642 9.5389 52.715 9.52196 52.794 9.49939C52.8731 9.46552 52.9182 9.44859 52.9295 9.44859C52.9972 9.44859 53.0311 9.4881 53.0311 9.56712C52.7602 9.69129 52.4328 9.87191 52.049 10.109C51.6765 10.3347 51.2926 10.6 50.8975 10.9048C50.5137 11.1983 50.1694 11.5031 49.8646 11.8192C49.5711 12.124 49.3623 12.4119 49.2381 12.6828C49.1817 12.8182 49.0857 12.9029 48.9503 12.9368C48.8148 12.9706 48.685 12.9876 48.5608 12.9876Z" fill="black"/>
<path d="M55.6242 12.9876C55.5903 12.9876 55.4944 12.9763 55.3363 12.9537C55.1783 12.9424 55.0259 12.9198 54.8791 12.886C54.7324 12.8408 54.659 12.79 54.659 12.7336C54.659 12.6546 54.7267 12.4909 54.8622 12.2425C55.009 11.9829 55.1952 11.6837 55.421 11.3451C55.6468 11.0064 55.8725 10.6678 56.0983 10.3291C56.3354 9.97915 56.5499 9.67436 56.7418 9.41472C56.9337 9.14379 57.0691 8.95753 57.1482 8.85593C56.8208 9.16073 56.4708 9.45423 56.0983 9.73645C55.7371 10.0187 55.3758 10.3009 55.0146 10.5831C54.5518 10.9443 54.0777 11.3056 53.5922 11.6668C53.1068 12.028 52.6101 12.3667 52.1021 12.6828C51.9893 12.7505 51.8538 12.8182 51.6958 12.886C51.5377 12.9424 51.391 12.9706 51.2555 12.9706C51.0184 12.9706 50.8999 12.8634 50.8999 12.6489C50.8999 12.5473 50.9168 12.4457 50.9507 12.3441C50.9959 12.2312 51.041 12.1296 51.0862 12.0393C51.3797 11.4297 51.724 10.8427 52.1191 10.2783C52.5142 9.71387 52.9375 9.1833 53.389 8.6866C53.389 8.67532 53.389 8.66967 53.389 8.66967C53.4003 8.65838 53.406 8.64709 53.406 8.63581C53.406 8.61323 53.3834 8.5963 53.3382 8.58501C53.2931 8.57372 53.2592 8.56807 53.2366 8.56807C53.0673 8.56807 52.8359 8.61887 52.5424 8.72047C52.2489 8.82207 51.9723 8.87287 51.7127 8.87287C51.6901 8.87287 51.6562 8.86722 51.6111 8.85593C51.5772 8.84465 51.5603 8.81642 51.5603 8.77127C51.5603 8.72611 51.5829 8.69225 51.628 8.66967C51.6845 8.63581 51.7296 8.61323 51.7635 8.60194C51.9893 8.52292 52.215 8.45519 52.4408 8.39874C52.6779 8.33101 52.9036 8.25764 53.1181 8.17862C53.4681 8.05444 53.8011 7.91333 54.1172 7.75529C54.4445 7.59725 54.7719 7.43921 55.0993 7.28117C55.1444 7.25859 55.1896 7.2473 55.2347 7.2473C55.3138 7.2473 55.3533 7.28117 55.3533 7.3489C55.3533 7.39406 55.3363 7.43921 55.3025 7.48436C55.2799 7.51823 55.2517 7.54645 55.2178 7.56903C54.7211 8.00929 54.2583 8.50599 53.8293 9.05913C53.4003 9.60098 53.0391 10.1711 52.7456 10.7694C52.7004 10.8597 52.644 10.9782 52.5763 11.1249C52.5085 11.2717 52.4747 11.4015 52.4747 11.5144C52.4747 11.6273 52.5311 11.6837 52.644 11.6837C52.7795 11.6837 52.9996 11.5934 53.3044 11.4128C53.6092 11.2322 53.9478 11.0008 54.3204 10.7186C54.6929 10.4363 55.0654 10.1428 55.4379 9.83805C55.8105 9.53325 56.1435 9.25104 56.437 8.9914C56.7418 8.73176 56.9563 8.53985 57.0804 8.41568C57.1707 8.32537 57.278 8.19555 57.4022 8.02622C57.5376 7.8456 57.6054 7.69885 57.6054 7.58596C57.6054 7.52952 57.5941 7.49565 57.5715 7.48436C57.5602 7.47308 57.5546 7.46179 57.5546 7.4505C57.5546 7.42792 57.611 7.38841 57.7239 7.33197C57.8481 7.27553 57.9892 7.21344 58.1472 7.14571C58.3165 7.07797 58.4689 7.02153 58.6044 6.97638C58.7511 6.91993 58.8471 6.89171 58.8923 6.89171C58.9374 6.89171 58.96 6.91429 58.96 6.95944C58.96 7.06104 58.8923 7.23037 58.7568 7.46743C58.6326 7.70449 58.4915 7.94155 58.3335 8.17862C58.1867 8.41568 58.0795 8.57936 58.0117 8.66967C57.944 8.77127 57.8368 8.95189 57.69 9.21153C57.5546 9.47116 57.4078 9.75338 57.2498 10.0582C57.103 10.363 56.9732 10.6452 56.8603 10.9048C56.7474 11.1532 56.691 11.3281 56.691 11.4297C56.691 11.4636 56.7023 11.4805 56.7248 11.4805C56.7474 11.4805 56.77 11.4749 56.7926 11.4636C56.8151 11.441 56.8321 11.4241 56.8434 11.4128C57.2272 11.0742 57.6787 10.7298 58.198 10.3799C58.7286 10.03 59.2253 9.76467 59.6881 9.58405C59.7107 9.57276 59.7728 9.55019 59.8744 9.51632C59.976 9.47116 60.0324 9.44859 60.0437 9.44859C60.1001 9.44859 60.1397 9.4881 60.1622 9.56712C59.88 9.69129 59.547 9.87191 59.1632 10.109C58.7907 10.346 58.4125 10.6113 58.0287 10.9048C57.6449 11.187 57.3006 11.4862 56.9958 11.8023C56.691 12.1071 56.4765 12.4006 56.3523 12.6828C56.2959 12.8182 56.1943 12.9029 56.0475 12.9368C55.9008 12.9706 55.7597 12.9876 55.6242 12.9876Z" fill="black"/>
<path d="M61.3768 13.5972C61.2978 13.5972 61.2583 13.5464 61.2583 13.4448C61.2583 13.3996 61.2809 13.3545 61.326 13.3093C61.5179 13.0722 61.6872 12.8182 61.834 12.5473C62.1839 11.9603 62.5339 11.3789 62.8838 10.8032C63.2338 10.2162 63.5837 9.62921 63.9337 9.0422C63.7869 9.16637 63.5612 9.35263 63.2564 9.60098C62.9516 9.84933 62.6016 10.1315 62.2065 10.4476C61.8114 10.7524 61.3994 11.0629 60.9704 11.3789C60.5414 11.695 60.1294 11.9885 59.7343 12.2595C59.3392 12.5304 58.9893 12.7505 58.6845 12.9198C58.3797 13.0779 58.1539 13.1569 58.0072 13.1569C57.8491 13.1569 57.7701 13.0722 57.7701 12.9029C57.7701 12.7787 57.804 12.6376 57.8717 12.4796C57.9394 12.3215 58.0015 12.1861 58.0579 12.0732C58.374 11.4297 58.7578 10.7806 59.2094 10.1259C59.6722 9.45988 60.1802 8.839 60.7334 8.26328C61.2865 7.67627 61.8622 7.18522 62.4605 6.79011C62.5621 6.72238 62.7145 6.67723 62.9177 6.65465C63.1209 6.62078 63.3297 6.60385 63.5442 6.60385C63.77 6.59256 63.9393 6.58692 64.0522 6.58692C64.515 6.58692 64.9722 6.60385 65.4238 6.63772C65.5818 6.37808 65.7399 6.11844 65.8979 5.8588C66.0559 5.58787 66.214 5.32259 66.372 5.06295C66.5301 4.80331 66.7107 4.50981 66.9139 4.18244C67.1284 3.85507 67.3767 3.61801 67.6589 3.47126C67.8396 3.38095 68.0202 3.33579 68.2008 3.33579C68.404 3.33579 68.5959 3.3753 68.7765 3.45432C68.9571 3.53334 69.1208 3.63494 69.2676 3.75912C69.2789 3.7704 69.2958 3.78734 69.3184 3.80991C69.3522 3.83249 69.3692 3.85507 69.3692 3.87765C69.3692 3.88893 69.3466 3.89458 69.3014 3.89458C69.2676 3.89458 69.245 3.89458 69.2337 3.89458C68.8386 3.89458 68.4943 4.00182 68.2008 4.2163C67.9073 4.43079 67.6476 4.69043 67.4219 4.99522C67.1961 5.28873 66.9816 5.57659 66.7784 5.8588C66.214 6.63772 65.6721 7.44485 65.1529 8.28021C64.6336 9.11557 64.1764 9.97351 63.7813 10.854C63.7248 10.9669 63.6966 11.0685 63.6966 11.1588C63.6966 11.1927 63.7023 11.2322 63.7136 11.2773C63.7361 11.3112 63.77 11.3281 63.8152 11.3281C63.849 11.3281 63.8829 11.3112 63.9167 11.2773C64.3796 10.95 64.8537 10.6339 65.3391 10.3291C65.8358 10.0243 66.3438 9.77031 66.8631 9.56712C66.8857 9.55583 66.9421 9.53325 67.0324 9.49939C67.1227 9.46552 67.1735 9.44859 67.1848 9.44859C67.2525 9.44859 67.2864 9.4881 67.2864 9.56712C66.959 9.71387 66.6373 9.88884 66.3212 10.092C66.0051 10.2952 65.6947 10.4928 65.3899 10.6847C64.7126 11.1137 64.0353 11.5652 63.358 12.0393C62.6806 12.5135 62.0428 13.0214 61.4445 13.5633C61.422 13.5859 61.3994 13.5972 61.3768 13.5972ZM59.565 11.7853C59.6327 11.7853 59.7174 11.7571 59.819 11.7007C59.9206 11.6442 59.9996 11.5991 60.056 11.5652C60.7785 11.1249 61.4671 10.6395 62.1219 10.109C62.7879 9.57841 63.4313 9.03091 64.0522 8.46648C64.1425 8.37617 64.278 8.24635 64.4586 8.07702C64.6392 7.90769 64.7295 7.74965 64.7295 7.6029C64.7295 7.45614 64.6223 7.35455 64.4078 7.2981C64.2046 7.23037 63.9788 7.19086 63.7305 7.17957C63.4934 7.15699 63.3185 7.14571 63.2056 7.14571C63.1378 7.14571 63.0532 7.15135 62.9516 7.16264C62.8613 7.16264 62.7879 7.18522 62.7314 7.23037C62.4831 7.41099 62.2065 7.66498 61.9017 7.99235C61.6082 8.30844 61.3147 8.65838 61.0212 9.0422C60.739 9.42601 60.4737 9.80418 60.2254 10.1767C59.9883 10.5492 59.802 10.8766 59.6666 11.1588C59.644 11.2265 59.6045 11.3112 59.548 11.4128C59.5029 11.5144 59.4803 11.6047 59.4803 11.6837C59.4803 11.7515 59.5085 11.7853 59.565 11.7853Z" fill="black"/>
<path d="M68.6586 6.16359C68.5909 6.16359 68.557 6.14102 68.557 6.09586C68.557 6.03942 68.5853 5.96604 68.6417 5.87573C68.6982 5.78543 68.7264 5.67818 68.7264 5.55401C68.7264 5.48628 68.7151 5.42419 68.6925 5.36775C68.6699 5.30001 68.6586 5.23793 68.6586 5.18148C68.6586 5.10246 68.732 5.05731 68.8788 5.04602C69.0368 5.03473 69.1384 5.02909 69.1836 5.02909C69.2513 5.02909 69.3924 5.03473 69.6069 5.04602C69.8214 5.05731 70.0246 5.08553 70.2165 5.13068C70.4084 5.16455 70.5043 5.22099 70.5043 5.30001C70.5043 5.32259 70.4874 5.34517 70.4535 5.36775C70.431 5.37903 70.4084 5.39032 70.3858 5.40161C70.2616 5.44677 70.1431 5.48628 70.0302 5.52014C69.9173 5.55401 69.7988 5.60481 69.6746 5.67254C69.6069 5.70641 69.5053 5.76285 69.3698 5.84187C69.2344 5.92089 69.0989 5.99426 68.9634 6.062C68.828 6.12973 68.7264 6.16359 68.6586 6.16359ZM65.78 12.9876C65.7349 12.9876 65.6389 12.9763 65.4922 12.9537C65.3567 12.9424 65.2212 12.9198 65.0858 12.886C64.9616 12.8408 64.8995 12.79 64.8995 12.7336C64.8995 12.6997 64.9108 12.6376 64.9334 12.5473C64.9673 12.4457 64.9898 12.378 65.0011 12.3441C65.1705 11.8587 65.4075 11.3902 65.7123 10.9387C66.0171 10.4759 66.3388 10.0243 66.6775 9.58405C67.0274 9.13251 67.3322 8.69225 67.5919 8.26328C67.6483 8.18426 67.6935 8.10524 67.7273 8.02622C67.7725 7.93591 67.7951 7.8456 67.7951 7.75529C67.7951 7.63112 67.7668 7.55774 67.7104 7.53516C67.654 7.5013 67.6257 7.47308 67.6257 7.4505C67.6257 7.42792 67.6822 7.38841 67.7951 7.33197C67.9192 7.27553 68.0603 7.21344 68.2184 7.14571C68.3877 7.07797 68.5458 7.02153 68.6925 6.97638C68.8393 6.91993 68.9352 6.89171 68.9804 6.89171C69.0142 6.89171 69.0312 6.91429 69.0312 6.95944C69.0312 7.03846 68.9917 7.15699 68.9126 7.31504C68.8336 7.47308 68.7377 7.64805 68.6248 7.83996C68.5119 8.02057 68.4046 8.1899 68.303 8.34795C68.2127 8.4947 68.145 8.60194 68.0999 8.66967C67.8741 9.01962 67.6652 9.38086 67.4733 9.75338C67.2814 10.1259 67.0895 10.4984 66.8976 10.871C66.8637 10.95 66.8242 11.0403 66.7791 11.1419C66.7452 11.2322 66.7283 11.3169 66.7283 11.3959C66.7283 11.4636 66.7452 11.4975 66.7791 11.4975C66.8017 11.4975 66.8299 11.4862 66.8637 11.4636C66.8976 11.441 66.9202 11.4241 66.9315 11.4128C67.3266 11.0742 67.7781 10.7355 68.2861 10.3968C68.7941 10.0469 69.2908 9.77596 69.7762 9.58405C69.7988 9.57276 69.8609 9.55019 69.9625 9.51632C70.0641 9.47116 70.1205 9.44859 70.1318 9.44859C70.1995 9.44859 70.2334 9.4881 70.2334 9.56712C69.9512 9.69129 69.6182 9.87191 69.2344 10.109C68.8618 10.3347 68.4837 10.5944 68.0999 10.8879C67.7273 11.1814 67.3887 11.4862 67.0839 11.8023C66.7791 12.1071 66.5646 12.4006 66.4404 12.6828C66.384 12.8182 66.288 12.9029 66.1526 12.9368C66.0284 12.9706 65.9042 12.9876 65.78 12.9876Z" fill="black"/>
<path d="M69.5329 13.0214C69.4539 13.0214 69.3184 12.9989 69.1265 12.9537C68.9459 12.9198 68.8556 12.8521 68.8556 12.7505C68.8556 12.6489 68.8951 12.4852 68.9741 12.2595C69.0532 12.0337 69.1153 11.8644 69.1604 11.7515C69.2507 11.5031 69.3862 11.1701 69.5668 10.7524C69.7587 10.3235 69.9619 9.87191 70.1764 9.39779C70.4022 8.92367 70.6279 8.4947 70.8537 8.11088C71.0795 7.72707 71.277 7.45614 71.4464 7.2981C71.6044 7.15135 71.7681 7.06104 71.9374 7.02717C72.1067 6.98202 72.293 6.95944 72.4962 6.95944C72.8574 6.95944 73.2187 6.98202 73.5799 7.02717C73.9411 7.07233 74.308 7.09491 74.6805 7.09491C74.7934 7.09491 74.8837 7.06104 74.9515 6.99331C75.0305 6.91429 75.07 6.81834 75.07 6.70545C75.07 6.67158 75.0644 6.63772 75.0531 6.60385C75.0418 6.5587 75.0361 6.51919 75.0361 6.48532C75.0361 6.46274 75.0813 6.45146 75.1716 6.45146C75.3748 6.45146 75.5272 6.51919 75.6288 6.65465C75.7417 6.79011 75.8151 6.9538 75.8489 7.14571C75.8941 7.33761 75.9166 7.52388 75.9166 7.70449C75.9166 7.94155 75.8884 8.1899 75.832 8.44954C75.7755 8.70918 75.6965 8.94624 75.5949 9.16073C75.4256 9.4881 75.166 9.8324 74.816 10.1936C74.4774 10.5436 74.0823 10.8879 73.6307 11.2265C73.1792 11.5652 72.705 11.87 72.2083 12.1409C71.7229 12.4119 71.2488 12.6263 70.786 12.7844C70.3231 12.9424 69.9055 13.0214 69.5329 13.0214ZM70.6505 12.2256C70.7634 12.2256 70.8763 12.2087 70.9892 12.1748C71.1021 12.1409 71.2149 12.1071 71.3278 12.0732C72.4002 11.7007 73.2751 11.0742 73.9524 10.1936C74.1218 9.95658 74.2798 9.66307 74.4266 9.31312C74.5733 8.95189 74.6467 8.62452 74.6467 8.33101C74.6467 7.99235 74.5338 7.73836 74.308 7.56903C74.0822 7.38841 73.8057 7.2981 73.4783 7.2981C73.3203 7.2981 73.1792 7.32068 73.055 7.36583C72.8631 7.43357 72.6486 7.6029 72.4115 7.87382C72.1745 8.14475 71.9374 8.47212 71.7003 8.85593C71.4633 9.22846 71.2432 9.61792 71.04 10.0243C70.8368 10.4307 70.6731 10.8089 70.5489 11.1588C70.4247 11.4975 70.3626 11.7684 70.3626 11.9716C70.3626 12.1409 70.4586 12.2256 70.6505 12.2256Z" fill="black"/>
</svg>
