<svg width="1720" height="290" viewBox="0 0 1720 290" fill="none" xmlns="http://www.w3.org/2000/svg">
<path d="M977.295 152.177C977.295 187.892 976.03 223.645 977.704 259.285C978.895 284.881 961.223 278.073 947.979 279.896C931.163 282.203 930.307 271.004 930.382 258.913C930.717 185.325 930.791 111.737 931.498 38.1495C931.572 30.0764 926.141 18.469 939.831 15.0463C959.028 10.2471 972.905 16.2368 979.118 31.6389C993.925 68.1725 1008.62 104.78 1023.46 141.277C1026.18 148.011 1029.49 154.484 1034.36 165.198C1038.68 135.92 1035.67 110.845 1035.78 85.8812C1035.85 67.354 1035.7 48.7524 1034.4 30.2624C1033.55 17.7249 1038.35 14.079 1050.25 14.3394C1084.89 15.0463 1081.91 7.30802 1082.02 45.2181C1082.25 114.49 1082.32 183.763 1082.32 252.998C1082.32 263.043 1085.78 274.948 1070.45 278.036C1048.95 282.389 1034.51 277.254 1028.11 262.224C1012.53 225.505 997.124 188.674 981.648 151.917C980.197 152.029 978.746 152.103 977.295 152.215V152.177Z" fill="white"/>
<path d="M62.0575 119.14C46.4321 126.804 40.2192 138.263 41.3353 156.195C43.4187 190.124 42.0794 224.276 44.1627 258.206C45.5765 281.123 30.5092 276.212 17.5252 277.849C2.16031 279.784 0.188542 272.008 0.225745 259.396C0.523371 181.455 0.783793 103.44 0.00252582 25.4996C-0.257897 -0.43099 19.683 11.3624 30.4348 8.23735C42.8978 4.62864 41.2237 16.4593 41.2981 24.1231C41.5213 41.9063 41.3725 59.6522 41.3725 81.5277C70.0934 62.8145 95.7264 46.073 121.434 29.4432C138.882 18.1334 157.446 26.0205 162.097 46.2962C163.697 53.3276 158.228 54.5926 154.433 57.0852C139.998 66.6836 125.675 76.4308 110.794 85.248C102.274 90.3076 100.563 95.1068 105.027 104.445C129.06 154.52 148.667 206.456 169.538 257.871C172.7 265.684 179.024 275.245 164.924 277.737C153.503 279.746 139.44 295.111 130.325 274.129C110.496 228.332 90.9272 182.423 71.2095 136.588C68.6052 130.487 67.7124 123.418 61.9831 119.14H62.0575Z" fill="white"/>
<path d="M1608.56 119.141C1593.04 125.838 1587.28 136.813 1588.06 154.075C1589.66 189.306 1588.06 224.649 1589.66 259.881C1590.59 280.603 1577.23 276.213 1565.4 277.776C1551.41 279.599 1546.8 274.651 1546.84 260.699C1547.06 182.089 1546.95 103.479 1546.24 24.8681C1546.02 0.425627 1565.22 11.5122 1575.71 8.2011C1587.84 4.36917 1587.76 15.4185 1587.95 23.3056C1588.32 41.2003 1588.06 59.1323 1588.06 81.0078C1612.72 65.0848 1634.75 50.8732 1656.77 36.6616C1660.94 33.9829 1665.03 31.2299 1669.2 28.5513C1685.05 18.3948 1704.84 27.6212 1707.93 46.3716C1709.01 52.9938 1704.13 54.7795 1700.11 57.4209C1686.68 66.2753 1673.55 75.6877 1659.6 83.5748C1648.92 89.6017 1646.65 95.3682 1652.31 107.05C1676.01 155.898 1695.2 206.717 1715.29 257.128C1718.38 264.903 1725.26 274.39 1711.35 277.627C1699.41 280.417 1685.01 294.963 1675.67 272.716C1656.62 227.254 1637.17 181.977 1617.67 136.701C1615.07 130.674 1614.18 123.605 1608.59 119.104L1608.56 119.141Z" fill="white"/>
<path d="M1412.91 270.781C1404.28 288.416 1389.17 278.073 1377.27 277.887C1367.11 277.738 1369.34 267.061 1369.3 260.029C1369.08 227.216 1368.71 194.403 1369.45 161.59C1369.75 149.015 1366.77 143.137 1353.12 145.109C1341.51 146.783 1326.45 139.64 1327.41 162.52C1328.83 195.891 1326.56 229.374 1327.41 262.783C1327.82 278.631 1319.79 280.082 1307.88 278.929C1296.57 277.813 1283.07 283.058 1283.33 261.815C1284.22 183.8 1284 105.785 1282.84 27.7698C1282.55 8.01492 1294.56 11.512 1305.84 11.0656C1317.37 10.6191 1328.75 9.50305 1328.01 27.1746C1327.15 47.5619 1328.31 68.0609 1327.49 88.4483C1326.78 106.678 1340.21 101.693 1349.33 102.139C1358.4 102.548 1369.94 105.153 1369.12 88.4855C1368.11 68.0981 1369.75 47.5991 1368.67 27.2118C1367.97 13.707 1373.21 8.68458 1385.64 11.2144C1394.79 13.0746 1406.88 4.51782 1412.83 18.3946C1410.3 83.3142 1412.46 148.271 1411.75 213.191C1412.35 232.387 1410.49 251.622 1412.83 270.818L1412.91 270.781Z" fill="white"/>
<path d="M1122.98 162.595C1120.86 129.223 1118.37 95.852 1123.54 62.5923C1130.91 15.3815 1162.12 -8.16815 1202.97 3.14162C1229.53 10.5079 1243.86 34.7644 1243.82 72.3768C1243.82 94.6243 1240.14 97.5262 1218 95.5544C1208.62 94.7359 1204.79 91.0528 1204.98 81.752C1205.16 71.1491 1203.12 60.7322 1198.24 51.3198C1190.99 37.257 1180.24 36.9221 1171.57 50.2409C1164.58 60.9926 1162.9 73.3069 1162.72 85.7327C1162.12 124.685 1161.56 163.636 1161.6 202.588C1161.6 211.74 1163.05 221.152 1165.62 229.97C1167.59 236.703 1170.38 244.479 1179.72 245.26C1189.65 246.079 1194.15 239.568 1197.43 231.83C1202.78 219.106 1204.9 205.453 1204.23 191.985C1203.53 177.662 1211.49 177.29 1221.53 177.885C1231.69 178.48 1244.79 172.937 1245.01 191.687C1245.27 213.563 1243.56 235.066 1234.11 254.97C1221.65 281.198 1193.85 294.145 1166.18 287.709C1138.35 281.236 1123.62 262.299 1123.09 231.234C1122.69 208.355 1123.02 185.475 1123.02 162.632L1122.98 162.595Z" fill="white"/>
<path d="M629.929 103.031C643.731 76.8771 655.636 54.1832 667.69 31.5264C670.592 26.0947 673.457 19.3238 681.344 22.114C691.091 25.5367 702.178 26.9132 709.246 35.2095C710.623 36.8093 707.386 42.985 705.489 46.6309C690.012 76.0958 674.722 105.635 658.538 134.728C652.623 145.405 649.87 156.157 649.721 168.174C649.312 199.052 647.638 229.931 648.01 260.81C648.196 277.328 639.267 278.258 626.804 278.37C614.117 278.481 605.375 277.216 606.044 260.735C607.161 232.349 606.156 203.889 606.789 175.503C607.161 157.682 602.659 141.462 594.4 125.911C579.965 98.7154 566.125 71.185 551.319 44.1755C540.678 24.7182 559.726 25.3879 567.762 18.9145C577.249 11.2507 583.388 14.1525 588.857 25.2019C601.282 50.4628 615.085 75.017 629.966 103.031H629.929Z" fill="white"/>
<path d="M393.987 146.113C393.987 108.351 394.508 70.5901 393.727 32.866C393.429 19.1752 397.373 12.9623 411.585 15.3805C415.23 16.0129 419.137 16.6082 422.671 15.9013C436.66 13.1111 439.189 19.5845 439.078 32.1963C438.52 93.47 439.227 154.744 438.482 216.017C438.296 230.155 441.496 236.144 456.675 234.917C472.672 233.652 488.893 235.363 504.965 234.47C522.487 233.466 521.52 244.515 521.185 256.234C520.888 267.432 523.194 278.965 505.188 278.482C474.235 277.663 443.207 277.477 412.291 278.668C395.662 279.3 392.425 271.822 392.611 257.573C393.132 220.445 392.797 183.316 392.797 146.187H393.913L393.987 146.113Z" fill="white"/>
<path d="M1458.26 145.406C1458.26 106.529 1458.63 67.6145 1458.03 28.7372C1457.85 16.6833 1461.09 11.4749 1473.77 13.7815C1479.8 14.8604 1486.09 14.5627 1492.26 14.4139C1500.45 14.2279 1502.79 18.3203 1502.75 25.9097C1502.42 105.562 1502.34 185.177 1502.05 264.829C1501.97 286.816 1484.78 276.473 1474.66 278.445C1464.25 280.454 1457.63 277.589 1457.96 264.01C1458.82 224.538 1458.26 184.991 1458.26 145.481V145.406Z" fill="white"/>
<path d="M1409.97 215.161C1409.97 157.385 1409.97 99.6455 1409.97 41.8689C1409.97 33.9447 1408.81 25.8344 1412.87 18.3565C1412.91 83.9458 1412.98 149.572 1413.02 215.161C1411.98 217.84 1410.94 217.84 1409.93 215.161H1409.97Z" fill="white"/>
<path d="M1409.97 215.163C1411.01 215.163 1412.01 215.163 1413.05 215.163C1413.02 233.69 1412.94 252.217 1412.91 270.782C1406.92 252.515 1411.34 233.69 1409.97 215.163Z" fill="white"/>
<path d="M352.877 264.383C352.729 263.788 352.617 263.156 352.468 262.56C336.136 184.024 322.594 104.93 303.583 26.9525C300.719 15.1591 293.762 11.5504 283.717 13.1129C272.258 14.8986 256.856 7.16038 251.834 26.4688C232.079 102.103 211.803 177.625 191.639 253.148C190.448 257.538 189.035 262.151 193.313 265.016C204.288 272.382 217.346 277.293 229.735 276.698C238.924 276.251 237.361 263.044 239.556 255.194C242.198 245.707 243.872 235.923 246.402 226.399C247.741 221.265 248.485 216.28 256.038 214.829C285.651 209.211 295.845 215.424 301.202 244.219C301.537 246.042 301.463 247.94 301.76 249.763C307.824 286.184 310.689 287.747 344.916 274.614C350.087 272.642 354.068 270.782 352.84 264.383H352.877ZM271.626 173.347C264.371 173.533 257.414 172.529 260.539 162.037C264.966 147.119 269.282 132.163 274.788 113.301C282.638 132.61 283.084 149.202 285.874 165.125C287.846 176.286 277.69 173.198 271.626 173.384V173.347Z" fill="white"/>
<path d="M889.68 263.266C889.568 262.261 889.568 260.401 889.196 258.578C873.645 181.902 860.066 104.817 841.688 28.6993C838.451 15.2317 831.085 11.809 819.478 12.9251C806.866 14.1156 793.138 9.80005 788.115 29.8526C769.997 102.622 749.982 174.945 730.487 247.343C727.288 259.248 729.074 266.614 742.504 271.004C771.374 280.416 771.188 281.086 778.033 251.546C779.298 246.152 781.084 240.795 781.642 235.326C783.353 218.77 791.649 214.232 808.465 214.046C827.513 213.86 837.372 218.584 837.335 238.525C837.335 242.692 839.456 246.859 840.274 251.1C846.971 286.443 849.352 287.671 882.351 274.687C887.894 272.492 890.759 270.074 889.606 263.266H889.68ZM818.361 172.862C811.739 174.499 804.41 174.685 798.607 170.964C793.993 167.988 798.123 163.189 799.202 159.32C803.48 144.104 807.87 128.925 812.186 113.709C813.041 113.709 813.897 113.783 814.753 113.82C817.32 129.408 820.11 144.922 822.379 160.547C823.012 165.012 825.244 171.15 818.324 172.862H818.361Z" fill="white"/>
</svg>
