<svg width="481" height="158" viewBox="0 0 481 158" fill="none" xmlns="http://www.w3.org/2000/svg">
<path d="M137.215 116.978H152.129V118.439C150.285 118.485 149.055 118.821 148.429 119.471C147.803 120.12 147.49 121.384 147.49 123.263V154.528H151.456C157.625 154.528 161.302 151.293 162.461 144.833H164.653L162.032 157.428H160.629C160.606 156.477 160.165 155.99 159.319 155.99H137.215V154.528C139.024 154.505 140.253 154.157 140.891 153.485C141.529 152.812 141.854 151.548 141.854 149.716V123.275C141.854 121.315 141.506 120.027 140.821 119.424C140.126 118.821 138.931 118.497 137.226 118.45V116.978H137.215Z" fill="white"/>
<path d="M190.282 115.458H191.72V127.113H189.494C189.447 124.063 188.577 121.86 186.873 120.491C185.168 119.134 182.559 118.45 179.068 118.45H176.749C176.528 120.665 176.412 122.648 176.412 124.399C176.412 127.878 177.085 130.441 178.442 132.088C179.799 133.735 181.979 134.558 184.982 134.558H187.974V136.692L176.749 136.994V154.528H179.984C186.815 154.528 190.734 151.269 191.732 144.764H193.9L191.395 157.323H189.865C189.841 156.43 189.459 155.978 188.705 155.978H166.474V154.517C168.306 154.493 169.535 154.157 170.161 153.484C170.788 152.823 171.112 151.559 171.112 149.692V123.286C171.112 121.291 170.765 119.992 170.057 119.389C169.35 118.786 168.155 118.473 166.474 118.427V116.966H188.253C189.563 116.977 190.247 116.467 190.282 115.458Z" fill="white"/>
<path d="M218.765 116.098C222.186 116.098 225.201 116.77 227.822 118.116C230.443 119.461 232.739 121.548 234.711 124.401C236.682 127.242 237.668 130.663 237.668 134.653C237.668 138.978 236.438 142.945 233.991 146.528C231.545 150.112 228.68 152.744 225.421 154.391C222.163 156.049 218.741 156.873 215.158 156.873C210.032 156.873 205.683 155.11 202.1 151.584C198.516 148.059 196.73 143.687 196.73 138.457C196.73 132.415 198.969 127.184 203.445 122.754C207.933 118.313 213.036 116.098 218.765 116.098ZM214.961 118.927C211.203 118.927 208.084 120.249 205.614 122.882C203.144 125.514 201.903 128.993 201.903 133.331C201.903 139.697 203.758 144.754 207.469 148.523C211.18 152.292 215.239 154.17 219.658 154.17C223.172 154.17 226.198 152.848 228.726 150.204C231.255 147.56 232.519 144.162 232.519 140.022C232.519 136.137 231.672 132.496 229.991 129.086C228.297 125.677 226.001 123.137 223.102 121.467C220.191 119.774 217.477 118.927 214.961 118.927Z" fill="white"/>
<path d="M242.735 116.978H252.744L274.94 146.793V137.724C274.94 131.903 274.5 127.287 273.607 123.866C272.714 120.445 271.299 118.636 269.362 118.439V116.978H282.687V118.439C278.964 118.787 277.109 124.898 277.109 136.774V157.393H275.694L249.357 121.837V133.178C249.357 140.357 249.798 145.645 250.679 149.055C251.561 152.464 252.999 154.285 254.993 154.528V155.99H241.727V154.528C245.449 153.96 247.305 146.956 247.305 133.515V122.996C247.305 121.187 246.957 119.993 246.249 119.401C245.542 118.81 244.371 118.497 242.724 118.45V116.978H242.735Z" fill="white"/>
<path d="M301.183 115.366H302.981L313.766 146.539C314.555 148.858 315.424 150.749 316.375 152.221C317.326 153.694 318.474 154.46 319.831 154.518V155.979H308.861V154.518H309.591C309.951 154.518 310.125 154.181 310.125 153.509C310.125 153.311 310.078 153.08 310.009 152.836L306.367 142.225H292.996C291.616 146.168 290.92 149.102 290.92 151.038C290.92 152.059 291.256 152.894 291.917 153.543C292.578 154.193 293.448 154.518 294.527 154.518H296.139V155.979H282.478V154.518C284.751 154.39 286.826 151.966 288.694 147.223L301.183 115.366ZM300.14 124.11L293.75 140.346H305.718L300.14 124.11Z" fill="white"/>
<path d="M321.641 116.978H341.042C343.93 116.978 346.087 117.534 347.525 118.659C348.963 119.772 349.67 121.454 349.67 123.692C349.67 126.197 348.859 128.528 347.247 130.697C345.635 132.865 343.211 134.872 339.975 136.716L346.771 147.234C349.821 151.954 352.639 154.378 355.214 154.528V155.99H347.896C346.435 155.99 345.136 155.12 343.988 153.369L331.916 134.582V149.704C331.916 152.824 333.481 154.424 336.612 154.528V155.99H321.641V154.528C323.473 154.505 324.702 154.157 325.328 153.485C325.955 152.812 326.279 151.548 326.279 149.716V123.275C326.279 121.303 325.931 120.016 325.247 119.413C324.551 118.81 323.357 118.497 321.652 118.45V116.978H321.641ZM331.916 119.97V132.668C334.293 134.396 336.334 135.254 338.05 135.254C339.836 135.254 341.181 134.651 342.074 133.445C342.967 132.239 343.42 130.442 343.42 128.041C343.42 125.119 342.759 122.788 341.437 121.06C340.115 119.32 338.514 118.462 336.612 118.462C334.942 118.439 333.377 118.949 331.916 119.97Z" fill="white"/>
<path d="M358.021 116.978H381.991C387.361 116.978 391.373 118.253 394.052 120.816C396.731 123.379 398.065 127.229 398.065 132.378C398.065 138.931 395.896 144.497 391.559 149.089C387.222 153.682 381.365 155.978 374.013 155.978H358.032V154.517C359.864 154.494 361.094 154.146 361.72 153.473C362.346 152.801 362.671 151.536 362.671 149.704V123.263C362.671 121.292 362.323 120.004 361.639 119.401C360.955 118.798 359.748 118.485 358.044 118.439V116.978H358.021ZM368.295 120.7V151.142C371.543 153.032 374.72 153.972 377.805 153.972C382.154 153.972 385.668 152.337 388.323 149.066C390.979 145.796 392.324 141.551 392.324 136.333C392.324 131.091 391.165 126.789 388.834 123.414C386.503 120.039 382.606 118.358 377.144 118.358C373.584 118.358 370.638 119.135 368.295 120.7Z" fill="white"/>
<path d="M415.136 118.44C413.304 118.486 412.075 118.834 411.449 119.495C410.822 120.156 410.498 121.409 410.498 123.264V149.705C410.498 152.825 412.04 154.425 415.136 154.53V155.991H400.223V154.53C402.055 154.506 403.284 154.158 403.911 153.486C404.537 152.813 404.861 151.549 404.861 149.717V123.276C404.861 121.304 404.514 120.017 403.829 119.414C403.134 118.811 401.939 118.498 400.234 118.451V116.99H415.148V118.44H415.136Z" fill="white"/>
<path d="M417.548 115.609H418.893C419.16 116.526 419.554 116.978 420.087 116.978H446.737C447.433 116.978 447.769 116.526 447.769 115.609H449.231V127.195H447.062C447.004 121.361 443.908 118.439 437.784 118.439H436.138V149.704C436.138 152.836 437.68 154.448 440.776 154.529V155.99H425.863V154.529C427.695 154.506 428.924 154.158 429.551 153.485C430.177 152.812 430.49 151.548 430.49 149.716V118.451H428.391C422.755 118.451 419.856 121.373 419.67 127.206H417.536V115.609H417.548Z" fill="white"/>
<path d="M475.185 115.458H476.623V127.113H474.396C474.35 124.063 473.48 121.86 471.775 120.491C470.07 119.134 467.461 118.45 463.97 118.45H461.651C461.431 120.665 461.315 122.648 461.315 124.399C461.315 127.878 461.987 130.441 463.344 132.088C464.701 133.735 466.881 134.558 469.885 134.558H472.877V136.692L461.651 136.994V154.528H464.886C471.717 154.528 475.637 151.269 476.634 144.764H478.803L476.298 157.323H474.767C474.744 156.43 474.361 155.978 473.607 155.978H451.376V154.517C453.208 154.493 454.438 154.157 455.064 153.484C455.69 152.823 456.015 151.559 456.015 149.692V123.286C456.015 121.291 455.667 119.992 454.959 119.389C454.252 118.786 453.058 118.473 451.376 118.427V116.966H473.155C474.466 116.977 475.15 116.467 475.185 115.458Z" fill="white"/>
<path d="M477.794 104.755H137.122C137.11 104.766 137.099 104.778 137.087 104.79C135.742 106.344 134.443 107.851 133.202 109.394H477.794C479.07 109.394 480.114 108.35 480.114 107.074C480.114 105.799 479.07 104.755 477.794 104.755Z" fill="white"/>
<path d="M0 107.074C0 108.35 1.04373 109.394 2.31939 109.394H118.312C118.857 107.759 119.507 106.216 120.249 104.755H2.31939C1.04373 104.755 0 105.787 0 107.074Z" fill="white"/>
<path d="M131.823 143.245C126.941 138.803 123.23 132.436 121.676 126.046C121.386 124.84 121.49 123.089 121.432 123.089C121.432 123.089 121.432 123.089 121.421 123.101C121.305 123.704 121.2 124.307 121.107 124.921C121.305 123.681 121.386 123.17 121.421 123.101C121.548 122.451 121.699 121.802 121.873 121.152C122.87 117.569 124.552 114.206 126.639 111.133C127.045 110.541 127.474 109.961 127.903 109.393C129.075 107.793 130.315 106.262 131.58 104.754C135.72 99.8605 140.138 95.2333 143.304 89.4464C149.323 78.4293 152.744 60.5352 148.291 48.0801C148.789 51.3504 147.317 54.5048 148.291 57.2301C148.836 58.7493 149.358 62.0196 149.091 63.736C148.662 66.5192 147.954 69.2677 147.038 71.935C144.557 79.1019 140.474 85.631 135.627 91.4295C131.904 95.8827 127.926 99.9301 125.039 104.754C124.157 106.216 123.392 107.758 122.754 109.393C122.43 110.24 122.128 111.098 121.873 112.003C118.092 125.571 121.212 142.746 131.811 152.395C130.339 151.049 133.377 144.66 131.823 143.245Z" fill="white"/>
<path d="M18.3109 116.352H20.0504L30.4761 146.504C31.2415 148.742 32.088 150.574 33.0042 152.001C33.9204 153.427 35.0337 154.169 36.3557 154.227V155.642H25.7445V154.227H26.4519C26.7998 154.227 26.9622 153.903 26.9622 153.253C26.9622 153.056 26.9274 152.836 26.8462 152.604L23.3207 142.34H10.3785C9.04489 146.156 8.37227 148.997 8.37227 150.864C8.37227 151.85 8.68538 152.65 9.33481 153.288C9.97265 153.914 10.8192 154.227 11.8629 154.227H13.4285V155.642H0.208008V154.227C2.41143 154.111 4.4177 151.757 6.22683 147.176L18.3109 116.352ZM17.2903 124.806L11.1091 140.508H22.6829L17.2903 124.806Z" fill="white"/>
<path d="M57.3587 116.351H59.0983L69.5239 146.503C70.2893 148.742 71.1359 150.574 72.0521 152C72.9682 153.427 74.0815 154.169 75.4036 154.227V155.642H64.7924V154.227H65.4998C65.8477 154.227 66.01 153.902 66.01 153.253C66.01 153.056 65.9752 152.835 65.8941 152.604L62.3686 142.34H49.438C48.1043 146.156 47.4317 148.997 47.4317 150.864C47.4317 151.85 47.7448 152.65 48.3943 153.288C49.0321 153.914 49.8787 154.227 50.9224 154.227H52.488V155.642H39.2559V154.227C41.4593 154.111 43.4656 151.757 45.2747 147.176L57.3587 116.351ZM56.3498 124.806L50.1686 140.508H61.7424L56.3498 124.806Z" fill="white"/>
<path d="M80.958 116.585H82.3149C82.3497 117.466 82.7324 117.907 83.4398 117.907H109.869V119.647L85.5041 154.217H94.3873C99.3972 154.217 103.062 153.51 105.381 152.083C107.689 150.657 109.185 148.221 109.881 144.777H112.003L109.579 156.931H108.165C108.13 156.061 107.886 155.632 107.457 155.632H79.1953V153.915L103.479 119.31H94.7352C90.5603 119.31 87.5915 119.96 85.8288 121.27C84.066 122.581 83.1151 124.749 82.9759 127.776H80.9696V116.585H80.958Z" fill="white"/>
<path d="M132.101 86.9077C124.853 84.1709 118.753 78.1057 115.807 70.6024C114.369 66.845 113.639 62.8093 113.604 58.7851C113.523 54.761 114.103 50.76 115.019 46.8866C115.471 44.9383 116.063 43.0481 116.654 41.1462C117.315 39.2791 118.011 37.3771 118.649 35.684C119.89 32.1933 120.782 28.5983 121.072 25.0148C121.351 21.4429 121.038 17.8826 119.936 14.5891C118.834 11.2724 116.955 8.31518 114.555 5.52032L109.835 0.000152588L117.013 1.32222C125.236 2.84142 133.214 6.34369 139.732 11.7827C146.191 17.2796 150.958 24.6205 153.59 32.4832C156.281 40.3576 157.255 48.5798 157.011 56.7441C156.791 60.8262 156.234 64.8967 155.075 68.8049C153.915 72.6899 152.303 76.5053 149.775 79.648C150.819 77.9433 151.572 76.0762 152.187 74.1975C152.802 72.3188 153.3 70.4053 153.637 68.457C154.356 64.5836 154.553 60.6406 154.402 56.7209C154.286 52.8011 153.741 48.9045 152.976 45.0659C152.21 41.2389 151.167 37.4815 149.728 33.9096C146.876 26.7659 142.492 20.2948 136.566 15.6096C130.721 10.8201 123.543 7.81651 116.051 6.39009L118.509 2.20357C121.107 5.27676 123.438 8.9646 124.714 13.0119C125.375 15.0298 125.781 17.1289 125.966 19.2163C126.152 21.3154 126.082 23.4144 125.862 25.4671C125.398 29.5724 124.273 33.5037 122.824 37.238L120.609 42.561C119.959 44.3121 119.31 46.0749 118.811 47.8724C117.767 51.4558 117.083 55.1321 116.863 58.8199C116.631 62.5193 117.083 66.2304 118.104 69.7906C120.214 76.8996 125.329 83.1851 132.101 86.9077Z" fill="white"/>
<path d="M174.198 56.7205C170.696 58.1585 167.542 60.3504 165.315 63.2496C163.077 66.1604 161.673 69.5815 160.467 73.1186C159.238 76.6557 158.09 80.3087 156.513 83.869C154.959 87.4408 152.837 90.8619 150.239 93.8887L149.218 90.6184C149.926 90.7344 150.888 90.8155 151.747 90.8387C152.628 90.8735 153.521 90.8387 154.414 90.7692C156.188 90.6184 157.951 90.3285 159.667 89.8646C163.1 88.9484 166.324 87.3249 169.13 85.1562C174.79 80.819 178.814 74.4755 181.527 67.6332C182.235 65.9285 182.792 64.1541 183.395 62.403L185.007 56.8828C186.201 53.0674 187.697 49.2868 189.773 45.7614C191.826 42.2359 194.493 38.9539 197.81 36.3678C199.468 35.069 201.277 33.9557 203.225 33.0975C204.2 32.6684 205.208 32.3089 206.252 32.019C206.774 31.8798 207.308 31.7638 207.853 31.6711C208.421 31.5783 208.885 31.5087 209.639 31.4739L208.166 35.0574C207.969 34.8487 207.563 34.4775 207.215 34.1992C206.844 33.9093 206.461 33.6194 206.043 33.3526C205.232 32.8192 204.373 32.3321 203.469 31.9262C201.671 31.1028 199.735 30.5346 197.752 30.1983C193.762 29.4909 189.564 29.8272 185.494 30.7665C181.423 31.7523 177.411 33.2831 173.607 35.243C169.78 37.1796 166.104 39.4527 162.52 41.9112C165.732 38.9888 169.154 36.2751 172.841 33.9093C176.529 31.5435 180.519 29.572 184.775 28.1804C189.042 26.8815 193.623 26.1393 198.239 26.6496C200.535 26.9163 202.819 27.4614 205.011 28.3311C206.101 28.7602 207.168 29.2937 208.2 29.8967C208.722 30.1983 209.221 30.523 209.72 30.8825C210.23 31.2652 210.659 31.5783 211.239 32.1234L214.405 35.1502L209.766 35.6952C209.557 35.7184 209.07 35.788 208.688 35.8808C208.282 35.9736 207.887 36.0895 207.481 36.2171C206.67 36.4722 205.881 36.7853 205.104 37.1564C203.55 37.8987 202.089 38.8612 200.755 39.9861C198.053 42.2243 195.885 45.1119 194.11 48.2547C192.313 51.3859 190.979 54.8302 189.912 58.3557L188.347 63.9338C187.743 65.8357 187.094 67.7144 186.317 69.5699C184.798 73.2693 182.931 76.876 180.588 80.216C179.428 81.8975 178.106 83.4747 176.715 84.9823C175.277 86.4551 173.723 87.8351 172.03 89.0412C168.666 91.4766 164.816 93.2625 160.781 94.2135C158.763 94.7005 156.698 94.9673 154.634 95.0253C153.602 95.0484 152.57 95.0368 151.526 94.9441C150.459 94.8513 149.508 94.7469 148.325 94.4802L144.904 93.7032L147.305 91.2098C149.787 88.6353 151.804 85.6433 153.532 82.4078C155.272 79.1838 156.617 75.6815 158.171 72.1908C159.748 68.7234 161.523 65.1515 164.271 62.3218C165.64 60.9186 167.194 59.7125 168.887 58.7848C170.58 57.8802 172.377 57.2192 174.198 56.7205Z" fill="white"/>
<path d="M434.665 4.34961H477.678V46.8988L460.897 70.3247H477.678V99.491H434.665V56.8258L450.611 34.0494H434.665C434.665 34.0494 434.665 4.44239 434.665 4.34961Z" fill="white"/>
<path d="M352.652 4.34961L289.02 99.491H323.416L335.918 80.9127H343.85L331.569 99.491H366.151L378.652 80.9127H398.008V99.491H427.058V4.34961H352.652ZM342.795 70.6958L380.763 14.2766H387.884L350.588 70.6958H342.795ZM385.529 70.6958L398.019 52.1407V70.6958H385.529Z" fill="white"/>
</svg>
