<svg width="543" height="490" viewBox="0 0 543 490" fill="none" xmlns="http://www.w3.org/2000/svg">
<path d="M542.163 135.704C542.186 131.207 541.865 126.762 541.114 122.317C536.528 95.0763 526.161 70.5656 507.897 49.4984C492.51 31.7519 473.977 18.6911 451.991 10.6469C420.55 -0.85507 388.391 -3.17908 355.708 4.36449C326.827 11.0295 302.135 25.1813 281.845 46.8532C278.732 50.1786 275.898 53.7638 272.942 57.2309C272.247 58.0433 271.879 58.5393 270.967 57.1742C269.371 54.7793 267.378 52.6443 265.545 50.41C249.072 30.3253 228.106 16.7923 203.627 8.68657C177.745 0.113264 151.206 -2.0218 124.228 2.07355C105.459 4.92188 87.8092 11.0767 71.4582 20.7459C54.1625 30.9725 39.3984 43.9859 27.7467 60.4996C23.2032 66.9379 19.0139 73.5603 15.5472 80.5985C1.15621 109.814 -2.71193 140.682 1.75603 172.704C3.33352 184.003 6.24289 195.023 10.6447 205.618C16.5202 219.765 24.4831 232.547 34.9352 243.765C39.9227 249.117 45.4108 253.916 51.0784 258.527C83.6435 281.752 118.981 290.264 158.22 278.819C151.485 288.257 144.731 297.709 137.991 307.175C114.806 339.739 91.6302 372.313 68.4449 404.877C67.7648 405.836 67.1319 407.362 66.2629 407.532C64.7232 407.834 65.0727 408.685 65.0727 409.54C65.0585 435.671 65.0727 461.797 65.0113 487.928C65.0113 489.671 65.5875 489.978 67.1508 489.968C79.8982 489.916 92.6456 489.916 105.393 489.987C107.084 489.996 107.75 489.689 107.665 487.824C107.504 484.371 107.523 480.894 107.665 477.436C107.736 475.722 107.348 475.169 105.511 475.198C98.1148 475.316 90.7186 475.202 83.3224 475.283C81.7071 475.301 81.2018 474.876 81.2065 473.195C81.2632 452.024 81.2632 430.852 81.2065 409.681C81.2065 408.075 81.7213 407.759 83.2138 407.768C94.3884 407.825 105.563 407.839 116.738 407.749C118.547 407.735 118.929 408.283 118.915 409.998C118.835 419.913 118.877 429.832 118.877 439.747C118.877 455.722 118.906 471.702 118.816 487.677C118.806 489.557 119.307 490.053 121.144 489.992C125.466 489.85 129.802 489.86 134.128 489.954C135.611 489.987 135.989 489.538 135.984 488.102C135.923 476.69 135.941 465.278 135.932 453.866C135.923 439.147 135.941 424.433 135.885 409.714C135.88 408.208 136.253 407.669 137.831 407.749C140.419 407.886 143.026 407.853 145.619 407.768C146.894 407.726 147.272 408.198 147.206 409.407C147.125 410.9 147.187 412.397 147.187 413.89C147.187 438.443 147.201 463.001 147.13 487.554C147.125 489.519 147.636 490.077 149.6 489.992C153.45 489.826 157.313 489.841 161.167 489.978C162.933 490.039 163.42 489.557 163.401 487.767C163.307 478.008 163.401 468.249 163.311 458.49C163.297 456.785 163.788 456.421 165.408 456.44C172.568 456.525 179.733 456.383 186.889 456.53C188.797 456.568 189.042 455.921 188.99 454.3C188.877 450.762 188.853 447.215 188.99 443.677C189.052 442.066 188.518 441.773 187.044 441.788C179.884 441.858 172.719 441.721 165.564 441.873C163.571 441.915 163.264 441.211 163.292 439.511C163.377 434.556 163.406 429.591 163.292 424.636C163.255 422.865 163.656 422.218 165.574 422.246C172.89 422.359 180.21 422.222 187.526 422.331C189.354 422.359 189.784 421.797 189.713 420.069C189.576 416.611 189.6 413.144 189.699 409.681C189.741 408.179 189.406 407.612 187.762 407.66C183.436 407.782 179.105 407.702 174.779 407.702C169.782 407.702 164.78 407.702 159.438 407.702C159.925 406.937 160.194 406.493 160.492 406.063C174.424 385.695 188.362 365.336 202.286 344.968C216.119 324.728 229.943 304.487 243.749 284.228C249.582 275.668 255.344 267.062 261.139 258.475C264.823 253.307 268.124 247.889 271.359 242.433C273.216 239.302 273.584 239.221 276.163 241.918C278.869 244.753 281.556 247.601 284.409 250.303C287.489 253.217 290.856 255.759 294.082 258.479C326.642 281.856 362.032 290.208 401.101 278.857C370.68 321.572 340.131 364.472 309.351 407.702H325.943C318.353 409.459 312.039 413.219 307.094 419.303C306.702 418.85 306.485 418.628 306.296 418.377C296.769 405.879 274.411 403.527 261.436 415.387C253.28 422.841 250.64 432.373 252.222 443.049C253.899 454.381 262.546 462.722 273.612 464.617C277.022 465.198 280.215 464.73 283.875 463.87C277.514 472.727 271.402 481.244 265.286 489.76C265.409 489.836 265.465 489.902 265.522 489.902C269.376 489.911 283.521 489.935 283.521 489.935C283.521 489.935 286.898 486.449 288.353 484.13C294.351 474.569 301.034 465.439 307.495 456.048C310.74 459.539 314.462 462.179 318.977 463.62C323.525 465.065 328.111 465.481 333.212 463.823C326.826 472.732 320.791 481.163 314.504 489.935C320.819 489.935 326.553 489.902 332.282 489.963C333.439 489.978 333.93 489.364 334.483 488.551C339.588 481.097 344.731 473.667 349.842 466.218C353.927 460.266 358.324 454.499 360.601 447.503C366.046 430.767 357.71 414.074 341.411 409.02C340.245 408.656 338.908 408.751 337.647 407.773C358.546 407.773 379.162 407.745 399.778 407.825C401.667 407.834 402.73 407.235 403.755 405.718C412.237 393.168 420.805 380.669 429.339 368.152C454.277 331.577 479.21 295.002 504.147 258.427C509.413 250.435 514.472 242.325 519.133 233.954C526.733 220.308 533.08 206.161 537.241 191.078C539.962 181.216 542.281 171.301 542.139 160.951C542.026 152.534 542.125 144.117 542.167 135.699L542.163 135.704ZM79.2842 138.717C80.2477 100.541 112.024 70.2585 150.786 70.9812C191.149 71.737 221.447 102.195 220.696 141.264C221.078 185.018 187.186 212.835 148.58 212.476C108.52 212.103 78.231 180.559 79.2842 138.717ZM282.855 450.2C274.883 450.134 268.847 443.923 268.847 435.779C268.847 428.051 274.996 421.972 282.851 421.958C291.135 421.939 296.987 427.735 297.02 435.982C297.053 444.031 290.847 450.266 282.86 450.196L282.855 450.2ZM347.948 435.93C347.948 444.06 341.756 450.229 333.637 450.196C325.915 450.162 319.728 443.847 319.704 435.982C319.681 428.042 325.882 421.944 333.968 421.953C341.954 421.963 347.948 427.957 347.948 435.935V435.93ZM333.236 103.456C344.089 86.0826 360.133 75.7662 380.272 72.1432C397.587 69.0304 414.051 71.8173 429.552 80.2395C430.652 80.8346 431.441 82.1714 432.967 81.9069V81.9116C433.5 83.4657 435.106 83.7727 436.221 84.6088C454.442 98.3025 463.35 116.748 463.987 139.313C464.299 150.408 462.698 161.287 458.126 171.48C452.567 183.889 444.023 193.842 432.485 201.144C426.402 204.994 419.917 207.927 412.969 209.789C398.588 213.638 384.315 213.572 370.042 208.943C361.611 206.208 354.031 202.07 347.315 196.388C338.015 188.528 331.054 178.882 327.119 167.347C319.563 145.189 320.668 123.578 333.24 103.451L333.236 103.456Z" fill="#FEFDFC"/>
<path d="M248.977 409.124C248.996 407.995 248.637 407.674 247.523 407.679C231.55 407.717 215.572 407.721 199.598 407.679C198.333 407.679 198.016 408.076 198.04 409.266C198.111 413.04 198.134 416.824 198.068 420.598C198.045 421.911 198.37 422.336 199.768 422.308C204.331 422.209 208.898 422.383 213.456 422.237C215.194 422.18 215.515 422.738 215.505 424.325C215.444 434.873 215.472 445.416 215.472 455.963H215.411C215.411 466.667 215.435 477.371 215.378 488.074C215.368 489.496 215.718 490.006 217.206 489.969C221.216 489.874 225.235 489.817 229.245 489.987C231.328 490.077 231.857 489.496 231.847 487.389C231.748 466.374 231.79 445.364 231.72 424.348C231.715 422.738 232.064 422.18 233.75 422.228C238.233 422.35 242.719 422.261 247.206 422.331C248.439 422.35 249.029 422.157 248.987 420.692C248.878 416.838 248.916 412.979 248.977 409.124Z" fill="#FEFDFC"/>
</svg>
