<svg width="1595" height="357" viewBox="0 0 1595 357" fill="none" xmlns="http://www.w3.org/2000/svg">
<path d="M456.875 282.199C389.596 341.716 312.27 365.43 223.43 354.104V283.392C219.038 287.082 215.637 289.984 212.197 292.839C175.909 322.98 134.489 342.262 88.3177 351.584C67.0848 355.874 45.6413 357.473 24.0339 356.881C17.1617 356.693 10.3129 355.866 3.44846 355.297C1.58415 355.141 0.421875 354.478 0.421875 352.169C0.49988 312.777 0.49988 273.384 0.523281 234C0.523281 233.758 0.679291 233.524 0.913306 232.845C3.32366 233.141 5.82761 233.617 8.34717 233.727C39.4243 234.998 70.2284 234.265 98.9342 220.021C114.176 212.462 127.398 201.908 140.441 191.159C158.429 176.331 177.001 162.477 198.344 152.664C220.653 142.398 243.969 135.682 268.174 131.891C287.332 128.888 306.622 127.663 326.014 128.03C331.989 128.139 337.957 128.638 343.924 128.74C346.514 128.787 346.919 130.214 346.943 132.234C347.021 139.255 347.13 146.275 347.177 153.296C347.286 170.714 347.364 188.133 347.481 205.559C347.489 207.057 347.668 208.547 347.816 210.824C353.308 205.816 358.066 201.276 363.043 196.986C400.431 164.669 443.396 143.311 491.603 132.866C503.319 130.331 515.503 129.45 527.524 128.989C544.389 128.35 561.3 128.81 578.196 128.81C578.812 128.81 579.436 128.943 580.248 129.028V355.398C578.734 355.398 577.354 355.398 575.981 355.398C537.758 355.375 499.536 355.297 461.314 355.414C457.624 355.422 456.781 354.291 456.805 350.788C456.953 329.602 456.883 308.408 456.883 287.214V282.222L456.875 282.199Z" fill="white"/>
<path d="M549.356 99.722C521.227 99.5894 499.503 77.3346 499.651 48.7926C499.791 21.7328 522.506 -0.132008 550.354 0.00060002C577.586 0.125408 600.074 22.934 599.817 50.1733C599.56 77.7948 577.094 99.8468 549.356 99.7142V99.722Z" fill="white"/>
<path d="M365.349 50.0091C365.279 77.8568 343.118 99.823 315.184 99.7216C287.305 99.6202 265.331 77.4278 265.487 49.541C265.643 21.7245 287.789 -0.0700352 315.839 0.000169127C343.367 0.0703735 365.411 22.3408 365.349 50.0091Z" fill="white"/>
<path d="M772.994 204.2V162.333C772.815 162.287 772.636 162.24 772.456 162.194C771.76 164.202 771.03 166.198 770.367 168.22C766.779 179.256 763.138 190.278 759.682 201.36C758.926 203.795 757.792 204.626 755.258 204.533C749.627 204.333 743.982 204.347 738.351 204.533C736.017 204.606 735.108 203.741 734.431 201.606C730.591 189.486 726.598 177.42 722.652 165.333C722.36 164.442 722.015 163.564 721.126 162.806V204.247C719.263 204.327 717.657 204.453 716.052 204.46C710.965 204.486 705.878 204.34 700.797 204.52C698.264 204.606 697.58 203.695 697.627 201.274C697.76 194.402 697.673 187.531 697.673 180.653C697.673 151.284 697.733 121.903 697.594 92.5282C697.58 89.0892 698.555 88.1579 701.878 88.3375C707.171 88.6169 712.491 88.5304 717.79 88.3575C720.171 88.2776 721.226 89.036 721.975 91.3641C729.809 115.783 737.768 140.162 745.694 164.555C746.012 165.546 746.403 166.511 747.034 168.234C747.677 166.398 748.081 165.3 748.44 164.189C756.253 140.109 764.113 116.049 771.8 91.9295C772.715 89.0626 774.015 88.2244 776.92 88.3375C783.188 88.577 789.476 88.4107 796.016 88.4107V204.2H772.994Z" fill="white"/>
<path d="M1184.83 137.467V204.258H1161.86V88.4353C1169.22 88.4353 1176.49 88.3422 1183.74 88.5551C1184.59 88.5817 1185.65 90.1515 1186.18 91.2225C1196.34 111.73 1206.43 132.265 1216.54 152.799C1217.03 153.79 1217.52 154.781 1218.55 155.739V88.6016H1241.67V204.471C1238.26 204.471 1234.78 204.511 1231.31 204.458C1227.13 204.398 1222.14 205.629 1219.03 203.746C1216.06 201.95 1215.01 196.908 1213.2 193.243C1204.63 175.901 1196.09 158.54 1187.53 141.185C1186.9 139.908 1186.26 138.631 1185.61 137.353C1185.35 137.387 1185.08 137.427 1184.82 137.46L1184.83 137.467Z" fill="white"/>
<path d="M1506.26 354.103C1498.88 354.103 1491.71 354.21 1484.56 353.977C1483.61 353.944 1482.39 352.374 1481.83 351.243C1471.7 330.848 1461.64 310.414 1451.57 289.986C1451.09 289.014 1450.59 288.057 1449.54 287.165V353.87H1426.31V238.081C1433.71 238.081 1440.97 237.988 1448.22 238.201C1449.08 238.227 1450.14 239.784 1450.67 240.848C1460.88 261.456 1471.02 282.096 1481.18 302.731C1481.63 303.662 1482.14 304.567 1483.19 305.312V238.36H1506.27V354.117L1506.26 354.103Z" fill="white"/>
<path d="M1260.37 320.848C1266.66 331.358 1273.23 342.347 1280.16 353.922C1278.61 354.008 1277.59 354.115 1276.57 354.115C1271.16 354.128 1265.73 353.962 1260.33 354.194C1257.72 354.308 1256.38 353.303 1255.13 351.148C1250.09 342.44 1244.84 333.853 1239.77 325.152C1238.8 323.496 1237.72 322.857 1235.83 322.944C1232.66 323.083 1229.48 322.984 1225.96 322.984V353.915H1202.95V238.498C1203.23 238.352 1203.42 238.165 1203.61 238.165C1219.62 238.292 1235.66 237.866 1251.63 238.771C1262.01 239.356 1269.39 246.061 1274.66 254.842C1284.28 270.853 1283.06 295.724 1271.61 310.372C1268.61 314.203 1264.45 317.11 1260.37 320.848H1260.37ZM1226.05 299.649C1232.67 299.649 1238.94 299.635 1245.21 299.649C1250.4 299.662 1253.81 296.922 1255.58 292.332C1258.62 284.502 1258.57 276.513 1255.55 268.678C1253.77 264.048 1250.35 261.394 1245.15 261.447C1239.96 261.5 1234.78 261.447 1229.59 261.46C1228.43 261.46 1227.26 261.573 1226.04 261.64V299.642L1226.05 299.649Z" fill="white"/>
<path d="M960.437 354.113C952.63 354.113 945.686 354.22 938.748 354C937.687 353.967 936.347 352.637 935.697 351.566C930.404 342.878 925.204 334.131 920.064 325.351C919.069 323.648 917.988 322.796 915.905 322.929C912.841 323.129 909.75 322.982 906.288 322.982V353.854H883.054V238.058H886.695C898.852 238.058 911.004 238.058 923.161 238.058C942.383 238.058 955.038 247.896 959.574 266.747C962.619 279.386 961.776 291.812 956.139 303.679C952.71 310.889 947.344 316.324 940.081 320.076C946.793 331.297 953.413 342.366 960.437 354.113ZM906.301 299.648C912.788 299.648 918.949 299.608 925.111 299.661C930.265 299.701 933.787 297.213 935.631 292.563C938.827 284.508 938.748 276.353 935.531 268.297C934.238 265.064 932.016 262.131 928.487 261.931C921.158 261.519 913.783 261.805 906.301 261.805V299.648Z" fill="white"/>
<path d="M873.242 296.225C873.321 310.34 870.555 323.717 862.676 335.671C843.408 364.913 801.164 363.196 784.616 331.653C772.074 307.746 772.472 282.675 785.531 258.801C794.373 242.637 809.004 235.061 827.363 236.005C845.112 236.923 857.701 246.296 865.839 261.881C871.444 272.624 873.361 284.212 873.242 296.218V296.225ZM849.948 296.105C850.014 286.759 848.323 277.859 843.434 269.73C834.892 255.522 814.151 255.236 806.146 269.73C796.648 286.919 796.595 304.819 805.96 322.068C814.125 337.108 835.19 336.748 843.759 321.908C848.376 313.919 850.04 305.232 849.948 296.105Z" fill="white"/>
<path d="M1099.73 206.646C1085.5 206.247 1071.69 198.238 1063.63 182.44C1051.27 158.207 1051.28 133.289 1064.27 109.283C1073.03 93.1117 1087.65 85.4354 1106.03 86.3401C1123.92 87.2182 1136.63 96.6572 1144.73 112.396C1151.13 124.835 1152.73 138.238 1151.93 152.054C1151.24 163.961 1148.38 175.17 1141.93 185.34C1133.33 198.93 1119.41 206.66 1099.72 206.646H1099.73ZM1128.8 147.192C1128.72 137.074 1127.15 128.254 1122.35 120.212C1113.67 105.677 1092.75 105.584 1084.72 120.518C1075.54 137.566 1075.54 155.221 1084.69 172.276C1092.77 187.349 1113.89 187.163 1122.49 172.402C1127.22 164.314 1128.76 155.487 1128.8 147.198V147.192Z" fill="white"/>
<path d="M1543.22 284.509H1589.84V307.771H1543.27V330.594H1594.48V353.915H1520.05V238.252H1593.22V261.467H1543.22V284.509H1543.22Z" fill="white"/>
<path d="M931.25 168.83H953.927C954.564 180.704 960.301 184.276 975.576 183.065C978.952 182.799 982.448 181.336 985.459 179.653C989.956 177.132 990.526 173.014 987.17 169.063C985.558 167.167 983.522 165.405 981.327 164.274C973.474 160.243 965.309 156.804 957.582 152.566C951.526 149.247 945.265 145.795 940.271 141.132C926.647 128.42 928.02 106.675 942.512 94.9144C958.975 81.5574 992.748 82.196 1007.51 105.717C1010.74 110.866 1012.5 116.506 1012.37 122.932H989.79C984.842 111.025 971.961 106.056 959.81 111.411C953.33 114.265 952.103 122.008 957.907 125.985C962.609 129.205 967.922 131.54 973.009 134.181C980.736 138.192 988.822 141.624 996.184 146.221C1006.68 152.766 1012.65 162.371 1012.4 175.223C1012.2 185.374 1007.49 193.216 999.248 198.531C982.872 209.094 965.541 209.786 948.263 201.105C936.642 195.265 929.552 180.897 931.25 168.837V168.83Z" fill="white"/>
<path d="M865.817 168.837C865.983 169.276 866.155 169.569 866.195 169.881C867.495 179.686 870.891 182.839 880.794 183.325C886.385 183.598 891.844 183.119 896.785 180.125C901.812 177.079 902.675 172.449 898.443 168.352C895.797 165.791 892.5 163.755 889.21 162.039C879.135 156.791 868.669 152.254 858.846 146.593C850.323 141.684 844.427 134.227 843.2 123.95C841.429 109.183 848.055 97.0697 861.34 90.5376C878.605 82.0497 901.414 85.8879 914.68 99.6108C920.828 105.97 924.237 113.553 924.29 122.866H901.501C898.543 113.307 888.66 107.819 877.802 109.755C875.647 110.141 873.445 110.66 871.455 111.544C865.346 114.258 864.185 121.915 869.591 125.753C873.962 128.859 878.95 131.121 883.738 133.609C891.857 137.826 900.353 141.411 908.107 146.214C918.129 152.427 924.105 161.553 924.31 173.879C924.45 182.241 921.472 189.192 915.542 194.979C900.353 209.793 870.453 210.95 854.482 197.174C845.932 189.804 843.007 179.999 842.901 168.83H865.837L865.817 168.837Z" fill="white"/>
<path d="M1080.04 238.231H1103.09C1103.17 239.356 1103.28 240.32 1103.28 241.285C1103.29 265.232 1103.27 289.178 1103.29 313.125C1103.29 319.957 1102.3 326.622 1099.68 332.921C1094.84 344.509 1086.39 352.252 1074.07 354.906C1059.6 358.026 1045.65 357.074 1033.71 346.963C1026.16 340.578 1022.51 332.003 1021.09 322.431C1020.53 318.613 1020.36 314.708 1020.35 310.844C1020.28 287.895 1020.32 264.945 1020.32 241.996V238.245H1043.53C1043.53 239.648 1043.53 240.932 1043.53 242.216C1043.53 265.83 1043.48 289.444 1043.6 313.052C1043.62 316.445 1044.21 319.89 1045 323.203C1045.96 327.201 1048.62 330.121 1052.49 331.504C1058.6 333.7 1064.9 333.919 1070.96 331.438C1079.05 328.125 1079.92 320.695 1079.97 313.385C1080.15 289.77 1080.04 266.156 1080.04 242.549V238.231Z" fill="white"/>
<path d="M1383.48 354.12C1376.39 354.12 1369.44 354.199 1362.49 354.02C1361.6 353.993 1360.31 352.743 1359.95 351.785C1358.18 347.022 1356.59 342.186 1355.08 337.337C1354.54 335.594 1353.72 334.942 1351.82 334.956C1339.55 335.049 1327.29 335.042 1315.03 334.956C1313.17 334.942 1312.29 335.514 1311.74 337.304C1310.24 342.16 1308.62 346.982 1306.87 351.752C1306.54 352.683 1305.45 353.993 1304.67 354.013C1297.62 354.186 1290.57 354.113 1283.04 354.113C1284.24 350.401 1285.28 347.075 1286.39 343.763C1297.84 309.612 1309.33 275.474 1320.68 241.29C1321.55 238.676 1322.72 237.898 1325.35 237.991C1331.09 238.19 1336.85 237.951 1342.58 238.15C1343.65 238.19 1345.3 239.248 1345.62 240.199C1358.34 277.769 1370.93 315.386 1383.53 352.995C1383.59 353.182 1383.51 353.415 1383.47 354.12H1383.48ZM1346.38 311.587C1342.07 298.763 1337.91 286.363 1333.74 273.958L1332.96 274.104C1328.81 286.51 1324.67 298.909 1320.43 311.587H1346.38Z" fill="white"/>
<path d="M1138.94 238.05V291.059C1139.13 291.133 1139.32 291.206 1139.5 291.279C1140.11 290.321 1140.76 289.39 1141.33 288.405C1150.44 272.6 1159.59 256.815 1168.59 240.937C1169.87 238.676 1171.26 237.917 1173.78 237.991C1180.15 238.17 1186.53 238.05 1193.45 238.05C1192.68 239.527 1192.16 240.572 1191.58 241.576C1182.47 257.381 1173.37 273.199 1164.17 288.957C1163.15 290.707 1163.15 291.964 1164.11 293.754C1174.31 312.499 1184.41 331.297 1194.53 350.088C1195.13 351.213 1195.67 352.37 1196.52 354.093C1188.78 354.093 1181.64 354.173 1174.52 353.986C1173.7 353.967 1172.69 352.583 1172.16 351.612C1165.63 339.678 1159.19 327.705 1152.71 315.745C1152.14 314.7 1151.51 313.696 1150.72 312.366C1146.84 319.144 1143.11 325.536 1139.52 332.009C1138.98 332.993 1138.96 334.343 1138.95 335.527C1138.89 340.842 1138.85 346.164 1138.96 351.485C1139.01 353.547 1138.25 354.173 1136.27 354.146C1130.31 354.053 1124.34 354.033 1118.38 354.153C1116.2 354.199 1115.48 353.441 1115.52 351.286C1115.62 344.86 1115.55 338.434 1115.55 332.009C1115.55 302.088 1115.6 272.175 1115.48 242.254C1115.47 238.995 1116.15 237.778 1119.66 237.957C1125.91 238.27 1132.19 238.044 1138.96 238.044L1138.94 238.05Z" fill="white"/>
<path d="M771.292 261.437H721.309V284.359H767.698V307.654H721.103V354.131C713.641 354.131 706.598 354.177 699.56 354.051C698.95 354.038 698.154 353.027 697.816 352.308C697.518 351.67 697.736 350.785 697.736 350.007C697.736 314.093 697.776 278.173 697.67 242.259C697.663 239.026 698.3 237.922 701.815 237.949C723.697 238.128 745.584 238.042 767.472 238.042H771.299V261.43L771.292 261.437Z" fill="white"/>
<path d="M809.666 88.3818H833.106V204.451H809.666V88.3818Z" fill="white"/>
<path d="M1045.97 204.452H1022.5V88.5031H1045.97V204.452Z" fill="white"/>
<path d="M1389.36 238.045H1412.79V354.114H1389.36V238.045Z" fill="white"/>
</svg>
