<svg width="535" height="406" viewBox="0 0 535 406" fill="none" xmlns="http://www.w3.org/2000/svg">
<path d="M533.384 329.908H523.623V388.348H533.384V329.908Z" fill="white"/>
<path d="M506.502 388.348V329.908H516.263V378.587C516.247 383.973 511.888 388.348 506.502 388.348Z" fill="white"/>
<path d="M516.248 378.794H418.163V388.555H516.248V378.794Z" fill="white"/>
<path d="M329.745 388.555C327.107 388.555 324.975 386.407 324.975 383.769V378.794H412.698V388.555H329.745Z" fill="white"/>
<path d="M496.472 349.731H486.711V388.349H496.472V349.731Z" fill="white"/>
<path d="M359.28 329.908H349.52V388.348H359.28V329.908Z" fill="white"/>
<path d="M334.704 388.349C329.318 388.349 324.942 383.974 324.942 378.588V349.731H334.704V388.349Z" fill="white"/>
<path d="M479.003 349.731H469.242V388.349H479.003V349.731Z" fill="white"/>
<path d="M461.534 349.731H451.773V388.349H461.534V349.731Z" fill="white"/>
<path d="M133.528 388.349V349.731H143.289V378.588C143.289 383.974 138.914 388.349 133.528 388.349Z" fill="white"/>
<path d="M125.821 349.731H116.06V388.349H125.821V349.731Z" fill="white"/>
<path d="M108.351 349.731H98.5898V388.349H108.351V349.731Z" fill="white"/>
<path d="M296.622 329.908H286.861V388.348H296.622V329.908Z" fill="white"/>
<path d="M269.393 388.348V329.908H279.154V378.587C279.154 383.973 274.794 388.348 269.393 388.348Z" fill="white"/>
<path d="M279.154 388.555H160.79C155.404 388.555 151.028 384.18 151.028 378.794H279.154V388.555Z" fill="white"/>
<path d="M256.978 359.492H227.821V349.731H249.95L256.978 359.492Z" fill="white"/>
<path d="M259.696 388.349H249.935V349.731C255.321 349.731 259.696 354.091 259.696 359.492V388.349Z" fill="white"/>
<path d="M234.834 349.731H225.073V388.349H234.834V349.731Z" fill="white"/>
<path d="M183.249 359.492H154.093V349.731H176.221C181.591 349.731 183.249 354.106 183.249 359.492Z" fill="white"/>
<path d="M185.966 388.349H176.205V349.731C181.591 349.731 185.966 354.091 185.966 359.492V388.349Z" fill="white"/>
<path d="M160.758 388.555C155.372 388.555 150.997 384.179 150.997 378.793V349.731H160.758V388.555Z" fill="white"/>
<path d="M210.305 349.731H200.544V388.349H210.305V349.731Z" fill="white"/>
<path d="M143.289 388.555H0C0 383.169 4.3594 378.794 9.76115 378.794H143.289V388.555Z" fill="white"/>
<path d="M70.6176 359.492H16.5527V349.731H65.0265L70.6176 359.492Z" fill="white"/>
<path d="M25.5873 329.908H15.8262V388.348H25.5873V329.908Z" fill="white"/>
<path d="M74.7873 388.349H65.0263L65.0265 349.731C70.4124 349.731 74.7873 354.091 74.7873 359.492V388.349Z" fill="white"/>
<path d="M427.924 388.348C422.538 388.348 418.163 383.973 418.163 378.587V329.908H427.924V388.348Z" fill="white"/>
<path d="M217.175 334.9C217.175 331.836 214.696 329.372 211.647 329.372C208.599 329.372 206.119 331.852 206.119 334.9C206.119 337.949 208.599 340.428 211.647 340.428C214.696 340.428 217.175 337.949 217.175 334.9Z" fill="white"/>
<path d="M203.624 334.9C203.624 331.836 201.144 329.372 198.095 329.372C195.047 329.372 192.567 331.852 192.567 334.9C192.567 337.949 195.047 340.428 198.095 340.428C201.144 340.428 203.624 337.949 203.624 334.9Z" fill="white"/>
<path d="M171.213 385.806L174.782 388.539C174.324 389.85 173.74 390.955 173.013 391.872C172.303 392.788 171.497 393.577 170.613 394.241C169.728 394.904 168.828 395.473 167.896 395.947C166.964 396.42 166.064 396.878 165.179 397.336C163.679 398.11 162.241 399.011 160.867 400.022C159.493 401.032 158.309 402.328 157.298 403.891C156.713 404.776 156.429 405.36 156.445 405.644C156.461 405.945 156.698 406.055 157.124 405.992C157.566 405.929 158.167 405.723 158.94 405.36C159.714 404.997 160.551 404.602 161.452 404.16C162.368 403.717 163.316 403.275 164.295 402.817C165.274 402.359 166.206 401.996 167.075 401.743C168.844 401.222 170.581 400.653 172.287 400.053C174.009 399.453 175.604 398.663 177.104 397.7C178.605 396.736 179.963 395.536 181.195 394.083C182.411 392.63 183.422 390.782 184.212 388.523L185.949 385.554" fill="white"/>
<path d="M409.933 380.863L407.359 378.841C406.474 374.924 405.511 371.623 404.468 368.954C403.426 366.285 402.289 364.058 401.072 362.273C399.856 360.504 398.545 359.098 397.187 358.071C395.813 357.045 394.36 356.223 392.812 355.623C391.264 355.023 389.637 354.549 387.947 354.202C386.257 353.854 384.472 353.491 382.608 353.08C380.745 352.67 378.818 352.164 376.812 351.532C374.806 350.916 372.705 350.032 370.525 348.895C369.704 351.532 369.404 353.649 369.625 355.228C369.831 356.808 370.415 358.071 371.363 359.003C372.31 359.935 373.527 360.646 375.011 361.135C376.496 361.625 378.107 362.099 379.86 362.525C381.613 362.968 383.382 363.489 385.199 364.089C387.015 364.689 388.705 365.574 390.285 366.727C391.864 367.88 393.254 369.428 394.439 371.355C395.623 373.282 396.445 375.777 396.903 378.841L393.633 380.863" fill="white"/>
<path d="M162.811 212.16H3.47461V-0.00878906L215.659 106.068L162.811 212.16Z" fill="white"/>
<path d="M321.752 -0.00878906L375.012 212.16H268.92L215.66 -0.00878906H321.752Z" fill="white"/>
<path d="M481.135 -0.00878906L533.921 212.16H427.844L375.043 -0.00878906H481.135Z" fill="white"/>
<path d="M162.811 212.16L321.752 -0.00878906H215.66L162.811 212.16Z" fill="white"/>
<path d="M427.844 212.162H533.92L534.173 106.069L427.844 212.162Z" fill="white"/>
<path d="M42.2814 294.94C42.0761 289.175 41.8549 282.194 41.8549 275.213H41.6338C40.1333 281.341 38.1432 288.18 36.2952 293.803L30.4513 312.535H21.9854L16.8521 293.945C15.2885 288.322 13.6458 281.483 12.5086 275.213H12.3665C12.0822 281.688 11.8768 289.096 11.5136 295.082L10.6606 313.309H0.615234L3.67949 265.325H18.1314L22.8225 281.341C24.323 286.901 25.8076 292.871 26.8817 298.51H27.087C28.4296 292.95 30.0722 286.616 31.6359 281.278L36.7691 265.325H50.9368L53.5746 313.309H42.9607L42.2814 294.94Z" fill="white"/>
<path d="M72.8132 265.325H61.915V313.309H72.8132V265.325Z" fill="white"/>
<path d="M82.2111 265.956C86.1914 265.308 91.3878 264.961 96.8686 264.961C105.982 264.961 111.889 266.604 116.517 270.094C121.492 273.79 124.635 279.713 124.635 288.179C124.635 297.356 121.287 303.705 116.659 307.622C111.605 311.824 103.913 313.814 94.515 313.814C88.8921 313.814 84.912 313.466 82.1953 313.103V265.956H82.2111ZM93.0936 305.127C94.0255 305.348 95.5102 305.348 96.8686 305.348C106.693 305.411 113.105 300.009 113.105 288.542C113.168 278.576 107.34 273.301 98.0057 273.301C95.5892 273.301 94.0255 273.522 93.0936 273.727V305.127Z" fill="white"/>
<path d="M131.743 265.956C135.724 265.308 140.92 264.961 146.417 264.961C155.53 264.961 161.437 266.603 166.065 270.094C171.04 273.79 174.183 279.713 174.183 288.179C174.183 297.355 170.835 303.705 166.207 307.622C161.153 311.823 153.461 313.813 144.063 313.813C138.44 313.813 134.444 313.466 131.743 313.103V265.956ZM142.642 305.126C143.574 305.348 145.058 305.348 146.417 305.348C156.241 305.411 162.653 300.009 162.653 288.542C162.716 278.576 156.888 273.3 147.554 273.3C145.137 273.3 143.574 273.521 142.642 273.727V305.126Z" fill="white"/>
<path d="M181.291 265.325H192.174V304.196H211.253V313.309H181.291V265.325Z" fill="white"/>
<path d="M246.206 293.013H228.548V304.417H248.259V313.309H217.649V265.325H247.264V274.218H228.548V284.184H246.206V293.013Z" fill="white"/>
<path d="M270.041 265.325H280.939V304.196H300.019V313.309H270.041V265.325Z" fill="white"/>
<path d="M317.299 265.325H306.4V313.309H317.299V265.325Z" fill="white"/>
<path d="M335.951 274.439H323.062V265.325H359.943V274.439H346.849V313.309H335.951V274.439Z" fill="white"/>
<path d="M407.564 288.827C407.564 304.559 398.024 314.099 383.998 314.099C369.751 314.099 361.428 303.342 361.428 289.68C361.428 275.291 370.62 264.551 384.788 264.551C399.508 264.535 407.564 275.576 407.564 288.827ZM372.894 289.459C372.894 298.857 377.301 305.475 384.567 305.475C391.895 305.475 396.097 298.493 396.097 289.175C396.097 280.551 391.974 273.159 384.488 273.159C377.159 273.159 372.894 280.124 372.894 289.459Z" fill="white"/>
<path d="M414.671 265.956C418.162 265.387 423.358 264.961 429.123 264.961C436.246 264.961 441.222 266.035 444.649 268.736C447.492 271.01 449.056 274.359 449.056 278.781C449.056 284.91 444.712 289.111 440.59 290.596V290.801C443.938 292.159 445.786 295.366 447.002 299.772C448.503 305.19 449.988 311.445 450.919 313.292H439.816C439.026 311.934 437.889 308.017 436.467 302.11C435.188 296.124 433.119 294.497 428.712 294.418H425.443V313.292H414.687V265.956H414.671ZM429.692 286.615C435.093 286.615 438.3 283.914 438.3 279.713C438.3 275.291 435.314 273.095 430.323 273.016C427.686 273.016 426.201 273.222 425.411 273.364V286.615H429.692Z" fill="white"/>
<path d="M468.689 300.989L465.277 313.309H454.031L468.704 265.325H482.935L497.814 313.309H486.142L482.446 300.989H468.689ZM480.866 292.871L477.881 282.683C477.028 279.84 476.175 276.271 475.465 273.428H475.323C474.612 276.271 473.901 279.904 473.111 282.683L470.268 292.871H480.866Z" fill="white"/>
<path d="M504.195 265.325H515.094V304.196H534.174V313.309H504.195V265.325Z" fill="white"/>
</svg>
