<svg width="375" height="233" viewBox="0 0 375 233" fill="none" xmlns="http://www.w3.org/2000/svg">
<path d="M347.801 48.4496C353.261 48.4496 357.687 44.0238 357.687 38.5642C357.687 33.1047 353.261 28.6788 347.801 28.6788H330.323C324.863 28.6788 320.438 33.1047 320.438 38.5642C320.438 44.0238 324.863 48.4496 330.323 48.4496H347.801Z" fill="white"/>
<path d="M364.399 71.1028C369.859 71.1028 374.285 66.677 374.285 61.2174C374.285 55.7579 369.859 51.332 364.399 51.332H330.323C324.863 51.332 320.437 55.7579 320.437 61.2174C320.437 66.677 324.863 71.1028 330.323 71.1028H364.399Z" fill="white"/>
<path d="M320.447 39.2123H340.218V17.3619L320.447 17.3619V39.2123Z" fill="white"/>
<path d="M364.399 25.7964C369.859 25.7964 374.285 21.3706 374.285 15.911C374.285 10.4515 369.859 6.02563 364.399 6.02563L330.323 6.02563C324.863 6.02563 320.437 10.4515 320.437 15.911C320.437 21.3706 324.863 25.7964 330.323 25.7964L364.399 25.7964Z" fill="white"/>
<path d="M71.8808 6.02567H71.8711C63.8314 6.02567 57.3138 12.5432 57.3138 20.5829V56.5456C57.3138 64.5854 63.8314 71.1029 71.8711 71.1029H71.8808C79.9205 71.1029 86.438 64.5854 86.438 56.5456V20.5829C86.438 12.5432 79.9205 6.02567 71.8808 6.02567Z" fill="white"/>
<path d="M20.9642 6.02567H20.9545C12.9148 6.02567 6.39728 12.5432 6.39728 20.5829V56.5456C6.39728 64.5854 12.9148 71.1029 20.9545 71.1029H20.9642C29.004 71.1029 35.5215 64.5854 35.5215 56.5456V20.5829C35.5215 12.5432 29.004 6.02567 20.9642 6.02567Z" fill="white"/>
<path d="M82.1695 10.3034L82.1627 10.2966C76.4777 4.61159 67.2606 4.61159 61.5756 10.2966L36.1462 35.726C30.4612 41.411 30.4612 50.6282 36.1462 56.3131L36.153 56.32C41.838 62.0049 51.0551 62.0049 56.7401 56.32L82.1695 30.8905C87.8545 25.2055 87.8545 15.9884 82.1695 10.3034Z" fill="white"/>
<path d="M10.666 10.2936L10.6591 10.3004C4.97417 15.9854 4.97417 25.2025 10.6591 30.8875L36.0886 56.317C41.7736 62.0019 50.9907 62.0019 56.6757 56.317L56.6825 56.3101C62.3675 50.6251 62.3675 41.408 56.6825 35.723L31.2531 10.2936C25.5681 4.60859 16.3509 4.60859 10.666 10.2936Z" fill="white"/>
<path d="M71.8808 83.4065H71.8711C63.8314 83.4065 57.3138 89.924 57.3138 97.9637V133.926C57.3138 141.966 63.8314 148.484 71.8711 148.484H71.8808C79.9205 148.484 86.438 141.966 86.438 133.926V97.9637C86.438 89.924 79.9205 83.4065 71.8808 83.4065Z" fill="white"/>
<path d="M20.9642 83.4065H20.9545C12.9148 83.4065 6.39728 89.924 6.39728 97.9637V133.926C6.39728 141.966 12.9148 148.484 20.9545 148.484H20.9642C29.004 148.484 35.5215 141.966 35.5215 133.926V97.9637C35.5215 89.924 29.004 83.4065 20.9642 83.4065Z" fill="white"/>
<path d="M82.171 87.6828L82.1641 87.6759C76.4791 81.991 67.262 81.991 61.577 87.6759L36.1476 113.105C30.4626 118.79 30.4626 128.008 36.1475 133.692L36.1544 133.699C41.8394 139.384 51.0565 139.384 56.7415 133.699L82.171 108.27C87.8559 102.585 87.8559 93.3677 82.171 87.6828Z" fill="white"/>
<path d="M10.6646 87.673L10.6577 87.6798C4.97277 93.3648 4.97277 102.582 10.6577 108.267L36.0872 133.696C41.7722 139.381 50.9893 139.381 56.6743 133.696L56.6811 133.69C62.3661 128.005 62.3661 118.787 56.6811 113.102L31.2516 87.6729C25.5667 81.988 16.3495 81.988 10.6646 87.673Z" fill="white"/>
<path d="M267.296 83.4354H267.287C259.247 83.4354 252.729 89.9529 252.729 97.9927V133.955C252.729 141.995 259.247 148.513 267.287 148.513H267.296C275.336 148.513 281.854 141.995 281.854 133.955V97.9927C281.854 89.9529 275.336 83.4354 267.296 83.4354Z" fill="white"/>
<path d="M149.397 83.4354H149.387C141.348 83.4354 134.83 89.9529 134.83 97.9927V133.955C134.83 141.995 141.348 148.513 149.387 148.513H149.397C157.437 148.513 163.954 141.995 163.954 133.955V97.9927C163.954 89.9529 157.437 83.4354 149.397 83.4354Z" fill="white"/>
<path d="M159.687 87.6954L159.68 87.6886C153.995 82.0036 144.778 82.0036 139.093 87.6886L102.782 124C97.0969 129.685 97.0969 138.902 102.782 144.587L102.789 144.594C108.474 150.279 117.691 150.279 123.376 144.594L159.687 108.282C165.372 102.598 165.372 93.3804 159.687 87.6954Z" fill="white"/>
<path d="M216.982 165.06L216.975 165.053C211.29 159.368 202.073 159.368 196.388 165.053L160.077 201.365C154.392 207.049 154.392 216.267 160.077 221.952L160.084 221.958C165.769 227.643 174.986 227.643 180.671 221.958L216.982 185.647C222.667 179.962 222.667 170.745 216.982 165.06Z" fill="white"/>
<path d="M216.982 221.95L216.989 221.943C222.674 216.258 222.674 207.041 216.989 201.356L180.677 165.045C174.992 159.36 165.775 159.36 160.09 165.045L160.084 165.052C154.399 170.737 154.399 179.954 160.083 185.639L196.395 221.95C202.08 227.635 211.297 227.635 216.982 221.95Z" fill="white"/>
<path d="M131.396 5.56137C113.299 5.56137 98.6255 20.2347 98.6255 38.3321C98.6255 56.4296 113.299 71.1029 131.396 71.1029C149.494 71.1029 164.167 56.4296 164.167 38.3321C164.167 20.2347 149.503 5.56137 131.396 5.56137ZM137.219 30.7101C133.253 30.7101 130.042 27.4988 130.042 23.5331C130.042 19.5673 133.253 16.356 137.219 16.356C141.185 16.356 144.396 19.5673 144.396 23.5331C144.396 27.4988 141.185 30.7101 137.219 30.7101Z" fill="white"/>
<path d="M111.093 160.923C93.1604 160.923 78.6225 175.461 78.6225 193.394C78.6225 211.327 93.1604 225.864 111.093 225.864C129.026 225.864 143.564 211.327 143.564 193.394C143.564 175.461 129.026 160.923 111.093 160.923ZM116.278 187.048C112.003 187.048 108.54 183.586 108.54 179.31C108.54 175.035 112.003 171.572 116.278 171.572C120.553 171.572 124.016 175.035 124.016 179.31C124.016 183.586 120.553 187.048 116.278 187.048Z" fill="white"/>
<path d="M67.3346 179.842C67.3346 169.396 58.8711 160.932 48.4247 160.932H20.9545C12.9166 160.932 6.39728 167.452 6.39728 175.49V211.443C6.39728 219.481 12.9166 226 20.9545 226H24.9203V226.068H48.415C58.8614 226.068 67.325 217.604 67.325 207.158C67.325 201.78 65.0713 196.943 61.473 193.5C65.0713 190.057 67.325 185.22 67.325 179.842H67.3346ZM47.293 210.93C43.6851 210.93 40.7543 207.999 40.7543 204.391C40.7543 200.783 43.6851 197.853 47.293 197.853C50.9009 197.853 53.8317 200.783 53.8317 204.391C53.8317 207.999 50.9009 210.93 47.293 210.93ZM47.4478 183.305C43.9173 183.305 41.0639 180.452 41.0639 176.921C41.0639 173.391 43.9173 170.537 47.4478 170.537C50.9783 170.537 53.8317 173.4 53.8317 176.921C53.8317 180.442 50.9686 183.305 47.4478 183.305Z" fill="white"/>
<path fill-rule="evenodd" clip-rule="evenodd" d="M190.36 5.91925C198.106 5.91925 204.386 12.1986 204.386 19.9445V41.2919C204.386 42.29 205.196 43.1007 206.194 43.1007C207.193 43.1007 208.003 42.29 208.003 41.2919V19.9445C208.003 12.1986 214.283 5.91925 222.029 5.91925C229.774 5.91925 236.054 12.1986 236.054 19.9445V41.2919C236.054 57.7819 222.684 71.1513 206.194 71.1513C189.705 71.1513 176.335 57.7819 176.335 41.2919V19.9445C176.335 12.1986 182.615 5.91925 190.36 5.91925Z" fill="white"/>
<path d="M241.267 116.448C241.267 109.728 235.819 104.28 229.099 104.28C222.379 104.28 216.931 109.728 216.931 116.448V136.325C216.931 143.046 222.379 148.493 229.099 148.493C235.819 148.493 241.267 143.046 241.267 136.325V116.448Z" fill="white"/>
<path fill-rule="evenodd" clip-rule="evenodd" d="M176.113 115.945C176.113 98.0665 190.608 83.5709 208.487 83.5709C214.961 83.5709 220.21 88.8195 220.21 95.2941C220.21 101.769 214.961 107.017 208.487 107.017C203.557 107.017 199.559 111.016 199.559 115.945C199.559 120.875 203.557 124.873 208.487 124.873C213.416 124.873 217.415 120.875 217.415 115.945C217.415 109.471 222.663 104.222 229.138 104.222C235.612 104.222 240.861 109.471 240.861 115.945C240.861 133.824 226.365 148.319 208.487 148.319C190.608 148.319 176.113 133.824 176.113 115.945Z" fill="white"/>
<path fill-rule="evenodd" clip-rule="evenodd" d="M303.268 93.3885C315.914 80.7433 336.404 80.7433 349.049 93.3885C353.627 97.9666 353.627 105.389 349.049 109.968C344.471 114.546 337.048 114.546 332.47 109.968C328.981 106.479 323.336 106.479 319.848 109.968C316.359 113.456 316.359 119.101 319.848 122.59C323.336 126.079 328.981 126.079 332.47 122.59C337.048 118.012 344.471 118.012 349.049 122.59C353.627 127.168 353.627 134.591 349.049 139.169C336.404 151.814 315.914 151.814 303.268 139.169C290.623 126.524 290.623 106.034 303.268 93.3885Z" fill="white"/>
<path fill-rule="evenodd" clip-rule="evenodd" d="M252.947 18.6774C252.947 11.7835 258.536 6.19495 265.429 6.19495H294.641C299.496 6.19495 303.91 9.01009 305.958 13.4121C308.006 17.8141 307.316 23.0042 304.189 26.7179L287.888 46.0751H295.801C302.695 46.0751 308.284 51.6637 308.284 58.5576C308.284 65.4515 302.695 71.04 295.801 71.04H261.057C256.202 71.04 251.788 68.2249 249.74 63.8229C247.692 59.4209 248.382 54.2308 251.509 50.5171L267.81 31.1599H265.429C258.536 31.1599 252.947 25.5713 252.947 18.6774Z" fill="white"/>
</svg>
