<svg width="1116" height="168" viewBox="0 0 1116 168" fill="none" xmlns="http://www.w3.org/2000/svg">
<path d="M72.9761 2.39378H104.904C104.685 15.4508 104.248 49.1813 104.248 83.7824C104.248 120.124 104.248 144.715 104.685 165.606H66.6344C62.0421 150.808 51.108 120.995 41.0487 95.9689C36.6751 82.0415 33.3949 67.4611 30.552 52.8808H30.1146C31.2081 70.2902 31.8641 85.7409 32.0828 99.6684C32.3015 133.617 32.5201 156.466 32.7388 165.606H0.374023C0.374023 144.062 0.592705 118.819 0.592705 84C0.592705 49.399 0.592705 23.5026 0.374023 2.39378H42.5795C45.4223 13.4922 57.8871 45.9171 67.2904 75.0777C70.7893 85.5233 73.6322 98.1451 76.0377 110.984L76.2563 110.767C75.1629 95.9689 74.5069 82.0415 74.2882 68.9845C74.2882 46.3523 73.6322 17.4093 72.9761 2.39378Z" fill="white"/>
<path d="M202.738 2.39378H239.695C239.257 17.1917 239.039 31.9896 239.039 53.7513C239.039 69.6373 239.257 94.6632 239.257 115.119C239.257 149.285 226.137 168 187.43 168C148.942 168 135.603 149.285 135.603 115.119C135.603 94.6632 135.821 69.6373 135.821 53.7513C135.821 31.9896 135.384 17.1917 135.165 2.39378H172.997C172.56 30.6839 172.341 82.6943 172.341 111.637C172.341 126.218 176.933 132.529 188.305 132.529C199.02 132.529 203.394 126.218 203.394 111.637C203.394 82.6943 202.956 30.4663 202.738 2.39378Z" fill="white"/>
<path d="M357.877 2.39378H400.957C400.519 23.7202 400.301 48.0933 400.301 83.7824C400.301 118.383 400.519 142.104 400.957 165.606H365.312C365.968 140.145 366.405 122.301 366.405 95.5337C366.405 82.2591 367.28 65.9378 367.936 50.7047L367.061 50.487C364.656 65.5026 361.813 80.7358 359.626 90.3109L341.257 165.606H325.949L307.361 89.2228C304.956 79.2124 302.113 64.1969 299.707 50.2694L299.051 50.487C299.489 66.1554 300.363 80.9534 300.582 95.5337C300.582 122.518 301.019 140.363 301.457 165.606H269.967C270.404 142.104 270.623 118.383 270.623 83.7824C270.623 48.0933 270.404 23.7202 270.185 2.39378H316.983C320.263 16.7565 325.949 43.3057 332.291 68.9845C333.822 76.601 335.352 87.6995 336.883 97.9275H337.758C339.507 87.4819 341.038 76.8187 342.569 69.2021C348.473 43.5233 354.815 16.9741 357.877 2.39378Z" fill="white"/>
<path d="M538.388 80.7358C538.388 144.062 519.144 168 482.624 168C446.104 168 427.516 144.062 427.516 80.7358C427.516 18.2798 448.072 0 482.624 0C517.175 0 538.388 18.2798 538.388 80.7358ZM482.842 132.964C494.651 132.964 500.774 121.648 500.774 81.3886C500.774 42.4352 494.433 32.8601 482.842 32.8601C471.252 32.8601 464.692 42.2176 464.692 81.3886C464.692 121.865 471.034 132.964 482.842 132.964Z" fill="white"/>
<path d="M662.477 102.062H674.942C672.536 84.6529 670.131 66.5907 667.725 50.9223C665.757 40.6943 664.226 29.8135 663.133 21.7617H661.821C660.728 29.8135 658.978 40.6943 657.01 51.1399C654.823 66.8083 652.199 84.6528 649.794 101.845C654.605 102.062 658.978 102.062 662.477 102.062ZM722.833 165.606H682.158C681.721 159.295 680.409 146.456 678.441 130.352H646.076C644.108 145.803 642.577 158.642 642.14 165.606H604.964C613.274 124.912 630.331 22.6321 633.611 2.39378H693.092C696.81 23.0674 713.867 124.477 722.833 165.606Z" fill="white"/>
<path d="M790.175 131.658C805.701 131.658 811.824 126.435 811.824 82.2591C811.824 38.7358 805.482 34.1658 790.612 34.1658C787.113 34.1658 783.833 34.1658 780.553 34.3834C780.115 49.1813 780.116 67.4611 780.116 84.4352C780.116 105.762 780.115 120.342 780.334 131.44C783.614 131.658 786.676 131.658 790.175 131.658ZM743.377 2.39378H792.58C830.85 2.39378 848.344 15.4508 848.344 80.3005C848.344 148.415 832.818 165.606 791.924 165.606H743.377C743.814 142.974 744.033 118.819 744.033 84.2176C744.033 49.6166 743.814 23.285 743.377 2.39378Z" fill="white"/>
<path d="M942.115 2.39378H979.729C979.291 24.5907 979.073 49.399 979.073 84C979.073 118.601 979.291 142.104 979.729 165.606H942.115C942.334 148.632 942.553 121.648 942.771 102.062C937.742 102.062 932.493 102.062 927.026 102.062C921.778 102.062 916.53 102.062 911.5 102.062C911.5 121.648 911.719 148.415 912.156 165.606H874.543C875.199 142.104 875.199 118.601 875.199 84C875.199 49.399 875.199 24.5907 874.543 2.39378H912.156C911.719 18.715 911.5 46.5699 911.5 66.5907C916.53 66.8083 921.778 66.8083 927.026 66.8083C932.493 66.8083 937.742 66.8083 942.771 66.5907C942.553 46.5699 942.553 18.715 942.115 2.39378Z" fill="white"/>
<path d="M1057.2 131.658C1072.73 131.658 1078.85 126.435 1078.85 82.2591C1078.85 38.7358 1072.51 34.1658 1057.64 34.1658C1054.14 34.1658 1050.86 34.1658 1047.58 34.3834C1047.15 49.1813 1047.15 67.4611 1047.15 84.4352C1047.15 105.762 1047.15 120.342 1047.36 131.44C1050.64 131.658 1053.71 131.658 1057.2 131.658ZM1010.41 2.39378H1059.61C1097.88 2.39378 1115.37 15.4508 1115.37 80.3005C1115.37 148.415 1099.85 165.606 1058.95 165.606H1010.41C1010.84 142.974 1011.06 118.819 1011.06 84.2176C1011.06 49.6166 1010.84 23.285 1010.41 2.39378Z" fill="white"/>
</svg>
