<svg width="326" height="328" viewBox="0 0 326 328" fill="none" xmlns="http://www.w3.org/2000/svg">
<path d="M254.488 2.06823C294.542 3.03582 323.142 30.1508 324.83 69.9907C326.382 106.68 325.921 143.46 325.977 180.195C326.011 206.061 325.989 231.949 324.965 257.782C323.424 296.53 296.196 324.163 257.414 326.121C233.471 327.324 209.451 327.088 185.463 327.156C149.46 327.257 113.457 327.246 77.4534 326.897C61.5669 326.739 46.1868 323.859 32.5506 314.836C11.6349 300.986 1.49766 280.846 1.00261 256.488C0.0462728 208.885 -0.0101362 161.27 0.00111481 113.656C0.00111481 96.4532 0.473823 79.1603 2.13898 62.0475C5.06425 31.951 30.9641 5.66856 61.2069 3.32834C87.1293 1.32566 113.22 1.67444 139.244 1.08939C177.483 0.234893 216.147 1.14416 254.488 2.06823ZM65.8309 153.102C65.8309 176.538 65.9096 199.974 65.7521 223.399C65.7184 227.742 66.9561 229.395 71.5015 229.125C78.0384 228.743 84.6315 228.754 91.1683 229.125C95.6462 229.384 97.0637 227.865 96.9737 223.455C96.7487 211.27 97.0639 199.085 96.8163 186.9C96.7263 182.501 98.0428 181.297 102.532 181.185C112.77 180.926 123.144 180.69 133.18 178.878C147.232 176.336 159.631 169.81 167 156.939C182.853 129.25 175.562 83.4245 125.956 78.8228C108.326 77.1914 90.4258 78.699 72.6717 78.204C66.5961 78.0352 65.6511 80.2967 65.7073 85.6184C65.9549 108.109 65.8084 130.611 65.8197 153.102H65.8309ZM188.49 197.814C188.49 204.767 188.625 212.373 188.433 219.978C188.332 223.612 189.795 225.649 193.204 226.425C199.932 227.967 206.604 230.127 213.433 230.836C227.362 232.287 241.145 231.533 253.813 224.434C274.965 212.575 276.642 182.962 256.694 169.27C251.653 165.816 245.848 163.464 240.323 160.719C233.978 157.569 227.374 154.869 221.287 151.279C219.34 150.132 217.484 146.577 217.821 144.484C218.17 142.369 221.118 139.387 223.233 139.106C229.635 138.273 236.296 137.801 242.664 138.633C249.696 139.556 256.525 142.087 263.984 144.056C263.984 136.034 264.254 128.372 263.782 120.755C263.669 119.034 261.239 116.503 259.405 115.985C244.767 111.867 229.871 110.764 215.054 114.781C201.26 118.516 191.314 126.842 188.411 141.424C185.801 154.52 190.065 165.557 200.81 173.602C204.657 176.482 209.203 178.462 213.535 180.645C221.028 184.425 228.769 187.778 236.048 191.929C237.949 193.01 239.603 196.464 239.435 198.68C239.299 200.57 236.61 203.439 234.653 203.822C229.05 204.913 223.053 206.095 217.563 205.183C207.943 203.586 198.571 200.447 188.49 197.803V197.814Z" fill="white"/>
<path d="M96.9842 154.937C96.9842 138.364 96.9056 123.423 97.1419 108.481C97.1531 107.412 99.4032 105.488 100.63 105.466C107.92 105.353 115.279 105.128 122.479 106.006C135.463 107.581 142.99 115.963 143.44 128.215C143.901 140.783 137.398 149.896 124.673 152.394C115.987 154.093 106.964 154.082 96.973 154.925L96.9842 154.937Z" fill="white"/>
</svg>
