<svg width="159" height="256" viewBox="0 0 159 256" fill="none" xmlns="http://www.w3.org/2000/svg">
<path d="M155.95 141.771C155.18 138.574 154.758 135.195 153.022 132.465C151.874 130.685 151.029 128.709 149.791 127.05C147.481 123.957 145.307 120.73 142.499 118.015C140.672 116.25 139.902 114.108 140.627 111.438C143.375 101.226 142.831 90.698 143.526 80.2903C144.009 73.1859 144.824 66.0965 145.367 58.9921C145.941 51.5106 146.53 44.0291 146.726 36.5175C146.907 29.232 146.439 22.0673 144.749 14.978C143.073 7.96407 138.921 3.28814 131.961 1.20659C131.448 1.23676 130.935 1.32726 130.588 0.799333L130.437 0.633413C124.458 -0.0453525 118.435 -0.181106 112.456 0.226154C106.131 0.66358 99.8354 1.7496 95.095 6.71213C93.691 8.19033 91.7133 8.5825 89.8564 8.12999C82.0966 6.2747 74.216 6.63671 66.3355 6.56129C57.6548 6.47079 49.2911 8.11491 41.1087 10.9205C31.4618 14.2389 24.7437 20.3327 21.3167 30.1371C18.5087 38.1465 16.1083 46.2766 13.7079 54.4067C12.0623 59.9424 10.9603 65.6289 10.2809 71.3758C9.37508 79.1439 9.85818 86.9422 9.73741 94.7253C9.60154 102.886 10.3111 110.94 12.8926 118.754C13.3908 119.9 13.8287 121.076 14.3721 122.193C16.38 126.28 16.1687 126.854 11.851 128.769C4.21196 133.143 1.75118 140.127 0.996335 148.468C0.437752 154.502 1.50963 160.445 1.02653 166.373C0.467945 173.236 0.498139 180.114 0.120718 186.977C-0.407672 196.555 0.935947 206.118 0.603817 215.711C0.271686 225.395 0.890657 234.988 3.80435 244.31C6.35572 251.007 11.4283 254.175 18.3426 255.17C27.3705 256.483 36.2626 256.392 44.9584 253.375C49.8497 251.686 54.3033 249.227 57.0207 244.551C58.5304 241.972 59.2249 239.091 59.6476 236.165C59.9495 234.083 61.0365 233.088 63.1199 233.405C66.9394 233.993 70.7891 233.812 74.6387 233.872C81.5078 233.963 88.2108 232.696 94.9289 231.564C99.2315 230.84 103.564 230.207 107.746 229.03C112.336 227.733 116.774 225.938 121.228 224.219C128.852 221.262 136.053 217.476 142.258 212.106C150.561 204.912 155.89 196.118 157.611 185.001C159.876 170.415 159.392 156.071 155.95 141.741V141.771ZM134.679 191.05C129.893 199.662 123.085 207.355 114.54 211.91C98.2351 220.629 80.6926 223.826 62.7575 216.451C56.9301 214.052 50.3328 213.645 45.1697 209.316C41.939 206.616 41.0785 209.044 41.1539 212.091C41.2747 216.526 41.3049 220.945 41.4408 225.38C41.7276 235.275 38.5724 239.74 31.0089 240.072C23.9888 240.388 18.4936 234.883 18.086 226.285C17.6331 216.707 17.5274 207.084 17.7236 197.505C18.0105 183.734 18.72 169.978 19.2484 156.206C19.3994 152.254 19.5353 148.348 22.7056 145.301C26.2534 141.892 29.9672 139.313 35.2058 141.319C40.4444 143.325 42.6787 147.307 42.7844 152.692C43.0562 167.459 47.8268 179.586 60.2062 189.028C77.5524 202.257 104.515 197.671 115.234 178.621C121.862 166.84 116.08 152.36 103.232 147.096C89.494 141.47 75.4842 137.804 60.7044 135.723C45.7585 133.626 36.4588 122.555 32.1713 108.904C24.0945 83.1863 28.9255 58.1927 40.7614 34.6772C46.4378 23.4097 64.856 18.6131 79.0017 23.093C85.5538 25.1595 92.1662 27.1354 96.5443 33.1689C98.2653 35.537 100.983 36.8795 105.24 38.0107C105.24 32.3996 105.149 27.4974 105.255 22.5952C105.436 14.1031 109.86 9.12552 116.774 9.45736C123.568 9.77411 128.655 15.2797 128.384 22.7762C127.523 46.1258 126.481 69.4904 125.379 92.8248C125.092 98.9789 122.164 102.961 115.476 103.474C108.727 103.987 103.73 102.101 102.749 94.6197C101.451 84.8455 99.6391 75.2825 94.6119 66.5641C89.0411 56.8804 82.2627 48.4637 71.1061 45.266C65.2938 43.6068 59.9042 45.7788 57.9869 51.8425C53.3673 66.4284 50.1064 81.3461 52.6124 96.7767C54.3486 107.456 62.1688 113.625 72.9781 114.198C85.433 114.862 96.7405 119.704 108.335 123.837C120.624 128.226 130.044 135.617 135.841 146.779C143.45 161.44 142.62 176.675 134.649 191.065L134.679 191.05Z" fill="white"/>
</svg>
