<svg width="377" height="101" viewBox="0 0 377 101" fill="none" xmlns="http://www.w3.org/2000/svg">
<path d="M74.0819 50.581C75.7011 45.0401 82.2856 23.5141 85.1927 14.0183C84.0208 12.9043 82.795 11.8483 81.5195 10.8503C78.6372 11.8773 75.3077 13.364 71.9947 15.4967C63.3851 21.0459 58.2749 31.1422 54.701 38.5508C49.686 48.9535 46.344 61.0003 39.5856 69.5602C34.6493 76.0122 26.8596 78.7164 20.3165 79.2755C16.9497 79.5654 12.7215 79.4743 8.69629 78.762C17.7531 92.1712 33.0963 100.988 50.4935 100.988C67.6009 100.988 82.7163 92.4611 91.8269 79.4287H65.0954C66.6152 75.1633 72.4337 56.6976 74.0819 50.581Z" fill="white"/>
<path d="M147.249 41.2179V44.5847C143.82 42.5679 140.867 41.5575 138.399 41.5575C136.022 41.5575 134.038 42.278 132.448 43.7192C130.854 45.1603 130.059 46.9452 130.059 49.0779C130.059 50.606 130.531 51.9809 131.471 53.2067C132.415 54.4325 134.382 55.6086 137.38 56.7391C140.378 57.8697 142.565 58.8139 143.94 59.5676C145.315 60.3213 146.487 61.4145 147.443 62.8474C148.404 64.2803 148.885 66.1355 148.885 68.4173C148.885 71.4528 147.771 74.0163 145.551 76.1076C143.327 78.1989 140.61 79.2466 137.409 79.2466C134.129 79.2466 130.754 78.0953 127.288 75.797V72.2066C131.115 75.0184 134.432 76.4182 137.239 76.4182C139.575 76.4182 141.55 75.6603 143.161 74.1446C144.772 72.6248 145.58 70.7654 145.58 68.5581C145.58 66.881 145.079 65.3694 144.081 64.0194C143.083 62.6693 141.058 61.4104 138.006 60.2384C134.954 59.0665 132.771 58.1223 131.463 57.4059C130.15 56.6894 129.04 55.6666 128.125 54.3414C127.209 53.012 126.754 51.3059 126.754 49.2145C126.754 46.3157 127.864 43.8393 130.092 41.7977C132.316 39.756 134.991 38.729 138.122 38.729C141.19 38.729 144.234 39.5572 147.249 41.2179Z" fill="white"/>
<path d="M157.457 78.733H154.687V39.2383H157.457V78.733ZM175.861 52.7221L161.635 65.067L178.064 78.733H174.262L157.85 65.0753L172.216 52.7221H175.861V52.7221Z" fill="white"/>
<path d="M200.484 52.7217L181.016 92.0466H178.179L187.273 73.6762L176.312 52.7217H179.219L188.656 70.885L197.647 52.7217H200.484Z" fill="white"/>
<path d="M206.961 39.2383H204.161V78.733H206.961V39.2383Z" fill="white"/>
<path d="M232.939 78.7326V74.434H232.827C231.622 76.1692 230.383 77.4033 229.108 78.1363C227.837 78.8693 226.217 79.2378 224.259 79.2378C221.472 79.2378 219.161 78.3309 217.33 76.5212C215.504 74.7115 214.589 72.1481 214.589 68.831V52.7217H217.359V68.7813C217.359 71.1956 218.018 73.0881 219.339 74.463C220.66 75.8379 222.374 76.5253 224.482 76.5253C226.292 76.5253 227.832 76.1112 229.104 75.283C230.375 74.4547 231.655 73.0219 232.934 70.9844V52.7217H235.705V78.7326H232.939Z" fill="white"/>
<path d="M253.524 67.3121L243.299 78.7336H239.726L251.619 65.4154L239.726 52.7227H243.299L253.524 63.5188L263.711 52.7227H267.29L255.35 65.4154L267.29 78.7336H263.711L253.524 67.3121Z" fill="white"/>
<path d="M299.89 38.9565L318.148 78.737H314.943L308.698 65.0793H289.384L283.159 78.737H279.954L298.213 38.9565H299.89ZM307.53 62.5325L299.02 43.9301L290.539 62.5325H307.53Z" fill="white"/>
<path d="M341.36 52.7217L330.158 79.242H328.489L316.62 52.7217H319.436L329.243 74.6328L338.651 52.7217H341.36Z" fill="white"/>
<path d="M348.173 43.9882H345.373V39.2383H348.173V43.9882ZM348.173 78.733H345.373V52.7221H348.173V78.733Z" fill="white"/>
<path d="M376.586 74.2108V76.5298C374.192 78.3396 372.44 79.2465 371.326 79.2465C370.684 79.2465 370.241 79.0353 369.997 78.6087C369.753 78.1863 369.575 77.3208 369.459 76.0205C366.725 78.1697 364.013 79.2423 361.317 79.2423C359.358 79.2423 357.698 78.6004 356.339 77.3208C354.985 76.0412 354.302 74.4841 354.302 72.6537C354.302 69.8252 355.61 67.5973 358.232 65.9656C360.853 64.3381 364.593 63.3981 369.454 63.1537V59.8449C369.454 56.3042 367.533 54.5317 363.686 54.5317C361.234 54.5317 358.588 55.6374 355.743 57.8406V54.9873C358.683 53.1403 361.483 52.2168 364.141 52.2168C366.498 52.2168 368.44 52.7966 369.964 53.9561C371.492 55.1156 372.254 56.797 372.254 59.0042V75.2047C372.254 76.0909 372.461 76.534 372.875 76.534C373.409 76.5257 374.643 75.7554 376.586 74.2108ZM369.459 73.5896V65.477C365.897 65.3444 362.944 65.9698 360.596 67.3571C358.248 68.7402 357.076 70.5085 357.076 72.6578C357.076 73.8629 357.565 74.8816 358.546 75.7099C359.528 76.5381 360.754 76.9522 362.224 76.9522C364.597 76.9522 367.007 75.83 369.459 73.5896Z" fill="white"/>
<path d="M92.6806 78.1823C97.8778 70.2519 100.905 60.7727 100.905 50.5812C100.905 36.5549 95.1736 23.8704 85.9304 14.7349C83.4747 30.0987 74.9438 68.5954 73.6973 72.3888C77.8923 75.8094 86.5557 76.3519 92.6806 78.1823Z" fill="white"/>
<path d="M39.6279 56.5566C43.6697 49.852 46.1213 44.572 49.0657 38.0827C53.6252 28.0444 60.7564 16.9253 71.9956 11.9103C74.5715 10.759 77.2591 10.0136 79.7521 9.52908C71.5028 3.64442 61.4065 0.178223 50.4986 0.178223C22.6614 0.178223 0.0917969 22.7478 0.0917969 50.585C0.0917969 59.7288 2.52682 68.3053 6.78398 75.7015C11.8155 75.2708 18.7562 74.3349 23.2122 72.3181C31.8424 68.4046 35.3086 63.7251 39.6279 56.5566Z" fill="white"/>
<mask id="mask0_1354_418" style="mask-type:alpha" maskUnits="userSpaceOnUse" x="0" y="0" width="101" height="101">
<path opacity="0.29" d="M50.4938 100.988C78.3807 100.988 100.988 78.3807 100.988 50.4938C100.988 22.6068 78.3807 0 50.4938 0C22.6068 0 0 22.6068 0 50.4938C0 78.3807 22.6068 100.988 50.4938 100.988Z" fill="white"/>
</mask>
<g mask="url(#mask0_1354_418)">
</g>
</svg>
