<svg width="300" height="296" viewBox="0 0 300 296" fill="none" xmlns="http://www.w3.org/2000/svg">
<path d="M89.8603 182.165C88.0703 183.515 86.3703 184.795 84.6703 186.085C69.4503 197.615 54.2404 209.155 39.0104 220.665C37.8004 221.575 36.5603 222.475 35.2303 223.185C32.0103 224.885 27.9903 224.445 25.1103 221.765C18.0103 215.165 10.8004 208.695 3.62035 202.185C2.10035 200.805 1.1603 199.095 0.810296 197.115C0.440296 195.005 1.04038 193.125 2.65038 191.645C5.07038 189.425 7.5003 187.215 9.9403 185.005C19.8503 176.005 29.7603 166.995 39.6703 157.995C43.2303 154.765 46.7803 151.535 50.3403 148.305C50.6703 148.005 50.9903 147.695 51.4203 147.285C51.0203 146.905 50.6903 146.565 50.3403 146.245C42.1303 138.795 33.9203 131.335 25.7103 123.885C18.2903 117.145 10.8703 110.415 3.45031 103.675C2.96031 103.235 2.44034 102.835 1.98034 102.365C-0.35966 99.9753 -0.65963 96.9253 1.26037 94.1953C1.96037 93.1953 2.83035 92.2953 3.74035 91.4753C10.7904 85.1353 17.8803 78.8253 24.9403 72.4953C26.4803 71.1153 28.2304 70.1853 30.2704 69.8653C31.9604 69.5953 33.5303 70.0453 34.9803 70.8853C35.6203 71.2553 36.1904 71.7253 36.7804 72.1753C54.1304 85.3053 71.4903 98.4353 88.8403 111.565C89.2003 111.835 89.5704 112.085 90.0004 112.405C90.3704 112.095 90.7203 111.825 91.0503 111.525C106 97.9353 120.95 84.3453 135.9 70.7453C150.48 57.4853 165.06 44.2153 179.65 30.9553C189.22 22.2453 198.83 13.5853 208.32 4.80528C210.46 2.82528 212.76 1.30528 215.54 0.555278C219.78 -0.594722 223.83 0.11529 227.72 2.00529C248.24 11.9453 268.76 21.8853 289.29 31.8153C291.03 32.6553 292.8 33.3953 294.33 34.6153C297.48 37.1253 299.2 40.3153 299.19 44.3853C299.19 45.0053 299.19 45.6153 299.19 46.2353C299.19 112.965 299.19 179.695 299.19 246.415C299.19 247.525 299.29 248.635 299.22 249.735C298.99 253.305 297.4 256.255 294.95 258.775C293.46 260.315 291.75 261.545 289.8 262.505C267.94 273.245 246.08 283.995 224.26 294.815C220.7 296.585 217.37 296.155 214.04 294.475C213.07 293.985 212.18 293.255 211.37 292.525C207.57 289.075 203.82 285.565 200.02 282.115C185.37 268.805 170.71 255.495 156.06 242.195C142.1 229.525 128.14 216.865 114.18 204.195C106.42 197.155 98.6704 190.115 90.9104 183.085C90.6104 182.815 90.2904 182.555 89.8704 182.185L89.8603 182.165ZM224.79 80.1853C224.54 80.2253 224.44 80.2153 224.39 80.2653C195.33 102.425 166.28 124.585 137.22 146.745C136.99 146.915 136.79 147.115 136.57 147.305C136.54 147.335 136.53 147.375 136.52 147.415C136.52 147.455 136.52 147.485 136.54 147.585C136.72 147.745 136.92 147.945 137.15 148.115C166.26 170.135 195.37 192.145 224.49 214.155C224.52 214.175 224.57 214.175 224.61 214.155C224.65 214.155 224.68 214.115 224.79 214.055V80.1753V80.1853Z" fill="white"/>
</svg>
