<svg width="364" height="254" viewBox="0 0 364 254" fill="none" xmlns="http://www.w3.org/2000/svg">
<path d="M168.519 100.929C160.506 121.473 152.378 141.999 144.517 162.599C135.666 185.759 126.548 208.691 108.294 226.619C92.6858 241.952 74.1839 250.518 52.4084 253.209C43.4812 254.308 40.3407 252.375 38.875 243.07C28.4822 177.723 17.385 112.49 6.53531 47.2193C4.47957 34.8058 2.74707 22.3543 0.462925 9.97861C-0.850461 2.83369 0.253731 -0.274438 8.74315 0.881636C46.9836 6.09345 77.8388 39.6196 79.7422 78.187C81.246 108.207 83.1872 138.227 87.489 168.607C99.8805 136.616 112.12 104.549 124.74 72.653C135.266 46.0254 149.98 22.6196 176.857 9.22054C178.532 8.38665 180.188 7.51484 181.92 6.77571C210.871 -5.58102 216.392 -2.41602 220.218 27.8125C225.776 71.7433 231.581 115.636 237.368 159.529C237.634 161.633 236.968 164.324 241.536 166.181C245.686 153.559 249.644 141.032 253.889 128.618C262.474 103.545 267.956 77.3531 280.671 53.7578C296.489 24.439 320.054 5.77126 353.84 0.93849C363.967 -0.520817 366.232 1.35543 361.93 11.6653C338.003 68.8626 314.972 126.439 291.178 183.693C277.911 215.608 257.449 240.549 222.178 250.158C195.701 257.378 193.93 256.507 189.933 229.083C183.747 186.668 177.903 144.216 171.908 101.782C170.784 101.479 169.661 101.176 168.538 100.854L168.519 100.929Z" fill="white"/>
</svg>
