<svg width="229" height="95" viewBox="0 0 229 95" fill="none" xmlns="http://www.w3.org/2000/svg">
<path d="M48.4051 40.5672C48.6647 39.027 47.6265 37.568 46.0863 37.3084C44.5461 37.0488 43.0871 38.087 42.8275 39.6272C42.5679 41.1674 43.606 42.6265 45.1462 42.886C46.6865 43.1456 48.1455 42.1075 48.4051 40.5672Z" fill="white"/>
<path d="M79.7303 30.7395C83.0643 24.1258 82.7384 16.4087 78.8543 10.1006C74.9703 3.79252 68.2311 0.0273438 60.8229 0.0273438H55.1667C55.1667 3.15085 57.6994 5.6836 60.8229 5.6836C66.2517 5.6836 71.195 8.44383 74.0401 13.068C76.8852 17.6921 77.1263 23.3484 74.6818 28.1932L70.6823 36.1208C67.0971 43.2301 67.0971 51.7179 70.6823 58.8273L74.6818 66.7549C77.1263 71.6031 76.8886 77.2559 74.0401 81.8801C71.195 86.5042 66.2517 89.2644 60.8229 89.2644H48.441V66.1607C48.441 63.0406 45.9082 60.5079 42.7881 60.5079V92.0892C42.7881 93.6509 44.0545 94.9173 45.6162 94.9173H60.8263C68.2344 94.9173 74.9771 91.1521 78.8577 84.844C82.7418 78.5359 83.0677 70.8222 79.7337 64.2051L75.7309 56.2809C72.9503 50.7673 72.9503 44.1841 75.7309 38.6671L79.7303 30.7395Z" fill="white"/>
<path d="M33.3027 0.0273438H13.0916C13.0916 3.15085 15.6243 5.6836 18.7478 5.6836H28.8449L2.21023 62.1681C-1.16112 69.3216 -0.648462 77.5785 3.58524 84.2567C7.81895 90.9348 15.0675 94.9207 22.9747 94.9241H28.631C28.631 91.8074 26.0982 89.2814 22.9849 89.2712C17.0265 89.2712 11.5536 86.2632 8.36217 81.2316C5.17076 76.1967 4.78372 69.9734 7.32326 64.582L35.8592 4.06413C36.2734 3.18819 36.2089 2.16287 35.6894 1.34465C35.1734 0.523032 34.2737 0.0273438 33.3027 0.0273438Z" fill="white"/>
<path d="M184.018 0.0273438H163.807C163.807 3.15085 166.34 5.6836 169.464 5.6836H179.561L152.926 62.1681C149.555 69.3216 150.067 77.5785 154.301 84.2567C158.535 90.9348 165.783 94.9207 173.691 94.9241H179.347C179.347 91.8074 176.814 89.2814 173.701 89.2712C167.742 89.2712 162.269 86.2632 159.078 81.2316C155.887 76.1967 155.5 69.9734 158.039 64.582L186.575 4.06413C186.989 3.18819 186.925 2.16287 186.405 1.34465C185.889 0.523032 184.989 0.0273438 184.018 0.0273438Z" fill="white"/>
<path d="M209.832 89.2678C203.873 89.2678 198.4 86.2598 195.209 81.2282C192.017 76.1933 191.63 69.97 194.17 64.5786L222.706 4.06074C223.12 3.1848 223.056 2.15947 222.536 1.34125C222.017 0.523028 221.117 0.0273438 220.149 0.0273438H199.938C199.938 3.15085 202.471 5.6836 205.594 5.6836H215.692L189.057 62.1681C185.686 69.3216 186.198 77.5785 190.432 84.2567C194.666 90.9348 201.914 94.9207 209.821 94.9241H215.478C215.478 91.804 212.945 89.278 209.832 89.2678Z" fill="white"/>
<path d="M130.623 5.65286V77.9925C130.623 84.209 125.564 89.2677 119.348 89.2677H115.658C109.441 89.2677 104.382 84.209 104.382 77.9925V13.0406C101.262 13.0406 98.7295 15.57 98.7295 18.6901V77.9925C98.7295 87.3291 106.324 94.9205 115.658 94.9205H119.348C128.681 94.9205 136.276 87.3257 136.276 77.9925V0C133.153 0 130.623 2.52936 130.623 5.65286Z" fill="white"/>
<path d="M48.4414 55.958V50.3018C48.4414 48.74 47.1751 47.4736 45.6133 47.4736C44.0516 47.4736 42.7852 48.74 42.7852 50.3018C42.7886 53.4287 45.3179 55.958 48.4414 55.958Z" fill="white"/>
<path d="M2.91608 5.67966H8.48405C8.48405 2.55616 5.95131 0.023407 2.82781 0.023407C1.12686 0.023407 -0.221 1.52405 0.0302382 3.26913C0.233945 4.67471 1.50032 5.67966 2.91608 5.67966Z" fill="white"/>
<path d="M104.383 2.85153C104.383 1.28978 103.116 0.023407 101.555 0.023407C99.993 0.023407 98.7266 1.28978 98.7266 2.85153V8.50779C101.85 8.50779 104.383 5.97503 104.383 2.85153Z" fill="white"/>
<path d="M153.544 5.67966H159.2C159.2 2.55616 156.667 0.023407 153.544 0.023407C151.982 0.023407 150.716 1.28978 150.716 2.85153C150.716 4.41328 151.982 5.67966 153.544 5.67966Z" fill="white"/>
<path d="M225.687 89.2675H220.03C220.03 92.391 222.563 94.9238 225.687 94.9238C227.248 94.9238 228.515 93.6574 228.515 92.0956C228.515 90.5305 227.248 89.2675 225.687 89.2675Z" fill="white"/>
</svg>
